<?xml version="1.0" encoding="utf-8"?>
<!-- Generator: Adobe Illustrator 16.0.0, SVG Export Plug-In . SVG Version: 6.00 Build 0)  -->
<!DOCTYPE svg PUBLIC "-//W3C//DTD SVG 1.1//EN" "http://www.w3.org/Graphics/SVG/1.1/DTD/svg11.dtd">
<svg version="1.1" xmlns="http://www.w3.org/2000/svg" xmlns:xlink="http://www.w3.org/1999/xlink" x="0px" y="0px" width="100px"
	 height="100px" viewBox="0 0 100 100" enable-background="new 0 0 100 100" xml:space="preserve">
<g id="Layer_2">
	<rect opacity="0" fill="#FFFFFF" width="100" height="100"/>
</g>
<g id="Layer_1">
	<g>
		<g>
			<path fill="#FFFFFF" d="M31.6,86.4c-1,8.1-1,8.1,10.6,8.1l-0.2,2.5H0.2l0.2-2.5c11.6,0,11.6,0,12.6-8.1l8.2-62.1
				c0.8-6.8-0.3-6.2-10.8-6.2l0.2-1.9l29.9-7.5h1.2L31.6,86.4z"/>
			<path fill="#FFFFFF" d="M77.1,8.8c16.1,0,25.4,18.6,22.3,44.7c-3.3,26.1-17.2,44.7-33.3,44.7c-16.1,0-25.4-18.6-22.2-44.7
				C47.1,27.4,61,8.8,77.1,8.8z M66.4,95.7c7.6,0,12.1-18.6,15-42.2c2.8-23.6,2.9-42.2-4.7-42.2c-7.6,0-12.1,18.6-14.9,42.2
				C58.9,77.1,58.8,95.7,66.4,95.7z"/>
		</g>
	</g>
</g>
</svg>
