<?xml version="1.0" encoding="utf-8"?>
<!-- Generator: Adobe Illustrator 16.0.0, SVG Export Plug-In . SVG Version: 6.00 Build 0)  -->
<!DOCTYPE svg PUBLIC "-//W3C//DTD SVG 1.1//EN" "http://www.w3.org/Graphics/SVG/1.1/DTD/svg11.dtd">
<svg version="1.1" xmlns="http://www.w3.org/2000/svg" xmlns:xlink="http://www.w3.org/1999/xlink" x="0px" y="0px" width="100px"
	 height="100px" viewBox="0 0 100 100" enable-background="new 0 0 100 100" xml:space="preserve">
<g id="Layer_2">
	<rect opacity="0" fill="#FFFFFF" width="100" height="100"/>
</g>
<g id="Layer_1">
	<g>
		<g>
			<path fill="#FFFFFF" d="M70.9,83.5c4.1,2,6.7-6.5,8.6-11.4h1.9l-2,6.2C74,94.9,66.7,101.6,53.6,99.7c-10.7-1.6-24.7-5.1-35.3-2.7
				l-1-2.5c20.9-16,40.5-43.6,44.1-57.1c5.7-21.4,2.4-26.1-3.8-26.1c-5,0-9.2,3.5-8.8,14.7c0.1,2.6-2.4,7.7-8.6,7.7
				c-6.8,0-8.4-5-7.5-9.3c1.9-8.1,11.4-15.5,27.1-15.5c16.8,0,24.7,9.7,22.6,24.8c-3.6,26-35.3,35-50.3,50.3
				C49.8,75.7,57.3,77.1,70.9,83.5z"/>
		</g>
	</g>
</g>
</svg>
