<?xml version="1.0" encoding="utf-8"?>
<!-- Generator: Adobe Illustrator 16.0.0, SVG Export Plug-In . SVG Version: 6.00 Build 0)  -->
<!DOCTYPE svg PUBLIC "-//W3C//DTD SVG 1.1//EN" "http://www.w3.org/Graphics/SVG/1.1/DTD/svg11.dtd">
<svg version="1.1" xmlns="http://www.w3.org/2000/svg" xmlns:xlink="http://www.w3.org/1999/xlink" x="0px" y="0px" width="100px"
	 height="100px" viewBox="0 0 100 100" enable-background="new 0 0 100 100" xml:space="preserve">
<g id="Layer_2">
	<rect opacity="0" fill="#FFFFFF" width="100" height="100"/>
</g>
<g id="Layer_1">
	<g>
		<g>
			<path fill="#FFFFFF" d="M33.1,51c0.5-3.6,7-1.2,10.9-1.2c7.6,0,15.4-8.3,17.1-20.2c1.4-10.2,2-18.3-6.5-18.3
				c-5,0-8.2,5.6-8.8,14.7c-0.2,2.6-2.2,7.1-8.4,7.1c-6.8,0-8.2-4.3-7.6-8.7C31,16.3,40.2,8.8,57,8.8c16.8,0,25.3,9.3,23.7,20.4
				C79.3,38.8,69.4,48.5,57,50.7V51c12,1.1,22.6,9.2,20.7,22.4c-2.2,15.9-16.5,24.8-35.8,24.8c-15.5,0-23.8-7.6-22.7-15.5
				c0.6-4.3,3.2-8.7,10.7-8.7c6.2,0,7,3.9,6.5,6.5c-1.9,9.1-0.9,15.3,5.3,15.3c8.3,0,11.9-5.3,14.3-21.9c1.5-10.6-2-21.6-9.8-21.6
				C40.6,52.2,32.5,54.7,33.1,51z"/>
		</g>
	</g>
</g>
</svg>
