<?xml version="1.0" encoding="utf-8"?>
<!-- Generator: Adobe Illustrator 16.0.0, SVG Export Plug-In . SVG Version: 6.00 Build 0)  -->
<!DOCTYPE svg PUBLIC "-//W3C//DTD SVG 1.1//EN" "http://www.w3.org/Graphics/SVG/1.1/DTD/svg11.dtd">
<svg version="1.1" xmlns="http://www.w3.org/2000/svg" xmlns:xlink="http://www.w3.org/1999/xlink" x="0px" y="0px" width="100px"
	 height="100px" viewBox="0 0 100 100" enable-background="new 0 0 100 100" xml:space="preserve">
<g id="Layer_2">
	<rect opacity="0" fill="#FFFFFF" width="100" height="100"/>
</g>
<g id="Layer_1">
	<g>
		<g>
			<path fill="#FFFFFF" d="M32.9,44.1C70.3,35,76.4,56.4,74.8,68.4c-2.5,17.4-16.6,29.8-36.5,29.8c-15.5,0-22.6-7.6-21.5-15.5
				C17.4,78.3,20,74,27.5,74c6.2,0,7,3.9,6.5,6.5c-1.9,9.1-0.5,15.3,6,15.3c8.7,0,14-7.9,14.5-23.6c0.2-13-2.7-25.5-25.1-25.5L36,10
				c19.1,1.1,28.4,2.2,39.6-0.1c5.2-1.1,5-4.6,5.8-9.7h1.9l-0.7,6.2C79.1,36,50.4,33.1,36.1,27.6L32.9,44.1z"/>
		</g>
	</g>
</g>
</svg>
