<?xml version="1.0" encoding="utf-8"?>
<!-- Generator: Adobe Illustrator 16.0.0, SVG Export Plug-In . SVG Version: 6.00 Build 0)  -->
<!DOCTYPE svg PUBLIC "-//W3C//DTD SVG 1.1//EN" "http://www.w3.org/Graphics/SVG/1.1/DTD/svg11.dtd">
<svg version="1.1" xmlns="http://www.w3.org/2000/svg" xmlns:xlink="http://www.w3.org/1999/xlink" x="0px" y="0px" width="100px"
	 height="100px" viewBox="0 0 100 100" enable-background="new 0 0 100 100" xml:space="preserve">
<g id="Layer_2">
	<rect opacity="0" fill="#FFFFFF" width="100" height="100"/>
</g>
<g id="Layer_1">
	<g>
		<g>
			<path fill="#FFFFFF" d="M39.6,50.5c7.3-5,14.3-5.6,17.3-5.6c15.6,0,22.4,12.3,20.5,26C75,87.5,58.5,98.2,43.6,98.2
				c-18.8,0-28.2-15-25.7-32.8c3.6-25.2,17.6-39.9,28.1-47.7C59.2,7.8,75.6,6.4,80.5,12c2.6,3.1,2.7,7.2,0.5,9.7
				c-4.1,4.3-9.9,2.7-12.4-3.2c-2.4-6-10.6-7-15.2-2.2C47,22.7,43.3,30.1,39.6,50.5z M39,53.8c-3.5,21.4-3,41.9,5.1,41.9
				c5.8,0,10.1-9.4,12-23.6c1.7-12.4,0.1-21.4-8.8-21.4C45.3,50.7,42.1,51.4,39,53.8z"/>
		</g>
	</g>
</g>
</svg>
