<?xml version="1.0" encoding="utf-8"?>
<!-- Generator: Adobe Illustrator 16.0.0, SVG Export Plug-In . SVG Version: 6.00 Build 0)  -->
<!DOCTYPE svg PUBLIC "-//W3C//DTD SVG 1.1//EN" "http://www.w3.org/Graphics/SVG/1.1/DTD/svg11.dtd">
<svg version="1.1" xmlns="http://www.w3.org/2000/svg" xmlns:xlink="http://www.w3.org/1999/xlink" x="0px" y="0px" width="100px"
	 height="100px" viewBox="0 0 100 100" enable-background="new 0 0 100 100" xml:space="preserve">
<g id="Layer_2">
	<rect opacity="0" fill="#FFFFFF" width="100" height="100"/>
</g>
<g id="Layer_1">
	<g>
		<g>
			<path fill="#FFFFFF" d="M81.2,10.9C45.5,48.2,38.9,90.7,52.4,90.7c3.5,0,6.3-2.2,7.4-5h1.2c-2.4,7.8-8.7,12.4-18.6,12.4
				c-24.8,0-29.6-38.9,19.9-67.9c-15.9-2.6-25.2-4.5-35.9-2.2c-5.3,1.1-5.1,4.6-5.8,9.7h-1.9l0.7-6.2C23,1.9,49.3,8.4,56.1,10
				c10.4,2.5,18.4,7.5,24-0.4L81.2,10.9z"/>
		</g>
	</g>
</g>
</svg>
