<?xml version="1.0" encoding="utf-8"?>
<!-- Generator: Adobe Illustrator 16.0.0, SVG Export Plug-In . SVG Version: 6.00 Build 0)  -->
<!DOCTYPE svg PUBLIC "-//W3C//DTD SVG 1.1//EN" "http://www.w3.org/Graphics/SVG/1.1/DTD/svg11.dtd">
<svg version="1.1" xmlns="http://www.w3.org/2000/svg" xmlns:xlink="http://www.w3.org/1999/xlink" x="0px" y="0px" width="100px"
	 height="100px" viewBox="0 0 100 100" enable-background="new 0 0 100 100" xml:space="preserve">
<g id="Layer_2">
	<rect opacity="0" fill="#FFFFFF" width="100" height="100"/>
</g>
<g id="Layer_1">
	<g>
		<g>
			<path fill="#FFFFFF" d="M78.4,73.7C76.3,88.9,60.7,98.2,45,98.2c-16,0-27.9-7.5-26-22.2c1.4-9.4,9.4-18,23.3-19
				c-12.9-5.6-15-17.6-14-25.2c1.9-13.4,15.6-23,30.4-23c12.4,0,24,7.7,22.1,20.5c-1,7.3-8.7,15.5-21.7,17.8
				C76.6,53.5,79.7,64.3,78.4,73.7z M58.5,79.2c1.1-8.2-2.7-15.6-13.9-20.7c-3,3.7-6.6,11.5-7.5,17.9c-2,14.3,2.2,19.4,8.6,19.4
				C53,95.7,57.1,88.2,58.5,79.2z M64.8,29.4c1.4-9.4,0.9-18.1-6.8-18.1c-7,0-10.1,9.9-10.8,15.8c-1,6.6,0.4,14.7,10.4,18.9
				C60.4,43.5,63.9,35.6,64.8,29.4z"/>
		</g>
	</g>
</g>
</svg>
