<?xml version="1.0" encoding="utf-8"?>
<!-- Generator: Adobe Illustrator 16.0.0, SVG Export Plug-In . SVG Version: 6.00 Build 0)  -->
<!DOCTYPE svg PUBLIC "-//W3C//DTD SVG 1.1//EN" "http://www.w3.org/Graphics/SVG/1.1/DTD/svg11.dtd">
<svg version="1.1" xmlns="http://www.w3.org/2000/svg" xmlns:xlink="http://www.w3.org/1999/xlink" x="0px" y="0px" width="100px"
	 height="100px" viewBox="0 0 100 100" enable-background="new 0 0 100 100" xml:space="preserve">
<g id="Layer_2">
	<rect opacity="0" fill="#FFFFFF" width="100" height="100"/>
</g>
<g id="Layer_1">
	<g>
		<g>
			<path fill="#FFFFFF" d="M60.1,56.4c-7.1,5-14,5.6-17,5.6c-15.6,0-22.8-12.3-21.5-26c1.9-16.6,18-27.3,32.9-27.3
				c18.8,0,28.7,15,26.8,32.8c-2.6,25.2-16.3,39.9-26.5,47.7c-12.9,9.9-29.3,11.3-34.2,5.7c-2.9-3.1-3.1-7.2-0.9-9.7
				c4-4.3,9.8-2.7,12.4,3.2s10.8,7,15.4,2.2C53.8,84.3,57.2,76.8,60.1,56.4z M60.6,53.1c2.7-21.4,1.5-41.9-6.6-41.9
				c-5.8,0-9.6,9.4-11.1,23.6c-1.4,12.4,0.6,21.4,9.6,21.4C54.6,56.2,57.7,55.6,60.6,53.1z"/>
		</g>
	</g>
</g>
</svg>
