<?xml version="1.0" encoding="utf-8"?>
<!-- Generator: Adobe Illustrator 16.0.0, SVG Export Plug-In . SVG Version: 6.00 Build 0)  -->
<!DOCTYPE svg PUBLIC "-//W3C//DTD SVG 1.1//EN" "http://www.w3.org/Graphics/SVG/1.1/DTD/svg11.dtd">
<svg version="1.1" id="Layer_1" xmlns="http://www.w3.org/2000/svg" xmlns:xlink="http://www.w3.org/1999/xlink" x="0px" y="0px"
	 width="35px" height="35px" viewBox="0 0 35 35" enable-background="new 0 0 35 35" xml:space="preserve">
<g>
	<g>
		<path fill="#08BF8B" d="M5.1,23.3c1.7,0,3.1,1.4,3.1,3.1c0,1.7-1.4,3.1-3.1,3.1c-1.7,0-3.1-1.4-3.1-3.1C2,24.7,3.4,23.3,5.1,23.3
			 M5.1,21.3c-2.8,0-5.1,2.3-5.1,5.1c0,2.8,2.3,5.1,5.1,5.1c2.8,0,5.1-2.3,5.1-5.1C10.2,23.6,7.9,21.3,5.1,21.3L5.1,21.3z"/>
		<path fill="#08BF8B" d="M17.4,20.2c1.7,0,3.1,1.4,3.1,3.1c0,1.7-1.4,3.1-3.1,3.1c-1.7,0-3.1-1.4-3.1-3.1
			C14.4,21.6,15.7,20.2,17.4,20.2 M17.4,18.2c-2.8,0-5.1,2.3-5.1,5.1c0,2.8,2.3,5.1,5.1,5.1c2.8,0,5.1-2.3,5.1-5.1
			C22.5,20.5,20.2,18.2,17.4,18.2L17.4,18.2z"/>
		<rect x="8.2" y="9.4" fill="#08BF8B" width="2" height="17"/>
		<rect x="20.5" y="4.3" fill="#08BF8B" width="2" height="6.1"/>
		<polygon fill="#08BF8B" points="8.2,9.4 22.5,3.5 22.5,6.1 9.7,11.3 		"/>
		<rect x="20.5" y="16.4" fill="#08BF8B" width="2" height="7"/>
	</g>
	<g>
		<g>
			<rect x="20.5" y="12.4" fill="#08BF8B" width="14.5" height="2"/>
		</g>
		<g>
			<g>
				<rect x="26.8" y="6.2" fill="#08BF8B" width="2" height="14.5"/>
			</g>
		</g>
	</g>
</g>
</svg>
