<?xml version="1.0" encoding="utf-8"?>
<!-- Generator: Adobe Illustrator 16.0.0, SVG Export Plug-In . SVG Version: 6.00 Build 0)  -->
<!DOCTYPE svg PUBLIC "-//W3C//DTD SVG 1.1//EN" "http://www.w3.org/Graphics/SVG/1.1/DTD/svg11.dtd">
<svg version="1.1" id="Layer_1" xmlns="http://www.w3.org/2000/svg" xmlns:xlink="http://www.w3.org/1999/xlink" x="0px" y="0px"
	 width="35px" height="35px" viewBox="0 0 35 35" enable-background="new 0 0 35 35" xml:space="preserve">
<g>
	<g>
		<path fill="#F9B53D" d="M22.2,5.3l8.3,14.4h-6.9L15.2,5.3H22.2 M23.3,3.3H11.7l10.6,18.4h11.6L23.3,3.3L23.3,3.3z"/>
	</g>
	<g>
		<path fill="#4159AA" d="M13.9,23.7l16.6,0l-3.5,6l-16.6,0L13.9,23.7 M12.7,21.7l-5.8,10l21.2,0l5.8-10L12.7,21.7L12.7,21.7z"/>
	</g>
	<g>
		<path fill="#08BF8B" d="M11.7,7.3l3.5,6L6.9,27.7l-3.5-6L11.7,7.3 M11.7,3.3L1.1,21.7l5.8,10l10.6-18.3L11.7,3.3L11.7,3.3z"/>
	</g>
</g>
</svg>
