<?xml version="1.0" encoding="utf-8"?>
<!-- Generator: Adobe Illustrator 16.0.0, SVG Export Plug-In . SVG Version: 6.00 Build 0)  -->
<!DOCTYPE svg PUBLIC "-//W3C//DTD SVG 1.1//EN" "http://www.w3.org/Graphics/SVG/1.1/DTD/svg11.dtd">
<svg version="1.1" id="Layer_1" xmlns="http://www.w3.org/2000/svg" xmlns:xlink="http://www.w3.org/1999/xlink" x="0px" y="0px"
	 width="35px" height="35px" viewBox="0 0 35 35" enable-background="new 0 0 35 35" xml:space="preserve">
<g id="WpgUpO.tif_1_">
	<g>
		<g>
			<path fill="#4159AA" d="M20,31.1h-6.5V19.3h-3.1l-0.1-1V13h3.1l0-2.6c0-0.6,0.1-1.2,0.2-1.7c0.5-1.8,1.5-3.1,3.2-3.9
				c0.9-0.4,1.9-0.7,3.1-0.8l1.2,0l0.3,0c0.3,0,0.5,0,0.8,0c0.3,0,0.6,0,0.9,0.1l0.2,0c0.1,0,0.2,0,0.3,0l1,0.1l-0.1,5.9l-3.7,0l0,0
				c-0.2,0-0.4,0-0.5,0.1c-0.1,0-0.1,0.1-0.2,0.2c0,0.2-0.1,0.3-0.1,0.6V13h4.5l0.1,1.2l0,0.1l-0.2,4.1l-0.1,0.9l-0.9,0H20V31.1z
				 M15.5,29.1H18V17.3h4.4l0.1-2.3h-4.5L18,14v-3.1c0-0.3,0-0.7,0.1-1.1c0.2-0.8,0.8-1.4,1.6-1.6c0.3-0.1,0.6-0.1,1-0.1l1.8,0
				L22.6,6c-0.2,0-0.4,0-0.5,0c-0.2,0-0.5,0-0.7,0l-0.4,0l-0.9,0c-0.9,0.1-1.6,0.2-2.3,0.6c-1.1,0.6-1.8,1.4-2.1,2.7
				c-0.1,0.4-0.2,0.8-0.2,1.2l0,4.5l-1,0.1h-2.1v2.3h3.1l0.1,1V29.1z"/>
		</g>
	</g>
</g>
</svg>
