<?xml version="1.0" encoding="utf-8"?>
<!-- Generator: Adobe Illustrator 16.0.0, SVG Export Plug-In . SVG Version: 6.00 Build 0)  -->
<!DOCTYPE svg PUBLIC "-//W3C//DTD SVG 1.1//EN" "http://www.w3.org/Graphics/SVG/1.1/DTD/svg11.dtd">
<svg version="1.1" id="Layer_1" xmlns="http://www.w3.org/2000/svg" xmlns:xlink="http://www.w3.org/1999/xlink" x="0px" y="0px"
	 width="35px" height="35px" viewBox="0 0 35 35" enable-background="new 0 0 35 35" xml:space="preserve">
<g>
	<g>
		<g>
			<rect x="26.1" y="7.3" fill="#08BF8B" width="1.7" height="15.6"/>
		</g>
		<g>
			<rect x="19.2" y="14.2" fill="#08BF8B" width="15.6" height="1.7"/>
		</g>
	</g>
	<g>
		<path fill="#08BF8B" d="M10.9,8.8c1.7,0,3.1,1.4,3.1,3.1S12.6,15,10.9,15c-1.7,0-3.1-1.4-3.1-3.1S9.2,8.8,10.9,8.8 M10.9,6.8
			c-2.8,0-5.1,2.3-5.1,5.1S8.1,17,10.9,17c2.8,0,5.1-2.3,5.1-5.1S13.7,6.8,10.9,6.8L10.9,6.8z"/>
		<path fill="#08BF8B" d="M10.9,17.1c4.3,0,7.8,4,8.6,9.2H2.4C3.1,21,6.7,17.1,10.9,17.1 M10.9,15.1C5,15.1,0.2,20.9,0.2,28.2h21.4
			C21.6,20.9,16.9,15.1,10.9,15.1L10.9,15.1z"/>
	</g>
</g>
</svg>
