<?xml version="1.0" encoding="utf-8"?>
<!-- Generator: Adobe Illustrator 16.0.0, SVG Export Plug-In . SVG Version: 6.00 Build 0)  -->
<!DOCTYPE svg PUBLIC "-//W3C//DTD SVG 1.1//EN" "http://www.w3.org/Graphics/SVG/1.1/DTD/svg11.dtd">
<svg version="1.1" id="Layer_1" xmlns="http://www.w3.org/2000/svg" xmlns:xlink="http://www.w3.org/1999/xlink" x="0px" y="0px"
	 width="35px" height="35px" viewBox="0 0 35 35" enable-background="new 0 0 35 35" xml:space="preserve">
<g>
	<g>
		<path fill="#4159AA" d="M10.3,28.7c-3.4,0-6-1.7-6.4-4.1c-0.2-1.4,0.4-2.8,1.7-4c1.2-1,2.9-1.8,4.7-2c0.5-0.1,1-0.1,1.5-0.1
			c3.4,0,6,1.7,6.4,4.1c0.2,1.4-0.4,2.8-1.7,4c-1.2,1-2.9,1.8-4.7,2C11.3,28.6,10.8,28.7,10.3,28.7z M11.8,20.5
			c-0.4,0-0.8,0-1.2,0.1c-1.5,0.2-2.8,0.8-3.7,1.6c-0.5,0.4-1.2,1.2-1.1,2.2c0.2,1.3,2.1,2.4,4.4,2.4c0.4,0,0.8,0,1.2-0.1
			c1.4-0.2,2.8-0.8,3.7-1.6c0.5-0.4,1.2-1.2,1.1-2.2C16.1,21.5,14.2,20.5,11.8,20.5z"/>
	</g>
	<g>
		<path fill="#4159AA" d="M11.6,16.4c-2.7,0-5-1.9-5.3-4.5c-0.3-2.8,1.9-5.3,4.8-5.6c3-0.3,5.6,1.7,5.8,4.5c0.1,1.4-0.3,2.7-1.2,3.7
			c-0.9,1-2.2,1.7-3.6,1.8C12,16.4,11.8,16.4,11.6,16.4z M11.8,8.3c-0.1,0-0.3,0-0.4,0c-1.8,0.2-3.2,1.7-3,3.4
			c0.2,1.7,1.8,2.9,3.7,2.7c0.9-0.1,1.7-0.5,2.3-1.2c0.6-0.6,0.8-1.4,0.7-2.2C14.9,9.5,13.5,8.3,11.8,8.3z"/>
	</g>
	<g>
		<path fill="#4159AA" d="M15.9,21.9c-4.3-3.1-3.5-6.8-3.4-6.9l1.9,0.5l-1-0.2l1,0.2c0,0.1-0.5,2.6,2.7,4.8L15.9,21.9z"/>
	</g>
	<g>
		<rect x="11.7" y="6.3" fill="#4159AA" width="6.2" height="2"/>
	</g>
	<g>
		<g>
			<rect x="24.2" y="6.3" fill="#4159AA" width="2" height="11.8"/>
		</g>
		<g>
			<rect x="19.3" y="11.3" fill="#4159AA" width="11.8" height="2"/>
		</g>
	</g>
</g>
</svg>
