<?xml version="1.0" encoding="utf-8"?>
<!-- Generator: Adobe Illustrator 16.0.0, SVG Export Plug-In . SVG Version: 6.00 Build 0)  -->
<!DOCTYPE svg PUBLIC "-//W3C//DTD SVG 1.1//EN" "http://www.w3.org/Graphics/SVG/1.1/DTD/svg11.dtd">
<svg version="1.1" id="Layer_1" xmlns="http://www.w3.org/2000/svg" xmlns:xlink="http://www.w3.org/1999/xlink" x="0px" y="0px"
	 width="100px" height="100px" viewBox="0 0 100 100" enable-background="new 0 0 100 100" xml:space="preserve">
<g>
	<path fill="#FFFFFF" d="M43.8,21.3v57.5L27.2,62.1l-2-2h-2.8H6.7V39.9h15.7h2.8l2-2L43.8,21.3 M50.5,5.1l-28.1,28H0
		c0,0,0,33.7,0,33.7h22.4l28.1,28.1V5.1L50.5,5.1z M0,33.2L0,33.2L0,33.2L0,33.2z"/>
	<path fill="#FFFFFF" d="M80.2,50c0-9.3-7.5-16.8-16.8-16.8v6.7c5.6,0,10.1,4.6,10.1,10.1c0,5.6-4.5,10.1-10.1,10.1v6.7
		C72.6,66.8,80.2,59.3,80.2,50z"/>
	<path fill="#FFFFFF" d="M100,50c0-20.2-16.4-36.7-36.7-36.7V20c16.5,0,30,13.4,30,30c0,16.5-13.4,30-30,30v6.7
		C83.6,86.7,100,70.2,100,50z"/>
</g>
</svg>
