<?xml version="1.0" encoding="utf-8"?>
<!-- Generator: Adobe Illustrator 16.0.0, SVG Export Plug-In . SVG Version: 6.00 Build 0)  -->
<!DOCTYPE svg PUBLIC "-//W3C//DTD SVG 1.1//EN" "http://www.w3.org/Graphics/SVG/1.1/DTD/svg11.dtd">
<svg version="1.1" id="Layer_1" xmlns="http://www.w3.org/2000/svg" xmlns:xlink="http://www.w3.org/1999/xlink" x="0px" y="0px"
	 width="35px" height="35px" viewBox="0 0 35 35" enable-background="new 0 0 35 35" xml:space="preserve">
<g>
	<path fill="#08BF8B" d="M15.6,8.9v17.2l-5-5l-0.6-0.6H9.3H4.6v-6.1h4.7h0.8l0.6-0.6L15.6,8.9 M17.6,4.1l-8.4,8.4H2.6
		c0,0,0,10.1,0,10.1h6.7l8.4,8.4V4.1L17.6,4.1z M2.6,12.5L2.6,12.5L2.6,12.5L2.6,12.5z"/>
	<path fill="#08BF8B" d="M26.5,17.5c0-2.8-2.2-5-5-5v2c1.7,0,3,1.4,3,3c0,1.7-1.4,3-3,3v2C24.3,22.5,26.5,20.3,26.5,17.5z"/>
	<path fill="#08BF8B" d="M32.4,17.5c0-6-4.9-11-11-11v2c4.9,0,9,4,9,9c0,4.9-4,9-9,9v2C27.5,28.5,32.4,23.5,32.4,17.5z"/>
</g>
</svg>
