<?xml version="1.0" encoding="utf-8"?>
<!-- Generator: Adobe Illustrator 16.0.0, SVG Export Plug-In . SVG Version: 6.00 Build 0)  -->
<!DOCTYPE svg PUBLIC "-//W3C//DTD SVG 1.1//EN" "http://www.w3.org/Graphics/SVG/1.1/DTD/svg11.dtd">
<svg version="1.1" id="Layer_1" xmlns="http://www.w3.org/2000/svg" xmlns:xlink="http://www.w3.org/1999/xlink" x="0px" y="0px"
	 width="35px" height="35px" viewBox="0 0 35 35" enable-background="new 0 0 35 35" xml:space="preserve">
<g id="dUxpFE.tif_1_">
	<g>
		<g>
			<path fill="#4159AA" d="M13,30.3c-0.4,0-0.8,0-1.3,0c-0.8-0.1-1.6-0.2-2.4-0.3c-2-0.4-3.9-1.2-5.7-2.3l-0.1-0.1l-3.2-2.2l3.8,0.3
				c0.9,0.1,1.9,0.1,2.8-0.1c0.9-0.1,1.8-0.4,2.7-0.7c0.1-0.1,0.3-0.1,0.4-0.2c-0.1,0-0.1,0-0.2-0.1c-0.9-0.4-1.6-1-2.2-1.7
				c-0.2-0.3-1.5-1.9-1.4-2.8l0.1-0.8c-0.2-0.2-0.4-0.4-0.6-0.7c-1-1.2-1.5-2.7-1.5-4.3l0-1.7l0.6,0.3c-0.2-0.4-0.3-0.8-0.4-1.3
				c-0.5-2,0.1-3.9,0.8-5L6,5.7l0.9,1.1c0.7,0.8,1.5,1.6,2.3,2.3c0.8,0.7,1.8,1.3,2.7,1.8c1,0.5,2,0.9,3,1.2c0.5,0.1,1.3,0.3,2,0.4
				c0-0.5,0-1,0.1-1.4c0.3-1.9,1.3-3.4,2.9-4.4c0.9-0.6,1.9-1,3-1.1l0.5,0l1,0c0.1,0,0.2,0,0.4,0C26,5.6,27.2,6.1,28.1,7
				c0,0,0.1,0.1,0.1,0.1c0.4-0.1,0.8-0.2,1.2-0.4c0.5-0.2,1.1-0.5,1.6-0.8l2.2-1.2l-0.8,2.4c-0.1,0.3-0.2,0.7-0.4,1l2.4-1l-1.3,2.5
				c0,0.1-0.1,0.1-0.1,0.2c-0.7,1.1-1.6,2-2.6,2.8c0,1.3-0.1,2.6-0.4,3.9c-0.6,2.9-1.9,5.4-3.7,7.7c-1.7,2.1-3.8,3.7-6.2,4.8
				c-1.9,0.8-4,1.3-6.2,1.5C13.7,30.3,13.4,30.3,13,30.3z M8.1,27.5c0.6,0.2,1.1,0.3,1.7,0.5c0.7,0.1,1.4,0.2,2.1,0.3
				c0.7,0.1,1.4,0.1,2.1,0c2-0.1,3.8-0.5,5.5-1.3c2.1-0.9,4-2.4,5.4-4.2c1.6-2,2.7-4.3,3.3-6.8c0.3-1.2,0.4-2.5,0.3-3.8
				c0-0.4,0.2-0.8,0.5-1c0.1-0.1,0.2-0.2,0.3-0.2l-0.2,0l-0.1,0l-2.4-0.5l2.1-1.3c0.1,0,0.1-0.1,0.1-0.1c-0.2,0-0.4,0.1-0.6,0.1
				l-0.5,0.1l-0.5-0.5c-0.1-0.1-0.2-0.2-0.3-0.3c-0.7-0.6-1.5-0.9-2.4-1.1c-0.1,0-0.2,0-0.2,0l-0.3,0l-0.8,0
				c-0.8,0.1-1.5,0.3-2.1,0.8c-1.1,0.8-1.8,1.8-2.1,3.2c-0.1,0.6-0.1,1.2,0,1.9l0.2,1l-0.9,0.3c-0.1,0-0.2,0-0.4,0
				c-0.7,0-2.6-0.3-3.5-0.6c-1.2-0.3-2.3-0.8-3.4-1.3c-1.1-0.6-2.1-1.2-3.1-2c-0.5-0.4-1-0.9-1.5-1.4c-0.1,0.6-0.2,1.4,0,2.1
				c0.3,1.2,0.9,2.2,2,2.9l1.6,1.1l-1.8,0.6c-0.1,0-0.3,0.1-0.5,0.1c-0.3,0-0.8-0.1-1.2-0.2c0.2,0.6,0.5,1.1,0.8,1.5
				c0.7,0.9,1.6,1.4,2.8,1.7l3.9,0.9l-3.9,1.1c-0.4,0.1-0.8,0.2-1.2,0.2c0.1,0.1,0.2,0.2,0.3,0.3c0.4,0.5,1,0.9,1.6,1.2
				c0.6,0.3,1.2,0.4,1.9,0.4l1.6,0l-0.7,1.4c-0.4,0.8-3.1,2-3.1,2C9.7,27.1,8.9,27.4,8.1,27.5z"/>
		</g>
	</g>
</g>
</svg>
