<?xml version="1.0" encoding="utf-8"?>
<!-- Generator: Adobe Illustrator 16.0.0, SVG Export Plug-In . SVG Version: 6.00 Build 0)  -->
<!DOCTYPE svg PUBLIC "-//W3C//DTD SVG 1.1//EN" "http://www.w3.org/Graphics/SVG/1.1/DTD/svg11.dtd">
<svg version="1.1" id="Layer_1" xmlns="http://www.w3.org/2000/svg" xmlns:xlink="http://www.w3.org/1999/xlink" x="0px" y="0px"
	 width="50px" height="50px" viewBox="0 0 50 50" enable-background="new 0 0 50 50" xml:space="preserve">
<g>
	<g>
		<path fill="#425AA8" d="M7.2,33.1c2.4,0,4.3,1.9,4.3,4.3c0,2.4-1.9,4.3-4.3,4.3c-2.4,0-4.3-1.9-4.3-4.3C2.9,35,4.8,33.1,7.2,33.1
			 M7.2,30.3c-3.9,0-7.1,3.2-7.1,7.1c0,3.9,3.2,7.1,7.1,7.1c3.9,0,7.1-3.2,7.1-7.1C14.3,33.5,11.1,30.3,7.2,30.3L7.2,30.3z"/>
		<path fill="#425AA8" d="M24.5,28.8c2.4,0,4.3,1.9,4.3,4.3c0,2.4-1.9,4.3-4.3,4.3c-2.4,0-4.3-1.9-4.3-4.3
			C20.2,30.7,22.1,28.8,24.5,28.8 M24.5,26c-3.9,0-7.1,3.2-7.1,7.1c0,3.9,3.2,7.1,7.1,7.1c3.9,0,7.1-3.2,7.1-7.1
			C31.5,29.2,28.4,26,24.5,26L24.5,26z"/>
		<rect x="11.5" y="13.7" fill="#425AA8" width="2.8" height="23.7"/>
		<rect x="28.8" y="6.6" fill="#425AA8" width="2.8" height="8.5"/>
		<polygon fill="#425AA8" points="11.5,13.7 31.5,5.5 31.5,9.1 13.7,16.3 		"/>
		<rect x="28.8" y="23.5" fill="#425AA8" width="2.8" height="9.7"/>
	</g>
	<g>
		<g>
			<rect x="37.9" y="8.7" fill="#425AA8" width="2.8" height="21.1"/>
		</g>
		<g>
			<rect x="28.8" y="17.9" fill="#425AA8" width="21.1" height="2.8"/>
		</g>
	</g>
</g>
</svg>
