<?xml version="1.0" encoding="utf-8"?>
<!-- Generator: Adobe Illustrator 16.0.0, SVG Export Plug-In . SVG Version: 6.00 Build 0)  -->
<!DOCTYPE svg PUBLIC "-//W3C//DTD SVG 1.1//EN" "http://www.w3.org/Graphics/SVG/1.1/DTD/svg11.dtd">
<svg version="1.1" id="Layer_1" xmlns="http://www.w3.org/2000/svg" xmlns:xlink="http://www.w3.org/1999/xlink" x="0px" y="0px"
	 width="63.5px" height="55.1px" viewBox="0 0 63.5 55.1" enable-background="new 0 0 63.5 55.1" xml:space="preserve">
<g id="DhiMK5.tif">
	<g>
		<g>
			<path fill="#FFFFFF" d="M24.7,37.2l0,2c7.2,0,18.9,0,27.4,0l7.9,0c-0.4,0.7-0.9,1.5-1.4,2.4c-2.3,4-5.2,8.9-6.6,11.3
				c-0.1,0.1-0.1,0.2-0.1,0.2c0,0-0.1,0-0.3,0c-7.2,0-19,0-27.6,0l-7.6,0c0.6-1,1.2-2.1,1.9-3.3c2-3.5,4.5-7.7,5.9-10.3
				c0.1-0.2,0.2-0.3,0.2-0.3c0,0,0.1,0,0.3,0V37.2 M24.7,37.2c-1.1,0-1.7,0.4-2.2,1.3c-2.8,4.9-9.1,15.8-9.6,16.6
				c0.3,0,4.9,0,11.1,0c8.7,0,20.4,0,27.6,0c0,0,0,0,0,0c1.1,0,1.6-0.4,2.1-1.2c2.2-3.8,8.6-14.7,9.8-16.7c-0.3,0-5.1,0-11.4,0
				C43.5,37.2,31.9,37.2,24.7,37.2C24.7,37.2,24.7,37.2,24.7,37.2L24.7,37.2z"/>
		</g>
		<g>
			<path fill="#FFFFFF" d="M42,2C42,2,42,2,42,2L42,2C42.1,2,42.1,2,42,2c3.5,6,9.7,16.5,14.1,24.1c1.5,2.5,2.8,4.7,3.8,6.4l-3.2,0
				l-3.4,0c-2.8,0-6.2,0-9.6,0c0,0,0,0,0,0c0,0,0,0,0-0.1C38.5,23.5,29.1,7.5,25.9,2c0.9,0,2.1,0,3.4,0C33.2,2,38.6,2,42,2L42,2
				 M42.1,0C42,0,42,0,42.1,0c-3.4,0-8.8,0-12.8,0c-3.1,0-5.4,0-5.4,0h-1.4l0.7,1.2c0,0,12.6,21.5,18.9,32.2
				c0.4,0.7,0.9,1.1,1.8,1.1c0,0,0,0,0,0c3.2,0,6.4,0,9.6,0c2.2,0,4.5,0,6.7,0c0.7,0,1.4,0,2.1,0c0.3,0,0.6-0.1,1.1-0.1
				C62.6,33,49.6,10.9,43.8,1C43.4,0.3,42.9,0,42.1,0L42.1,0z"/>
		</g>
		<g>
			<path fill="#FFFFFF" d="M19.9,5.6c2.3,4,6.4,10.9,8,13.7c-5.1,8.8-14,24.1-17.8,30.3c-0.2-0.4-0.5-0.8-0.7-1.2
				c-2.5-4.3-6-10.2-7.4-12.4c0,0,0-0.1-0.1-0.1c0,0,0,0,0-0.1C6.3,28.8,16.8,10.9,19.9,5.6 M19.9,1.7l-0.8,1.4
				c0,0-13.7,23.4-18.7,31.8c-0.5,0.8-0.4,1.4,0,2.2c1.9,3.2,8.3,14.1,9.8,16.5c0.4-0.6,13.4-22.8,19.6-33.5c0.2-0.4,0.2-1.2,0-1.6
				C27.5,14.6,19.9,1.7,19.9,1.7L19.9,1.7z"/>
		</g>
	</g>
</g>
</svg>
