<?xml version="1.0" encoding="utf-8"?>
<!-- Generator: Adobe Illustrator 16.0.0, SVG Export Plug-In . SVG Version: 6.00 Build 0)  -->
<!DOCTYPE svg PUBLIC "-//W3C//DTD SVG 1.1//EN" "http://www.w3.org/Graphics/SVG/1.1/DTD/svg11.dtd">
<svg version="1.1" id="Layer_1" xmlns="http://www.w3.org/2000/svg" xmlns:xlink="http://www.w3.org/1999/xlink" x="0px" y="0px"
	 width="196.1px" height="59.7px" viewBox="0 0 196.1 59.7" enable-background="new 0 0 196.1 59.7" xml:space="preserve">
<g>
	<g id="DhiMK5.tif">
		<g>
			<path fill="#4159AA" d="M24.4,39.5l0,2c7.6,0,14.9,0,21.2,0l8.1,0l6.1,0c-0.5,0.8-0.9,1.6-1.3,2.3c-0.7,1.2-1.5,2.5-2.2,3.7
				c-1.5,2.5-3,5.1-4.5,7.6c-0.1,0.1-0.1,0.2-0.1,0.2c0,0-0.1,0-0.3,0c-7.5,0-14.9,0-21.1,0l-8,0l-6.2,0c0.6-1.1,1.3-2.2,1.9-3.3
				c2-3.4,4-6.9,6-10.3c0.1-0.2,0.2-0.3,0.2-0.3c0,0,0.1,0,0.3,0V39.5 M24.4,39.5c-1.1,0-1.7,0.4-2.2,1.3c-2.8,4.9-5.6,9.7-8.5,14.6
				c-0.3,0.6-0.6,1.2-1.1,2c0.7,0,1.1,0,1.5,0c5.4,0,10.7,0,16.1,0c7,0,14.1,0,21.1,0c0,0,0,0,0,0c1,0,1.6-0.4,2.1-1.2
				c2.2-3.8,4.4-7.6,6.7-11.3c1-1.7,2-3.4,3.1-5.3c-0.7,0-1.1,0-1.5,0c-5.4,0-10.8,0-16.1,0C38.5,39.5,31.4,39.5,24.4,39.5
				C24.4,39.5,24.4,39.5,24.4,39.5L24.4,39.5z"/>
			<path fill="#4159AA" d="M41.7,4.3C41.7,4.3,41.7,4.3,41.7,4.3L41.7,4.3C41.7,4.3,41.7,4.3,41.7,4.3C45.3,10.4,51.5,21,56,28.6
				c1.4,2.4,2.7,4.5,3.6,6.1l-3.2,0l-3.4,0c-2.8,0-6.2,0-9.6,0c0,0,0,0,0,0c0,0,0,0,0-0.1c-4-6.8-7.9-13.5-11.9-20.3L25.5,4.3h0
				l3.2,0l3.2,0C35.2,4.3,38.5,4.3,41.7,4.3L41.7,4.3 M41.7,2.3C41.7,2.3,41.7,2.3,41.7,2.3c-3.3,0-6.5,0-9.7,0c-2.1,0-4.3,0-6.4,0
				c-0.7,0-1.4,0-2.1,0c-0.3,0-0.7,0-1.2,0.1c0.2,0.5,0.3,0.8,0.5,1.1C29,14.2,35.4,24.9,41.7,35.7c0.4,0.7,0.9,1.1,1.8,1.1
				c0,0,0,0,0,0c3.2,0,6.4,0,9.6,0c2.2,0,4.5,0,6.7,0c0.7,0,1.4,0,2.1,0c0.3,0,0.6-0.1,1.1-0.1c-0.8-1.3-13.8-23.4-19.6-33.3
				C43,2.6,42.5,2.3,41.7,2.3L41.7,2.3z"/>
			<path fill="#4159AA" d="M19.5,7.9c2.4,4.1,6.4,10.8,8,13.7c-5.7,9.8-11.5,19.8-17.2,29.5l-0.6,1c-0.8-1.4-1.6-2.8-2.5-4.1
				c-0.6-1-1.2-2-1.7-3c-1.3-2.2-2.6-4.4-3.9-6.6c0,0,0-0.1-0.1-0.1c0,0,0,0,0-0.1C6.2,30.7,16.4,13.3,19.5,7.9 M19.6,4
				c-0.4,0.6-0.7,0.9-0.9,1.3C17.4,7.6,5,28.7,0,37.1c-0.5,0.8-0.4,1.4,0,2.2c1.9,3.2,3.8,6.4,5.6,9.5c1.3,2.3,2.7,4.6,4.1,7
				c0.4-0.6,0.7-0.9,0.9-1.3C17,43.8,23.2,33.1,29.5,22.4c0.2-0.4,0.2-1.2,0-1.6C27.2,16.9,20.7,5.9,19.6,4L19.6,4z"/>
		</g>
	</g>
	<g>
		<path fill="#4159AA" d="M161.7,15.5L161.7,15.5c8.7,0,15.9,6.4,17,15.3c0.2,1.3,1.1,1.9,2,1.9l1,0l0.1-0.1c0.4,0,0.9,0,1.3-0.1
			c0.7,0,1.5-0.1,2.1-0.1c0.9,0,1.6,0.1,2.2,0.2c4,0.8,7,5.1,6.5,9.2c-0.5,4.5-4.1,7.9-8.4,8c-5.6,0-11.1,0.1-15.8,0.1l-5.5,0
			l-5.6,0l-1.6,0l0-7.4c0-8.6,0-17.5,0-26.2c0,0,0-0.1,0-0.1c0,0,0,0,0.1,0C158.6,15.7,160.2,15.5,161.7,15.5 M161.7,13.5
			c-1.7,0-3.3,0.2-5,0.7c-1.2,0.3-1.6,0.9-1.6,2.1c0,11.3,0,22.6,0,33.9c0,0.5,0,1,0,1.6c0.5,0.1,0.7,0.1,1,0.1c0.9,0,1.7,0,2.6,0
			c3.7,0,7.4,0,11.1,0c5.3,0,10.6,0,15.8-0.1c5.3,0,9.7-4.3,10.4-9.7c0.6-5-3-10.3-8.1-11.4c-0.9-0.2-1.7-0.2-2.6-0.2
			c-1.5,0-3,0.1-4.6,0.1c0,0.1,0,0.1,0,0.1c0,0,0-0.1-0.1-0.2C179.4,20.4,171.1,13.5,161.7,13.5L161.7,13.5z"/>
		<g>
			<rect x="106.9" y="35.3" fill="#4159AA" width="2" height="11.3"/>
		</g>
		<g>
			<rect x="111.2" y="31.9" fill="#4159AA" width="2" height="19.2"/>
		</g>
		<g>
			<rect x="116.4" y="31.3" fill="#4159AA" width="2" height="20.4"/>
		</g>
		<g>
			<rect x="122.1" y="29.9" fill="#4159AA" width="2" height="21.7"/>
		</g>
		<g>
			<rect x="127.3" y="23.6" fill="#4159AA" width="2" height="28"/>
		</g>
		<g>
			<rect x="133.1" y="21" fill="#4159AA" width="2" height="30.6"/>
		</g>
		<g>
			<rect x="138.9" y="21" fill="#4159AA" width="2" height="30.6"/>
		</g>
		<g>
			<rect x="144.6" y="23.6" fill="#4159AA" width="2" height="28.2"/>
		</g>
		<g>
			<rect x="150.2" y="16.6" fill="#4159AA" width="2" height="35.1"/>
		</g>
	</g>
	<g>
		<rect x="83.9" y="25.4" fill="#4159AA" width="2" height="18"/>
		<rect x="75.9" y="33.4" fill="#4159AA" width="18" height="2"/>
	</g>
</g>
</svg>
