<?xml version="1.0" encoding="utf-8"?>
<!-- Generator: Adobe Illustrator 16.0.0, SVG Export Plug-In . SVG Version: 6.00 Build 0)  -->
<!DOCTYPE svg PUBLIC "-//W3C//DTD SVG 1.1//EN" "http://www.w3.org/Graphics/SVG/1.1/DTD/svg11.dtd">
<svg version="1.1" id="Layer_1" xmlns="http://www.w3.org/2000/svg" xmlns:xlink="http://www.w3.org/1999/xlink" x="0px" y="0px"
	 width="50px" height="50px" viewBox="0 0 50 50" enable-background="new 0 0 50 50" xml:space="preserve">
<g>
	<g>
		<g>
			<rect x="37" y="11" fill="#425AA8" width="2.8" height="21.1"/>
		</g>
		<g>
			<rect x="27.8" y="20.2" fill="#425AA8" width="21.1" height="2.8"/>
		</g>
	</g>
	<g>
		<g>
			<path fill="#425AA8" d="M16,12.8c2.4,0,4.3,1.9,4.3,4.3c0,2.4-1.9,4.3-4.3,4.3s-4.3-1.9-4.3-4.3C11.7,14.8,13.6,12.8,16,12.8
				 M16,10c-3.9,0-7.1,3.2-7.1,7.1c0,3.9,3.2,7.1,7.1,7.1c3.9,0,7.1-3.2,7.1-7.1C23.1,13.2,19.9,10,16,10L16,10z"/>
			<path fill="#425AA8" d="M16,24.4c6,0,10.9,5.5,12,12.8H4C5.1,29.9,10,24.4,16,24.4 M16,21.6C7.8,21.6,1.1,29.8,1.1,40h29.9
				C30.9,29.8,24.3,21.6,16,21.6L16,21.6z"/>
		</g>
	</g>
</g>
</svg>
