<?xml version="1.0" encoding="utf-8"?>
<!-- Generator: Adobe Illustrator 16.0.0, SVG Export Plug-In . SVG Version: 6.00 Build 0)  -->
<!DOCTYPE svg PUBLIC "-//W3C//DTD SVG 1.1//EN" "http://www.w3.org/Graphics/SVG/1.1/DTD/svg11.dtd">
<svg version="1.1" id="Layer_1" xmlns="http://www.w3.org/2000/svg" xmlns:xlink="http://www.w3.org/1999/xlink" x="0px" y="0px"
	 width="500px" height="93.1px" viewBox="0 0 500 93.1" enable-background="new 0 0 500 93.1" xml:space="preserve">
<g>
	<path fill="#FFFFFF" d="M53.2,7.6v52.8h-0.1v0.1c0,14.3-11.6,25.8-25.7,25.8c-14.3,0-25.8-11.6-25.8-25.8v-0.1h15.7v0.1
		c0,2.7,1,5.2,2.9,7.1c1.9,1.9,4.5,3,7.2,3c2.7,0,5.2-1.1,7.1-3c1.9-1.9,2.9-4.4,2.9-7.1v-0.1h0.3V21.8H21.1l0.3-14.3H53.2z"/>
	<path fill="#FFFFFF" d="M233.7,26.7c-15.3-9.9-38.3-0.7-38.3,20.4c0,22.1,24.4,31,39.2,19.8l10.1,11.6c-7.1,5.8-16.2,9.4-26,9.4
		c-22.5,0-40.7-18.3-40.7-40.7c0-22.4,18.3-40.7,40.7-40.7c9.4,0,18.2,3.3,25.1,8.6L233.7,26.7z"/>
	<path fill="#FFFFFF" d="M292.3,50.2l-6.1,6.2v29.7h-15.7V7.6h15.7V33l23-25.4h21.2L303,38.3l28.2,47.8h-18.7L292.3,50.2z"/>
	<path fill="#FFFFFF" d="M409.4,23.3h-36.7v14.5H403v15.7h-30.3v17.1h36.4v15.7H357V7.6h52.4V23.3z"/>
	<path fill="#FFFFFF" d="M500,7.6l-25.6,49.8v28.8h-15.7V57.4L433,7.6h17.4l16.2,29.6l16.1-29.6H500z"/>
	<path fill="#FFFFFF" d="M141.5,14.5v32.6h0c-0.1,13.5-11.1,24.4-24.6,24.4c-13.6,0-24.6-11-24.6-24.6c0-13.6,11-24.6,24.6-24.6
		c3.9,0,7.6,0.9,10.9,2.6V7.6c-3.5-1-7.1-1.5-10.9-1.5c-22.4,0-40.7,18.3-40.7,40.7c0,22.5,18.3,40.7,40.7,40.7
		c22.5,0,40.7-18.3,40.7-40.7C157.7,33.7,151.3,21.9,141.5,14.5z"/>
</g>
</svg>
