<?xml version="1.0" encoding="utf-8"?>
<!-- Generator: Adobe Illustrator 16.0.0, SVG Export Plug-In . SVG Version: 6.00 Build 0)  -->
<!DOCTYPE svg PUBLIC "-//W3C//DTD SVG 1.1//EN" "http://www.w3.org/Graphics/SVG/1.1/DTD/svg11.dtd">
<svg version="1.1" id="Layer_1" xmlns="http://www.w3.org/2000/svg" xmlns:xlink="http://www.w3.org/1999/xlink" x="0px" y="0px"
	 width="500px" height="93.1px" viewBox="0 0 500 93.1" enable-background="new 0 0 500 93.1" xml:space="preserve">
<g>
	<path fill="#FFFFFF" d="M58,2v59.7h-0.1v0.1C57.8,78,44.8,91,28.8,91C12.6,91-0.5,78-0.5,61.8v-0.1h17.8v0.1c0,3,1.1,5.8,3.3,8
		c2.2,2.2,5.1,3.4,8.1,3.4s5.8-1.3,8-3.4c2.2-2.2,3.3-5,3.3-8v-0.1h0.4V18.1H21.6L22,2H58z"/>
	<path fill="#FFFFFF" d="M236.8,23.6c-17.3-11.2-43.3-0.8-43.3,23.1c0,25,27.6,35.1,44.3,22.3l11.4,13.1c-8,6.6-18.3,10.7-29.5,10.7
		c-25.4,0-46.1-20.7-46.1-46.1c0-25.4,20.7-46.1,46.1-46.1c10.7,0,20.6,3.7,28.4,9.8L236.8,23.6z"/>
	<path fill="#FFFFFF" d="M290.4,50.3l-6.9,7v33.7h-17.8V2h17.8v28.7l26-28.7h24l-31.1,34.8l31.9,54.1h-21.2L290.4,50.3z"/>
	<path fill="#FFFFFF" d="M410.2,19.8h-41.5v16.4H403V54h-34.3v19.3h41.1V91h-58.9V2h59.3V19.8z"/>
	<path fill="#FFFFFF" d="M500,2l-29,56.4V91h-17.8V58.4L424.2,2h19.7l18.3,33.5L480.3,2H500z"/>
	<g>
		<path fill="#FFFFFF" d="M116.7,30.3c-9,0-16.2,7.3-16.2,16.2c0,9,7.3,16.2,16.2,16.2c9,0,16.2-7.3,16.2-16.2
			C132.9,37.6,125.7,30.3,116.7,30.3z M116.7,53.2c-3.7,0-6.6-3-6.6-6.6c0-3.7,3-6.6,6.6-6.6c3.7,0,6.6,3,6.6,6.6
			C123.4,50.2,120.4,53.2,116.7,53.2z"/>
		<path fill="#FFFFFF" d="M116.7,0C91,0,70.2,20.8,70.2,46.5c0,25.7,20.8,46.6,46.5,46.6c25.7,0,46.5-20.8,46.5-46.6
			C163.3,20.8,142.4,0,116.7,0z M116.7,67.5c-11.6,0-21-9.4-21-21c0-11.6,9.4-21,21-21c11.6,0,21,9.4,21,21
			C137.7,58.1,128.3,67.5,116.7,67.5z"/>
	</g>
</g>
</svg>
