<?xml version="1.0" encoding="utf-8"?>
<!-- Generator: Adobe Illustrator 16.0.0, SVG Export Plug-In . SVG Version: 6.00 Build 0)  -->
<!DOCTYPE svg PUBLIC "-//W3C//DTD SVG 1.1//EN" "http://www.w3.org/Graphics/SVG/1.1/DTD/svg11.dtd">
<svg version="1.1" id="Layer_1" xmlns="http://www.w3.org/2000/svg" xmlns:xlink="http://www.w3.org/1999/xlink" x="0px" y="0px"
	 width="50px" height="50px" viewBox="0 0 50 50" enable-background="new 0 0 50 50" xml:space="preserve">
<g>
	<path fill="#425AA8" d="M22.4,13.1v23.9L15.5,30l-0.8-0.8h-1.2H7v-8.4h6.5h1.2l0.8-0.8L22.4,13.1 M25.2,6.3L13.5,18H4.2
		c0,0,0,14,0,14h9.3l11.7,11.7V6.3L25.2,6.3z M4.2,18L4.2,18L4.2,18L4.2,18z"/>
	<path fill="#425AA8" d="M37.5,25c0-3.9-3.1-7-7-7v2.8c2.3,0,4.2,1.9,4.2,4.2c0,2.3-1.9,4.2-4.2,4.2V32C34.4,32,37.5,28.9,37.5,25z"
		/>
	<path fill="#425AA8" d="M45.8,25c0-8.4-6.8-15.2-15.2-15.2v2.8C37.4,12.5,43,18.1,43,25c0,6.9-5.6,12.5-12.5,12.5v2.8
		C39,40.2,45.8,33.4,45.8,25z"/>
</g>
</svg>
