<?xml version="1.0" standalone="no"?>
<!DOCTYPE svg PUBLIC "-//W3C//DTD SVG 1.1//EN" "http://www.w3.org/Graphics/SVG/1.1/DTD/svg11.dtd" >
<svg xmlns="http://www.w3.org/2000/svg" xmlns:xlink="http://www.w3.org/1999/xlink" version="1.1">
<metadata></metadata>
<defs>
<font id="dinneuzeitgrotesk-lightRg" horiz-adv-x="1064" >
<font-face units-per-em="2048" ascent="1638" descent="-410" />
<missing-glyph horiz-adv-x="532" />
<glyph horiz-adv-x="0" />
<glyph unicode="&#xd;" horiz-adv-x="532" />
<glyph unicode=" "  horiz-adv-x="532" />
<glyph unicode="&#x09;" horiz-adv-x="532" />
<glyph unicode="&#xa0;" horiz-adv-x="532" />
<glyph unicode="!" horiz-adv-x="720" d="M225 119q0 55 40 95t95 40t95.5 -40t40.5 -95t-40 -95t-96 -40q-55 0 -95 39.5t-40 95.5zM262 375v1181h197v-1181h-197z" />
<glyph unicode="&#x22;" d="M301 979v577h152v-577h-152zM612 979v577h152v-577h-152z" />
<glyph unicode="#" d="M4 461v127h229l46 327h-209v127h227l63 461h140l-64 -461h275l63 461h139l-63 -461h211v-127h-230l-45 -327h209v-127h-227l-63 -461h-140l64 461h-275l-63 -461h-139l63 461h-211zM373 588h274l45 327h-274z" />
<glyph unicode="$" d="M29 422h196q12 -113 69.5 -184.5t174.5 -92.5v529l-70 26q-346 129 -346 410q0 172 117 280.5t299 129.5v153h115v-153q182 0 306 -122t124 -331h-185q-18 125 -80.5 199.5t-164.5 91.5v-518l90 -33q186 -66 274 -167t88 -243q0 -176 -126 -294.5t-326 -118.5v-154h-115 v154q-193 0 -316.5 117.5t-123.5 320.5zM250 1116q0 -156 219 -235v477q-117 -16 -168 -86t-51 -156zM584 145q111 0 183.5 71t72.5 165q0 82 -64.5 142.5t-177.5 103.5l-14 6v-488z" />
<glyph unicode="%" horiz-adv-x="1857" d="M174 1059v168q0 133 82 213t217 80q133 0 216 -79t83 -214v-168q0 -135 -82 -213t-217 -78q-133 0 -216 79t-83 212zM336 1085q0 -178 137 -178q70 0 103.5 46t33.5 132v115q0 180 -137 180t-137 -180v-115zM420 -16l856 1536h162l-856 -1536h-162zM1085 274v168 q0 133 82 213t217 80q133 0 216 -78.5t83 -214.5v-168q0 -135 -81.5 -212.5t-217.5 -77.5q-133 0 -216 78.5t-83 211.5zM1247 301q0 -178 137 -178q70 0 104 46t34 132v115q0 180 -138 180q-137 0 -137 -180v-115z" />
<glyph unicode="&#x26;" horiz-adv-x="1517" d="M145 399q0 170 105.5 290t320.5 233q-123 170 -122 284q0 133 86 215t219 82q137 0 216 -87t79 -183q0 -115 -59.5 -201t-172.5 -155l254 -363l225 205l125 -129l-245 -221l264 -369h-240l-166 240q-135 -137 -238.5 -196.5t-232.5 -59.5q-182 0 -300 121.5t-118 293.5z M330 412q0 -98 70.5 -171t170.5 -73q80 0 166 55.5t197 163.5l-270 395q-193 -119 -263.5 -199.5t-70.5 -170.5zM633 1212q0 -43 22.5 -90t67.5 -110q72 49 106.5 102t34.5 105q0 51 -29.5 86.5t-80.5 35.5q-49 0 -85 -32.5t-36 -96.5z" />
<glyph unicode="'" horiz-adv-x="606" d="M227 979v577h152v-577h-152z" />
<glyph unicode="(" horiz-adv-x="720" d="M141 590q0 279 101.5 544t287.5 496l138 -110q-158 -201 -244 -439.5t-86 -490.5q0 -248 86 -488.5t244 -441.5l-138 -111q-184 231 -286.5 495.5t-102.5 545.5z" />
<glyph unicode=")" horiz-adv-x="720" d="M53 -340q158 201 244 439.5t86 490.5q0 248 -86 488.5t-244 441.5l137 110q184 -231 287 -495.5t103 -544.5q0 -279 -101.5 -544t-288.5 -497z" />
<glyph unicode="*" horiz-adv-x="835" d="M76 1249l37 127l245 -92l-8 272h135l-8 -272l246 92l37 -127l-250 -75l170 -213l-113 -70l-149 217l-150 -217l-112 70l170 213z" />
<glyph unicode="+" horiz-adv-x="1228" d="M96 442v152h443v442h151v-442h443v-152h-443v-442h-151v442h-443z" />
<glyph unicode="," horiz-adv-x="532" d="M8 -283l205 537l186 -90l-258 -506z" />
<glyph unicode="-" horiz-adv-x="606" d="M61 473v184h484v-184h-484z" />
<glyph unicode="." horiz-adv-x="532" d="M131 119q0 55 40 95t95 40t95 -40t40 -95t-39.5 -95t-95.5 -40q-55 0 -95 39.5t-40 95.5z" />
<glyph unicode="/" horiz-adv-x="948" d="M41 -25l704 1606h162l-704 -1606h-162z" />
<glyph unicode="0" d="M88 485v576q0 193 121 326t323 133q201 0 323 -134.5t122 -324.5v-576q0 -248 -120 -374.5t-325 -126.5q-203 0 -323.5 127t-120.5 374zM272 426q0 -119 65.5 -200t194.5 -81t195 81t66 200v641q0 119 -65.5 200t-195.5 81q-129 0 -194.5 -81t-65.5 -200v-641z" />
<glyph unicode="1" horiz-adv-x="831" d="M92 1081v197l477 268v-1546h-184v1255z" />
<glyph unicode="2" d="M51 0l576 858q57 86 87.5 150.5t30.5 134.5q0 86 -61 145.5t-154 59.5q-115 0 -187.5 -61.5t-72.5 -192.5h-184q0 188 121 307t309 119q172 0 293 -99.5t121 -275.5q0 -72 -20.5 -137.5t-57.5 -120.5l-473 -715h539v-172h-867z" />
<glyph unicode="3" d="M20 246l158 88q47 -92 119 -140.5t172 -48.5q121 0 217 85t96 229q0 145 -93 236t-240 91q-72 0 -142.5 -26.5t-118.5 -73.5l-26 25l436 620h-506v172h834l-398 -577q193 0 316 -123t123 -330q0 -211 -141.5 -350t-342.5 -139q-166 0 -267 51t-196 211z" />
<glyph unicode="4" d="M25 373v82l759 1083h37v-1003h170v-162h-170v-373h-184v373h-612zM260 535h377v536z" />
<glyph unicode="5" d="M31 248l153 100q100 -203 303 -203q117 0 209 83t92 243q0 137 -90 227t-221 90q-86 0 -163.5 -31.5t-151.5 -99.5l-21 15v831h727v-172h-555v-422q98 41 197 41q174 0 318.5 -126t144.5 -349q0 -203 -136.5 -347t-334.5 -144q-168 0 -278.5 65.5t-192.5 198.5z" />
<glyph unicode="6" d="M68 444q0 104 37.5 197.5t146.5 263.5l395 615h221l-424 -627l5 -4q23 10 58.5 14t67.5 4q186 0 304 -135t118 -313q0 -207 -132 -341t-322 -134q-203 0 -339 126t-136 334zM252 444q0 -139 79.5 -219t200.5 -80q123 0 202 83t79 216t-78 217t-203 84 q-119 0 -199.5 -80.5t-80.5 -220.5z" />
<glyph unicode="7" d="M96 1331v172h873l-625 -1503h-197l558 1331h-609z" />
<glyph unicode="8" d="M68 426q0 137 68.5 240.5t187.5 152.5q-92 45 -143.5 125t-51.5 182q0 156 103.5 275t299.5 119q197 0 300.5 -119t103.5 -275q0 -102 -51 -182t-144 -125q117 -49 186.5 -152.5t69.5 -240.5q0 -180 -127 -311t-338 -131t-337.5 129t-126.5 313zM252 436q0 -131 80 -211 t200 -80q119 0 200 79t81 212q0 129 -81 208t-200 79t-199.5 -79t-80.5 -208zM313 1130q0 -94 62.5 -158.5t156.5 -64.5q92 0 156 63.5t64 159.5t-64 162t-156 66q-94 0 -156.5 -64.5t-62.5 -163.5z" />
<glyph unicode="9" d="M68 1044q0 207 132 341.5t322 134.5q203 0 339 -126t136 -335q0 -104 -37.5 -197.5t-146.5 -263.5l-395 -614h-221l424 626l-5 4q-23 -10 -58.5 -14t-68.5 -4q-186 0 -303.5 135t-117.5 313zM252 1059q0 -133 78 -217t202 -84q119 0 200 81t81 220t-80 219t-201 80 q-123 0 -201.5 -83t-78.5 -216z" />
<glyph unicode=":" horiz-adv-x="532" d="M131 119q0 55 40 95t95 40t95 -40t40 -95t-39.5 -95t-95.5 -40q-55 0 -95 39.5t-40 95.5zM131 956q0 55 40 95.5t95 40.5t95 -40t40 -96q0 -55 -39.5 -95t-95.5 -40q-55 0 -95 40t-40 95z" />
<glyph unicode=";" horiz-adv-x="532" d="M8 -283l205 537l186 -90l-258 -506zM131 956q0 55 40 95.5t95 40.5t95 -40t40 -96q0 -55 -39.5 -95t-95.5 -40q-55 0 -95 40t-40 95z" />
<glyph unicode="&#x3c;" horiz-adv-x="1228" d="M96 449v139l1037 465v-152l-852 -383l852 -383v-151z" />
<glyph unicode="=" horiz-adv-x="1228" d="M96 233v152h1037v-152h-1037zM96 651v152h1037v-152h-1037z" />
<glyph unicode="&#x3e;" horiz-adv-x="1228" d="M96 -16v151l852 383l-852 383v152l1037 -465v-139z" />
<glyph unicode="?" d="M111 1128q0 190 116.5 309t315.5 119q184 0 297.5 -119.5t113.5 -289.5q0 -96 -31.5 -162.5t-125.5 -140.5l-121 -94q-84 -68 -110.5 -131.5t-26.5 -243.5h-185q0 209 39 311t156 195l110 86q55 43 77 83t22 105q0 94 -61.5 161.5t-157.5 67.5q-115 0 -173.5 -72.5 t-58.5 -183.5h-196zM311 119q0 55 40 95t95 40t95.5 -40t40.5 -95t-40 -95t-96 -40q-55 0 -95 39.5t-40 95.5z" />
<glyph unicode="@" horiz-adv-x="1638" d="M16 782q0 334 247 566.5t593 232.5q315 0 540.5 -187.5t225.5 -473.5q0 -266 -179 -441.5t-353 -175.5q-59 0 -98.5 33t-45.5 98q-55 -55 -126.5 -93t-143.5 -38q-139 0 -232.5 99.5t-93.5 240.5q0 227 145.5 408.5t368.5 181.5q84 0 148.5 -39t103.5 -127l39 131h162 l-170 -563q-12 -43 -21.5 -82t-9.5 -59q0 -51 43 -52q123 0 223.5 142.5t100.5 316.5q0 252 -179.5 402.5t-447.5 150.5q-299 0 -493.5 -196.5t-194.5 -485.5q0 -285 202.5 -477.5t501.5 -192.5q156 0 300.5 65.5t238.5 180.5h152q-109 -172 -295.5 -272.5t-399.5 -100.5 q-356 0 -604 233.5t-248 573.5zM522 662q0 -94 52.5 -150.5t142.5 -56.5q133 0 232.5 142t99.5 286q0 80 -53.5 139t-127.5 59q-145 0 -245.5 -137t-100.5 -282z" />
<glyph unicode="A" horiz-adv-x="1515" d="M39 0l633 1556h172l633 -1556h-215l-142 362h-725l-141 -362h-215zM463 535h590l-295 763z" />
<glyph unicode="B" horiz-adv-x="1290" d="M156 0v1556h405q117 0 200 -20t156.5 -73.5t117.5 -136.5t44 -200q0 -106 -52 -184t-142 -123q139 -25 221 -129t82 -250q0 -190 -135 -315t-334 -125h-563zM352 172h299q184 0 262 73.5t78 192.5q0 111 -78.5 190t-261.5 79h-299v-535zM352 879h246q125 0 205 65.5 t80 177.5q0 59 -20.5 107.5t-78 101.5t-225.5 53h-207v-505z" />
<glyph unicode="C" horiz-adv-x="1517" d="M102 778q0 313 225.5 558t600.5 245q152 0 294 -54t240 -145l-133 -145q-176 160 -401 160q-250 0 -433.5 -177.5t-183.5 -441.5t185.5 -441t431.5 -177q127 0 227 42t188 124l125 -142q-104 -96 -248.5 -152.5t-291.5 -56.5q-375 0 -600.5 245t-225.5 558z" />
<glyph unicode="D" horiz-adv-x="1517" d="M156 0v1556h512q295 0 521 -222t226 -550q0 -332 -230.5 -558t-566.5 -226h-462zM352 184h264q258 0 424 174t166 437q0 250 -174 413.5t-432 163.5h-248v-1188z" />
<glyph unicode="E" horiz-adv-x="1062" d="M156 0v1556h805v-184h-609v-493h609v-185h-609v-510h609v-184h-805z" />
<glyph unicode="F" horiz-adv-x="1062" d="M156 0v1556h805v-184h-609v-493h609v-185h-609v-694h-196z" />
<glyph unicode="G" horiz-adv-x="1855" d="M115 778q0 313 225 558t600 245q147 0 281.5 -48t267.5 -163l-125 -147q-90 86 -202.5 130t-221.5 44q-250 0 -433 -177.5t-183 -441.5t185 -441t431 -177q215 0 387 138t219 376h-569v184h784q0 -406 -238.5 -644.5t-582.5 -238.5q-375 0 -600 245t-225 558z" />
<glyph unicode="H" horiz-adv-x="1517" d="M156 0v1556h196v-667h813v667h197v-1556h-197v705h-813v-705h-196z" />
<glyph unicode="I" horiz-adv-x="491" d="M147 0v1556h197v-1556h-197z" />
<glyph unicode="J" horiz-adv-x="948" d="M84 -20v180h68q236 0 340 86t104 303v823h-490v184h687v-1050q0 -256 -160 -393.5t-434 -137.5z" />
<glyph unicode="K" horiz-adv-x="1290" d="M156 0v1556h196v-712l635 712h252l-698 -759l714 -797h-282l-621 711v-711h-196z" />
<glyph unicode="L" horiz-adv-x="948" d="M156 0v1556h196v-1372h547v-184h-743z" />
<glyph unicode="M" horiz-adv-x="1970" d="M156 0v1556h196l633 -1175l633 1175h197v-1556h-197v1153l-633 -1169l-629 1169l-4 -1153h-196z" />
<glyph unicode="N" horiz-adv-x="1515" d="M147 0v1556h185l835 -1204l4 1204h197v-1556h-184l-836 1204l-4 -1204h-197z" />
<glyph unicode="O" horiz-adv-x="1855" d="M102 778q0 313 225.5 558t600.5 245t600 -244.5t225 -558.5q0 -313 -225 -558t-600 -245t-600.5 245t-225.5 558zM311 778q0 -268 184.5 -443t432.5 -175t432 174t184 444q0 268 -184 443.5t-432 175.5t-432.5 -174t-184.5 -445z" />
<glyph unicode="P" horiz-adv-x="1175" d="M156 0v1556h430q236 0 381 -153.5t145 -360.5t-144.5 -359.5t-381.5 -152.5h-234v-530h-196zM352 702h193q370 0 370 338q0 170 -95 257t-275 87h-193v-682z" />
<glyph unicode="Q" horiz-adv-x="1855" d="M102 778q0 313 225.5 558t600.5 245t600 -244.5t225 -558.5q0 -141 -51 -279.5t-150 -250.5l160 -160l-127 -127l-166 166q-100 -72 -223 -112t-268 -40q-375 0 -600.5 245t-225.5 558zM311 778q0 -268 184.5 -443t432.5 -175q193 0 348 108l-158 158l127 127l164 -162 q63 78 99 178.5t36 208.5q0 268 -184 443.5t-432 175.5t-432.5 -174t-184.5 -445z" />
<glyph unicode="R" horiz-adv-x="1290" d="M156 0v1556h448q229 0 375.5 -125.5t146.5 -345.5q0 -203 -139 -333.5t-334 -130.5l607 -621h-277l-631 664v-664h-196zM352 784l172 -2q213 0 309.5 81t96.5 220q0 137 -88 219t-242 82h-248v-600z" />
<glyph unicode="S" horiz-adv-x="1175" d="M84 436h197q12 -137 87.5 -213t233.5 -76q127 0 210 71t83 175q0 86 -63.5 147.5t-178.5 106.5l-198 78q-176 70 -261 172t-85 254q0 195 139 312.5t340 117.5q209 0 345 -121t136 -348h-184q-20 139 -97 218t-202 79q-150 0 -215.5 -76t-65.5 -176q0 -164 227 -248 l197 -73q184 -68 273.5 -174.5t89.5 -251.5q0 -190 -138.5 -312.5t-361.5 -122.5q-225 0 -366.5 118t-141.5 343z" />
<glyph unicode="T" horiz-adv-x="1060" d="M43 1372v184h975v-184h-389v-1372h-197v1372h-389z" />
<glyph unicode="U" horiz-adv-x="1515" d="M147 565v991h197v-933q0 -199 108.5 -331t305.5 -132t305 131t108 332v933h197v-991q0 -252 -173 -421t-441 -169q-262 0 -434.5 168t-172.5 422z" />
<glyph unicode="V" horiz-adv-x="1400" d="M43 1556h209l446 -1243l451 1243h209l-576 -1556h-164z" />
<glyph unicode="W" horiz-adv-x="2084" d="M35 1556h209l348 -1181l358 1181h185l354 -1185l352 1185h209l-479 -1556h-152l-375 1233l-378 -1233h-152z" />
<glyph unicode="X" horiz-adv-x="1400" d="M41 0l539 793l-517 763h240l397 -602l398 602h239l-516 -763l539 -793h-244l-416 629l-415 -629h-244z" />
<glyph unicode="Y" horiz-adv-x="1290" d="M20 1556h230l395 -729l395 729h230l-527 -935v-621h-196v621z" />
<glyph unicode="Z" horiz-adv-x="1290" d="M51 0l852 1372h-776v184h1112l-852 -1372h811v-184h-1147z" />
<glyph unicode="[" horiz-adv-x="720" d="M238 -377v1933h403v-151h-219v-1630h219v-152h-403z" />
<glyph unicode="\" horiz-adv-x="948" d="M41 1581h162l704 -1606h-162z" />
<glyph unicode="]" horiz-adv-x="720" d="M80 -225h219v1630h-219v151h403v-1933h-403v152z" />
<glyph unicode="^" horiz-adv-x="1228" d="M109 635l436 868h139l436 -868h-162l-344 706l-344 -706h-161z" />
<glyph unicode="_" horiz-adv-x="1024" d="M0 -154h1024v-102h-1024v102z" />
<glyph unicode="`" horiz-adv-x="491" d="M-51 1487v16h248l165 -270h-145z" />
<glyph unicode="a" horiz-adv-x="1175" d="M66 358q0 154 123.5 260.5t338.5 106.5q92 0 175 -28.5t155 -92.5v111q0 121 -92 168t-227 47q-143 0 -295 -74l-80 154q109 45 207 63.5t178 18.5q209 0 351 -91.5t142 -271.5v-729h-172v115q-70 -74 -150.5 -107t-189.5 -33q-199 0 -331.5 104.5t-132.5 278.5zM262 350 q0 -90 73 -151.5t228 -61.5q156 0 228.5 61.5t72.5 151.5t-72.5 151.5t-228.5 61.5t-228.5 -61.5t-72.5 -151.5z" />
<glyph unicode="b" horiz-adv-x="1400" d="M154 0v1556h184v-657q66 92 177.5 142.5t232.5 50.5q229 0 392 -159t163 -388q0 -246 -168 -408t-396 -162q-135 0 -234 50.5t-163 138.5l-4 -164h-184zM338 532q0 -160 112.5 -272.5t270.5 -112.5q156 0 270.5 109t114.5 287q0 147 -106.5 262t-284.5 115 q-154 0 -265.5 -114t-111.5 -274z" />
<glyph unicode="c" horiz-adv-x="1062" d="M92 530q0 231 159 396.5t388 165.5q113 0 210 -38t165 -96l-125 -145q-109 106 -248 107q-145 0 -248.5 -103.5t-103.5 -292.5q0 -164 104.5 -270.5t265.5 -106.5q63 0 124 30t114 79l109 -135q-143 -145 -369 -146q-240 0 -392.5 163t-152.5 392z" />
<glyph unicode="d" horiz-adv-x="1400" d="M98 545q0 229 163 388t392 159q125 0 232.5 -48.5t173.5 -144.5l4 657h184v-1556h-184v164q-63 -86 -165.5 -137.5t-235.5 -51.5q-229 0 -396.5 161t-167.5 409zM295 543q0 -176 115.5 -286t269.5 -110q158 0 270.5 113t112.5 272q0 160 -111.5 274t-265.5 114 q-176 0 -283.5 -116t-107.5 -261z" />
<glyph unicode="e" horiz-adv-x="1290" d="M92 535q0 233 153.5 395t397.5 162q250 0 404.5 -173.5t154.5 -455.5h-913q23 -137 127 -226.5t256 -89.5q195 0 342 172l141 -112q-207 -231 -481 -232q-270 0 -426 165t-156 395zM289 614h704q-14 135 -111.5 220.5t-240.5 85.5q-156 0 -246 -91.5t-106 -214.5z" />
<glyph unicode="f" horiz-adv-x="606" d="M39 905v162h162v162q0 164 100 252t266 88v-185h-37q-70 0 -107.5 -48t-37.5 -122v-147h174v-162h-174v-905h-184v905h-162z" />
<glyph unicode="g" horiz-adv-x="1400" d="M84 543q0 231 163 390t392 159q125 0 232.5 -48.5t172.5 -144.5l5 168h184v-920q0 -299 -147.5 -448.5t-454.5 -149.5q-147 0 -268 54.5t-230 175.5l148 117q80 -98 171 -141.5t183 -43.5q209 0 311.5 99.5t102.5 281.5v76q-82 -96 -174.5 -138t-241.5 -42 q-252 0 -400.5 173t-148.5 382zM281 543q0 -178 114.5 -285.5t270.5 -107.5q158 0 270.5 110.5t112.5 271.5q0 160 -111.5 274t-265.5 114q-176 0 -283.5 -116t-107.5 -261z" />
<glyph unicode="h" horiz-adv-x="1175" d="M141 0v1556h185v-614q43 70 123.5 110t173.5 40q172 0 291.5 -99.5t119.5 -302.5v-690h-184v621q0 131 -59.5 215t-188.5 84t-202.5 -84t-73.5 -236v-600h-185z" />
<glyph unicode="i" horiz-adv-x="491" d="M117 1405q0 55 37 92t92 37t92 -37t37 -92t-37 -92t-92 -37t-92 37t-37 92zM154 0v1067h184v-1067h-184z" />
<glyph unicode="j" horiz-adv-x="491" d="M20 -279q133 0 134 183v1163h184v-1145q0 -176 -84 -268t-234 -105v172zM117 1405q0 55 37 92t92 37t92 -37t37 -92t-37 -92t-92 -37t-92 37t-37 92z" />
<glyph unicode="k" horiz-adv-x="1062" d="M154 0v1556h184v-954l450 465h242l-493 -494l503 -573h-258l-444 518v-518h-184z" />
<glyph unicode="l" horiz-adv-x="491" d="M129 319v1237h184v-1222q0 -82 35 -122t84 -40h55v-172h-75q-133 0 -208 79t-75 240z" />
<glyph unicode="m" horiz-adv-x="1855" d="M150 0v1067h184v-127q37 76 121 114t178 38q96 0 175 -39t140 -146q47 96 139.5 140.5t208.5 44.5q182 0 296 -107.5t114 -310.5v-674h-184v653q0 133 -64.5 200t-169.5 67q-121 0 -194.5 -72t-73.5 -203v-645h-184v653q0 133 -64.5 200t-169.5 67q-121 0 -194.5 -72 t-73.5 -203v-645h-184z" />
<glyph unicode="n" horiz-adv-x="1175" d="M141 0v1067h185v-125q43 70 123.5 110t173.5 40q172 0 291.5 -99.5t119.5 -302.5v-690h-184v621q0 131 -59.5 215t-188.5 84t-202.5 -84t-73.5 -236v-600h-185z" />
<glyph unicode="o" horiz-adv-x="1400" d="M123 532q0 231 163.5 395.5t413.5 164.5q248 0 413 -165t165 -395q0 -233 -160 -395t-418 -162q-256 0 -416.5 161t-160.5 396zM319 532q0 -154 114 -269.5t267 -115.5q154 0 267.5 116t113.5 269q0 164 -111.5 276t-269.5 112q-154 0 -267.5 -112t-113.5 -276z" />
<glyph unicode="p" horiz-adv-x="1400" d="M154 -451v1518h184v-168q66 92 177.5 142.5t232.5 50.5q229 0 392 -159t163 -388q0 -246 -168 -408t-396 -162q-135 0 -234 50.5t-163 138.5l-4 -615h-184zM338 532q0 -160 112.5 -272.5t270.5 -112.5q156 0 270.5 109t114.5 287q0 147 -106.5 262t-284.5 115 q-154 0 -265.5 -114t-111.5 -274z" />
<glyph unicode="q" horiz-adv-x="1400" d="M98 545q0 229 163 388t392 159q125 0 232.5 -48.5t173.5 -144.5l4 168h184v-1518h-184v615q-63 -86 -165.5 -137.5t-235.5 -51.5q-229 0 -396.5 161t-167.5 409zM295 543q0 -176 115.5 -286t269.5 -110q158 0 270.5 113t112.5 272q0 160 -111.5 274t-265.5 114 q-176 0 -283.5 -116t-107.5 -261z" />
<glyph unicode="r" horiz-adv-x="720" d="M154 0v1067h184v-152q66 115 137.5 146t202.5 31v-195q-45 10 -84 10q-117 0 -186.5 -77.5t-69.5 -223.5v-606h-184z" />
<glyph unicode="s" horiz-adv-x="948" d="M80 311h172q8 -82 70.5 -128t150.5 -46q113 0 162 47t49 107q0 53 -42 88t-146 63l-187 52q-115 31 -166 101.5t-51 172.5q0 139 100.5 231.5t280.5 92.5q188 0 277.5 -97.5t89.5 -234.5h-172q-20 180 -199 180q-84 0 -138.5 -45t-54.5 -109q0 -47 28 -78.5t91 -50.5 l250 -71q123 -35 173 -102.5t50 -176.5q0 -156 -113.5 -244t-273.5 -88q-186 0 -293.5 91.5t-107.5 244.5z" />
<glyph unicode="t" horiz-adv-x="606" d="M39 905v162h147v258h185v-258h170v-162h-170v-655q0 -35 12 -56.5t78 -21.5h84v-170l-113 -2q-137 0 -191.5 52t-54.5 177v676h-147z" />
<glyph unicode="u" horiz-adv-x="1175" d="M141 377v690h185v-621q0 -131 59 -215t188 -84t203 84t74 236v600h184v-1067h-184v125q-43 -70 -124 -110t-173 -40q-172 0 -292 99.5t-120 302.5z" />
<glyph unicode="v" horiz-adv-x="1175" d="M41 1067h209l338 -821l338 821h209l-461 -1067h-172z" />
<glyph unicode="w" horiz-adv-x="1744" d="M39 1067h197l268 -772l270 772h197l266 -772l272 772h197l-393 -1067h-152l-287 834l-290 -834h-152z" />
<glyph unicode="x" horiz-adv-x="1175" d="M37 0l430 545l-414 522h246l289 -385l301 385h233l-413 -522l430 -545h-246l-305 397l-318 -397h-233z" />
<glyph unicode="y" horiz-adv-x="1175" d="M16 1067h209l342 -823l346 823h197l-655 -1518h-193l199 467z" />
<glyph unicode="z" horiz-adv-x="948" d="M43 0l557 905h-500v162h805l-553 -905h527v-162h-836z" />
<glyph unicode="{" horiz-adv-x="720" d="M133 526v127q78 0 123 79t45 188v372q0 121 63.5 192.5t147.5 71.5h137v-126h-69q-51 0 -73 -49.5t-22 -149.5v-348q0 -117 -45 -189.5t-123 -101.5q76 -31 122 -104.5t46 -190.5v-348q0 -102 20.5 -150.5t74.5 -48.5h69v-127h-137q-86 0 -148.5 70.5t-62.5 193.5v373 q0 109 -44 187.5t-124 78.5z" />
<glyph unicode="|" horiz-adv-x="454" d="M152 -25v1606h151v-1606h-151z" />
<glyph unicode="}" horiz-adv-x="720" d="M72 -250h69q51 0 73 49t22 150v348q0 117 45 189.5t122 101.5q-76 31 -121.5 104.5t-45.5 190.5v348q0 102 -20.5 150.5t-74.5 48.5h-69v126h137q86 0 148.5 -70.5t62.5 -193.5v-372q0 -109 44 -188t124 -79v-127q-78 0 -123 -78.5t-45 -187.5v-373q0 -121 -63.5 -192.5 t-147.5 -71.5h-137v127z" />
<glyph unicode="~" horiz-adv-x="1228" d="M141 483q47 86 108.5 131t147.5 45q57 0 109.5 -17t125.5 -52t122 -54.5t80 -19.5q45 0 88 35t92 117l73 -115q-47 -86 -108 -131t-148 -45q-57 0 -109 17.5t-125 52t-122 54t-80 19.5q-45 0 -88 -34.5t-92 -116.5z" />
<glyph unicode="&#xa1;" horiz-adv-x="720" d="M225 987q0 55 40 95t95 40t95.5 -40t40.5 -95t-40 -95t-96 -40q-55 0 -95 40t-40 95zM262 -451v1182h197v-1182h-197z" />
<glyph unicode="&#xa2;" d="M113 530q0 231 158.5 396.5t387.5 165.5l74 -7l49 197h107l-53 -219q59 -16 110 -44t88 -61l-125 -145q-55 55 -116 78l-181 -727q27 -8 68 -8q63 0 123.5 29.5t114.5 78.5l108 -135q-143 -145 -369 -145h-53q-25 6 -35 8l-51 -211h-106l57 235q-162 57 -259 199.5 t-97 314.5zM309 524q0 -111 55.5 -198.5t149.5 -130.5l178 723l-30 2q-145 0 -249 -103.5t-104 -292.5z" />
<glyph unicode="&#xa3;" d="M115 0q0 90 67.5 180t134 103.5t100.5 88t34 115.5q0 66 -24 123.5t-71 110.5h-239v102h162q-70 80 -98.5 148.5t-28.5 150.5q0 174 121.5 286t295.5 112q184 0 284.5 -94.5t131.5 -280.5h-197q-14 94 -66 153.5t-149 59.5q-92 0 -158.5 -53.5t-66.5 -174.5 q0 -106 152 -307h358v-102h-293q70 -100 70 -205q0 -57 -34 -119.5t-91 -113.5q70 0 181.5 -57.5t170.5 -57.5q70 0 156 74v-203q-41 -27 -91 -41t-89 -14q-76 0 -217.5 68.5t-196.5 68.5q-113 0 -137 -121h-172z" />
<glyph unicode="&#xa4;" d="M33 344l108 109q-51 66 -76.5 139.5t-25.5 159.5q0 84 26.5 159.5t75.5 137.5l-108 110l88 90l112 -108q127 104 299 104q86 0 161 -26.5t138 -77.5l113 108l88 -90l-108 -110q102 -129 102 -297q0 -86 -25.5 -160t-76.5 -139l108 -109l-88 -90l-113 108 q-127 -104 -299 -104q-86 0 -160.5 26.5t-138.5 77.5l-112 -108zM190 752q0 -143 99.5 -242.5t242.5 -99.5t242.5 99t99.5 243q0 143 -99.5 242.5t-242.5 99.5t-242.5 -99.5t-99.5 -242.5z" />
<glyph unicode="&#xa5;" d="M43 1503h197l292 -680l293 680h197l-317 -692h274v-115h-326l-35 -75v-138h361v-114h-361v-369h-172v369h-360v114h360v138l-34 75h-326v115h274z" />
<glyph unicode="&#xa6;" horiz-adv-x="454" d="M152 -25v564h151v-564h-151zM152 1018v563h151v-563h-151z" />
<glyph unicode="&#xa7;" d="M106 582q0 223 205 340q-90 41 -140 117.5t-50 174.5q0 164 117.5 265.5t298.5 101.5q178 0 291.5 -101.5t113.5 -295.5h-184q0 109 -61.5 172t-178.5 63q-86 0 -149.5 -53t-63.5 -127q0 -92 43 -141t139 -78l203 -62q137 -41 202.5 -137t65.5 -227q0 -119 -55 -203 t-162 -133q98 -41 150.5 -111.5t52.5 -183.5q0 -158 -118.5 -258t-284.5 -100q-217 0 -320.5 118.5t-103.5 264.5h184q0 -111 70.5 -166t163.5 -55q94 0 153.5 51t59.5 141q0 72 -39 117t-150 82l-153 51q-143 47 -221.5 139t-78.5 234zM303 590q0 -115 68.5 -172.5 t163.5 -57.5q90 0 158.5 58.5t68.5 171.5q0 117 -67 174t-163 57q-92 0 -160.5 -57t-68.5 -174z" />
<glyph unicode="&#xa8;" horiz-adv-x="491" d="M-74 1362q0 55 37 92t92 37t92 -37t37 -92t-36.5 -92t-92.5 -37q-55 0 -92 37t-37 92zM307 1362q0 55 37 92t92 37t92 -37t37 -92t-36.5 -92t-92.5 -37q-55 0 -92 37t-37 92z" />
<glyph unicode="&#xa9;" horiz-adv-x="1638" d="M16 778q0 332 235.5 567.5t567.5 235.5t567.5 -235.5t235.5 -567.5t-235.5 -567.5t-567.5 -235.5t-567.5 235.5t-235.5 567.5zM156 778q0 -274 194.5 -468.5t468.5 -194.5t469 194.5t195 468.5t-195 469t-469 195t-468.5 -194.5t-194.5 -469.5zM373 782q0 217 127 352.5 t342 135.5q156 0 267.5 -87t133.5 -243h-145q-18 88 -88 145.5t-166 57.5q-145 0 -227 -101.5t-82 -257.5q0 -150 87 -259t226 -109q100 0 168.5 60.5t81.5 152.5h145q-31 -158 -138.5 -249t-256.5 -91q-213 0 -344 139t-131 354z" />
<glyph unicode="&#xaa;" horiz-adv-x="763" d="M31 1081q0 96 78.5 160t216.5 64q59 0 109 -15.5t97 -56.5v43q0 72 -59 100.5t-141 28.5q-88 0 -187 -43l-51 108q68 27 134.5 38.5t115.5 11.5q139 0 233.5 -55.5t94.5 -161.5v-445h-119v70q-86 -84 -221 -84q-131 0 -216 63.5t-85 173.5zM170 1071q0 -45 45 -79 t137 -34q94 0 138.5 33t44.5 80t-45.5 83t-139.5 36q-90 0 -135 -36t-45 -83z" />
<glyph unicode="&#xab;" d="M139 565l219 393h172l-229 -393l229 -393h-172zM553 565l219 393h172l-229 -393l229 -393h-172z" />
<glyph unicode="&#xac;" horiz-adv-x="1228" d="M96 651v152h1037v-582h-152v430h-885z" />
<glyph unicode="&#xad;" horiz-adv-x="606" d="M61 473v184h484v-184h-484z" />
<glyph unicode="&#xae;" horiz-adv-x="1638" d="M16 778q0 332 235.5 567.5t567.5 235.5t567.5 -235.5t235.5 -567.5t-235.5 -567.5t-567.5 -235.5t-567.5 235.5t-235.5 567.5zM156 778q0 -274 194.5 -468.5t468.5 -194.5t469 194.5t195 468.5t-195 469t-469 195t-468.5 -194.5t-194.5 -469.5zM512 315v926h350 q326 0 326 -264q0 -117 -63.5 -178.5t-174.5 -75.5l264 -408h-174l-241 404h-148v-404h-139zM651 834h189q209 0 209 145q0 78 -49.5 112.5t-159.5 34.5h-189v-292z" />
<glyph unicode="&#xb0;" horiz-adv-x="819" d="M117 1227q0 121 86 207t207 86t206.5 -86t85.5 -207t-86 -207t-206 -86q-121 0 -207 86t-86 207zM219 1227q0 -80 55.5 -135.5t135.5 -55.5t135 55.5t55 135.5t-55.5 135t-134.5 55q-80 0 -135.5 -55t-55.5 -135z" />
<glyph unicode="&#xb1;" horiz-adv-x="1228" d="M96 0v152h1037v-152h-1037zM96 555v152h443v329h151v-329h443v-152h-443v-330h-151v330h-443z" />
<glyph unicode="&#xb2;" horiz-adv-x="690" d="M35 608l338 486q47 66 67.5 109.5t20.5 84.5q0 37 -34 64.5t-75 27.5q-59 0 -100 -29.5t-41 -99.5h-152q0 125 78 197t205 72q113 0 191.5 -59.5t78.5 -166.5q0 -43 -19.5 -90t-68.5 -121l-225 -335h299v-140h-563z" />
<glyph unicode="&#xb3;" horiz-adv-x="690" d="M12 766l103 76q59 -106 188 -107q72 0 131.5 44t59.5 114q0 82 -56.5 134t-146.5 52q-47 0 -93 -16t-77 -43l-23 24l277 361h-316v115h553l-266 -338q121 0 204 -75t83 -204q0 -125 -95.5 -210t-224.5 -85q-109 0 -173 31t-128 127z" />
<glyph unicode="&#xb4;" horiz-adv-x="491" d="M129 1233l166 270h248v-16l-269 -254h-145z" />
<glyph unicode="&#xb5;" horiz-adv-x="1175" d="M141 -451v1518h185v-621q0 -131 59 -215t188 -84t203 84t74 236v600h184v-1067h-184v125q-43 -70 -124 -110t-173 -40q-164 0 -223 99l-4 -525h-185z" />
<glyph unicode="&#xb6;" horiz-adv-x="1228" d="M41 1167q0 195 126 292t347 97h510v-1927h-152v1801h-243v-1801h-152v1162q-193 0 -314.5 107.5t-121.5 268.5z" />
<glyph unicode="&#xb8;" horiz-adv-x="491" d="M6 -303q106 25 169 82t101 168l179 -64q-55 -137 -148.5 -201.5t-247.5 -82.5z" />
<glyph unicode="&#xb9;" horiz-adv-x="540" d="M49 1217v139l328 164v-912h-152v711z" />
<glyph unicode="&#xba;" horiz-adv-x="909" d="M70 1180q0 139 108.5 239.5t276.5 100.5t276.5 -99.5t108.5 -240.5q0 -139 -106.5 -237.5t-278.5 -98.5t-278.5 97t-106.5 239zM221 1178q0 -90 67 -155t167 -65q102 0 167.5 63.5t65.5 156.5q0 92 -68.5 153.5t-164.5 61.5q-94 0 -164 -61.5t-70 -153.5z" />
<glyph unicode="&#xbb;" d="M121 172l229 393l-229 393h172l219 -393l-219 -393h-172zM535 172l229 393l-229 393h172l219 -393l-219 -393h-172z" />
<glyph unicode="&#xbc;" horiz-adv-x="1593" d="M80 1217v139l328 164v-912h-152v711zM233 -16l857 1536h161l-856 -1536h-162zM842 215v57l493 639h37v-581h98v-115h-98v-215h-139v215h-391zM1014 330h219v297z" />
<glyph unicode="&#xbd;" horiz-adv-x="1593" d="M49 1217v139l328 164v-912h-152v711zM180 -16l856 1536h162l-856 -1536h-162zM893 0l338 485q47 66 67.5 110t20.5 85q0 37 -34 64.5t-75 27.5q-59 0 -100 -29.5t-41 -99.5h-151q0 125 77.5 196.5t204.5 71.5q113 0 191.5 -59t78.5 -166q0 -43 -19 -90t-69 -121 l-225 -336h299v-139h-563z" />
<glyph unicode="&#xbe;" horiz-adv-x="1593" d="M49 766l103 76q59 -106 188 -107q72 0 131 44t59 114q0 82 -56 134t-146 52q-47 0 -93.5 -16t-76.5 -43l-23 24l277 361h-316v115h553l-266 -338q121 0 204 -75t83 -204q0 -125 -95.5 -210t-224.5 -85q-109 0 -173 31t-128 127zM305 -16l856 1536h162l-856 -1536h-162z M842 215v57l493 639h37v-581h98v-115h-98v-215h-139v215h-391zM1014 330h219v297z" />
<glyph unicode="&#xbf;" d="M111 -41q0 96 31.5 162.5t125.5 140.5l121 94q84 68 110.5 131.5t26.5 243.5h185q0 -209 -39 -311.5t-156 -194.5l-110 -86q-55 -43 -77 -83t-22 -105q0 -94 61.5 -162t157.5 -68q115 0 173.5 73t58.5 183h196q0 -190 -116.5 -309t-315.5 -119q-184 0 -297.5 120 t-113.5 290zM483 987q0 55 40 95t95 40t95.5 -40t40.5 -95t-40 -95t-96 -40q-55 0 -95 40t-40 95z" />
<glyph unicode="&#xc0;" horiz-adv-x="1515" d="M39 0l633 1556h172l633 -1556h-215l-142 362h-725l-141 -362h-215zM461 1886v16h248l165 -270h-145zM463 535h590l-295 763z" />
<glyph unicode="&#xc1;" horiz-adv-x="1515" d="M39 0l633 1556h172l633 -1556h-215l-142 362h-725l-141 -362h-215zM463 535h590l-295 763zM641 1632l166 270h248v-16l-269 -254h-145z" />
<glyph unicode="&#xc2;" horiz-adv-x="1515" d="M39 0l633 1556h172l633 -1556h-215l-142 362h-725l-141 -362h-215zM451 1632l196 270h221l197 -270h-152l-155 156l-156 -156h-151zM463 535h590l-295 763z" />
<glyph unicode="&#xc3;" horiz-adv-x="1515" d="M39 0l633 1556h172l633 -1556h-215l-142 362h-725l-141 -362h-215zM444 1650q0 100 42 164t126 64q63 0 168 -46.5t123 -46.5q27 0 52.5 22t31.5 67h84q0 -100 -42 -164t-126 -64q-63 0 -167.5 46t-123.5 46q-27 0 -52 -21.5t-32 -66.5h-84zM463 535h590l-295 763z" />
<glyph unicode="&#xc4;" horiz-adv-x="1515" d="M39 0l633 1556h172l633 -1556h-215l-142 362h-725l-141 -362h-215zM438 1782q0 55 37 92t92 37t92 -37t37 -92t-36.5 -92t-92.5 -37q-55 0 -92 37t-37 92zM463 535h590l-295 763zM819 1782q0 55 37 92t92 37t92 -37t37 -92t-36.5 -92t-92.5 -37q-55 0 -92 37t-37 92z" />
<glyph unicode="&#xc5;" horiz-adv-x="1515" d="M39 0l633 1556h172l633 -1556h-215l-142 362h-725l-141 -362h-215zM463 535h590l-295 763zM567 1786q0 80 55.5 135.5t135.5 55.5t135 -55.5t55 -135.5t-55 -135t-135 -55t-135.5 55t-55.5 135zM653 1786q0 -43 31 -73.5t74 -30.5t73.5 30.5t30.5 73.5t-30.5 74t-73.5 31 t-74 -31t-31 -74z" />
<glyph unicode="&#xc6;" horiz-adv-x="1972" d="M39 0l913 1556h918v-184h-594v-493h594v-185h-594v-510h594v-184h-791v362h-612l-207 -362h-221zM565 535h514v882z" />
<glyph unicode="&#xc7;" horiz-adv-x="1517" d="M102 778q0 313 225.5 558t600.5 245q152 0 294 -54t240 -145l-133 -145q-176 160 -401 160q-250 0 -433.5 -177.5t-183.5 -441.5t185.5 -441t431.5 -177q127 0 227 42t188 124l125 -142q-104 -96 -248.5 -152.5t-291.5 -56.5q-375 0 -600.5 245t-225.5 558zM627 -303 q106 25 168.5 82t101.5 168l178 -64q-55 -137 -148 -201.5t-247 -82.5z" />
<glyph unicode="&#xc8;" horiz-adv-x="1062" d="M156 0v1556h805v-184h-609v-493h609v-185h-609v-510h609v-184h-805zM273 1886v16h248l165 -270h-145z" />
<glyph unicode="&#xc9;" horiz-adv-x="1062" d="M156 0v1556h805v-184h-609v-493h609v-185h-609v-510h609v-184h-805zM453 1632l166 270h248v-16l-269 -254h-145z" />
<glyph unicode="&#xca;" horiz-adv-x="1062" d="M156 0v1556h805v-184h-609v-493h609v-185h-609v-510h609v-184h-805zM263 1632l196 270h221l197 -270h-152l-155 156l-156 -156h-151z" />
<glyph unicode="&#xcb;" horiz-adv-x="1062" d="M156 0v1556h805v-184h-609v-493h609v-185h-609v-510h609v-184h-805zM250 1782q0 55 37 92t92 37t92 -37t37 -92t-36.5 -92t-92.5 -37q-55 0 -92 37t-37 92zM631 1782q0 55 37 92t92 37t92 -37t37 -92t-36.5 -92t-92.5 -37q-55 0 -92 37t-37 92z" />
<glyph unicode="&#xcc;" horiz-adv-x="491" d="M-51 1886v16h248l165 -270h-145zM147 0v1556h197v-1556h-197z" />
<glyph unicode="&#xcd;" horiz-adv-x="491" d="M129 1632l166 270h248v-16l-269 -254h-145zM147 0v1556h197v-1556h-197z" />
<glyph unicode="&#xce;" horiz-adv-x="491" d="M-61 1632l196 270h221l197 -270h-152l-155 156l-156 -156h-151zM147 0v1556h197v-1556h-197z" />
<glyph unicode="&#xcf;" horiz-adv-x="491" d="M-74 1782q0 55 37 92t92 37t92 -37t37 -92t-36.5 -92t-92.5 -37q-55 0 -92 37t-37 92zM147 0v1556h197v-1556h-197zM307 1782q0 55 37 92t92 37t92 -37t37 -92t-36.5 -92t-92.5 -37q-55 0 -92 37t-37 92z" />
<glyph unicode="&#xd0;" horiz-adv-x="1517" d="M41 707v172h115v677h512q295 0 521 -222t226 -550q0 -332 -230.5 -558t-566.5 -226h-462v707h-115zM352 184h264q258 0 424 174t166 437q0 250 -174 413.5t-432 163.5h-248v-493h353v-172h-353v-523z" />
<glyph unicode="&#xd1;" horiz-adv-x="1515" d="M147 0v1556h185l835 -1204l4 1204h197v-1556h-184l-836 1204l-4 -1204h-197zM444 1650q0 100 42 164t126 64q63 0 168 -46.5t123 -46.5q27 0 52.5 22t31.5 67h84q0 -100 -42 -164t-126 -64q-63 0 -167.5 46t-123.5 46q-27 0 -52 -21.5t-32 -66.5h-84z" />
<glyph unicode="&#xd2;" horiz-adv-x="1855" d="M102 778q0 313 225.5 558t600.5 245t600 -244.5t225 -558.5q0 -313 -225 -558t-600 -245t-600.5 245t-225.5 558zM311 778q0 -268 184.5 -443t432.5 -175t432 174t184 444q0 268 -184 443.5t-432 175.5t-432.5 -174t-184.5 -445zM631 1886v16h248l165 -270h-145z" />
<glyph unicode="&#xd3;" horiz-adv-x="1855" d="M102 778q0 313 225.5 558t600.5 245t600 -244.5t225 -558.5q0 -313 -225 -558t-600 -245t-600.5 245t-225.5 558zM311 778q0 -268 184.5 -443t432.5 -175t432 174t184 444q0 268 -184 443.5t-432 175.5t-432.5 -174t-184.5 -445zM811 1632l166 270h248v-16l-269 -254 h-145z" />
<glyph unicode="&#xd4;" horiz-adv-x="1855" d="M102 778q0 313 225.5 558t600.5 245t600 -244.5t225 -558.5q0 -313 -225 -558t-600 -245t-600.5 245t-225.5 558zM311 778q0 -268 184.5 -443t432.5 -175t432 174t184 444q0 268 -184 443.5t-432 175.5t-432.5 -174t-184.5 -445zM621 1632l196 270h221l197 -270h-152 l-155 156l-156 -156h-151z" />
<glyph unicode="&#xd5;" horiz-adv-x="1855" d="M102 778q0 313 225.5 558t600.5 245t600 -244.5t225 -558.5q0 -313 -225 -558t-600 -245t-600.5 245t-225.5 558zM311 778q0 -268 184.5 -443t432.5 -175t432 174t184 444q0 268 -184 443.5t-432 175.5t-432.5 -174t-184.5 -445zM614 1650q0 100 42 164t126 64 q63 0 168 -46.5t123 -46.5q27 0 52.5 22t31.5 67h84q0 -100 -42 -164t-126 -64q-63 0 -167.5 46t-123.5 46q-27 0 -52 -21.5t-32 -66.5h-84z" />
<glyph unicode="&#xd6;" horiz-adv-x="1855" d="M102 778q0 313 225.5 558t600.5 245t600 -244.5t225 -558.5q0 -313 -225 -558t-600 -245t-600.5 245t-225.5 558zM311 778q0 -268 184.5 -443t432.5 -175t432 174t184 444q0 268 -184 443.5t-432 175.5t-432.5 -174t-184.5 -445zM608 1782q0 55 37 92t92 37t92 -37 t37 -92t-36.5 -92t-92.5 -37q-55 0 -92 37t-37 92zM989 1782q0 55 37 92t92 37t92 -37t37 -92t-36.5 -92t-92.5 -37q-55 0 -92 37t-37 92z" />
<glyph unicode="&#xd7;" horiz-adv-x="1228" d="M145 154l365 364l-365 365l105 104l364 -364l365 364l104 -104l-364 -365l364 -364l-104 -105l-365 365l-364 -365z" />
<glyph unicode="&#xd8;" horiz-adv-x="1855" d="M102 778q0 313 225.5 558t600.5 245q154 0 281.5 -44t228.5 -124l190 205l86 -80l-188 -203q111 -115 169 -259t58 -298q0 -313 -225 -558t-600 -245q-154 0 -282 43t-230 123l-189 -202l-86 79l189 203q-227 233 -228 557zM311 778q0 -121 40 -223t114 -188l840 903 q-168 127 -377 127q-248 0 -432.5 -174t-184.5 -445zM551 287q84 -61 179 -94t198 -33q248 0 432 174t184 444q0 125 -40 226.5t-113 185.5z" />
<glyph unicode="&#xd9;" horiz-adv-x="1515" d="M147 565v991h197v-933q0 -199 108.5 -331t305.5 -132t305 131t108 332v933h197v-991q0 -252 -173 -421t-441 -169q-262 0 -434.5 168t-172.5 422zM461 1886v16h248l165 -270h-145z" />
<glyph unicode="&#xda;" horiz-adv-x="1515" d="M147 565v991h197v-933q0 -199 108.5 -331t305.5 -132t305 131t108 332v933h197v-991q0 -252 -173 -421t-441 -169q-262 0 -434.5 168t-172.5 422zM641 1632l166 270h248v-16l-269 -254h-145z" />
<glyph unicode="&#xdb;" horiz-adv-x="1515" d="M147 565v991h197v-933q0 -199 108.5 -331t305.5 -132t305 131t108 332v933h197v-991q0 -252 -173 -421t-441 -169q-262 0 -434.5 168t-172.5 422zM451 1632l196 270h221l197 -270h-152l-155 156l-156 -156h-151z" />
<glyph unicode="&#xdc;" horiz-adv-x="1515" d="M147 565v991h197v-933q0 -199 108.5 -331t305.5 -132t305 131t108 332v933h197v-991q0 -252 -173 -421t-441 -169q-262 0 -434.5 168t-172.5 422zM438 1782q0 55 37 92t92 37t92 -37t37 -92t-36.5 -92t-92.5 -37q-55 0 -92 37t-37 92zM819 1782q0 55 37 92t92 37t92 -37 t37 -92t-36.5 -92t-92.5 -37q-55 0 -92 37t-37 92z" />
<glyph unicode="&#xdd;" horiz-adv-x="1290" d="M20 1556h230l395 -729l395 729h230l-527 -935v-621h-196v621zM528 1632l166 270h248v-16l-269 -254h-145z" />
<glyph unicode="&#xde;" horiz-adv-x="1175" d="M156 0v1556h196v-227h234q236 0 381 -153.5t145 -360.5t-144.5 -359.5t-381.5 -152.5h-234v-303h-196zM352 475h193q371 0 370 340q0 168 -95 255t-275 87h-193v-682z" />
<glyph unicode="&#xdf;" horiz-adv-x="1290" d="M53 905v162h148v92q0 176 110.5 293t311.5 117q184 0 292.5 -121t108.5 -252q0 -203 -162 -289q150 -23 243 -138.5t93 -276.5q0 -221 -139 -362.5t-363 -141.5q-55 0 -98 7t-96 25l45 166q35 -20 73.5 -28t84.5 -8q117 0 206.5 88t89.5 231q0 147 -102 235.5t-262 88.5 h-45v161h49q86 0 142.5 60.5t56.5 163.5q0 102 -60.5 160.5t-167.5 58.5q-109 0 -168 -67.5t-59 -215.5v-1114h-184v905h-148z" />
<glyph unicode="&#xe0;" horiz-adv-x="1175" d="M66 358q0 154 123.5 260.5t338.5 106.5q92 0 175 -28.5t155 -92.5v111q0 121 -92 168t-227 47q-143 0 -295 -74l-80 154q109 45 207 63.5t178 18.5q209 0 351 -91.5t142 -271.5v-729h-172v115q-70 -74 -150.5 -107t-189.5 -33q-199 0 -331.5 104.5t-132.5 278.5zM262 350 q0 -90 73 -151.5t228 -61.5q156 0 228.5 61.5t72.5 151.5t-72.5 151.5t-228.5 61.5t-228.5 -61.5t-72.5 -151.5zM303 1487v16h248l165 -270h-145z" />
<glyph unicode="&#xe1;" horiz-adv-x="1175" d="M66 358q0 154 123.5 260.5t338.5 106.5q92 0 175 -28.5t155 -92.5v111q0 121 -92 168t-227 47q-143 0 -295 -74l-80 154q109 45 207 63.5t178 18.5q209 0 351 -91.5t142 -271.5v-729h-172v115q-70 -74 -150.5 -107t-189.5 -33q-199 0 -331.5 104.5t-132.5 278.5zM262 350 q0 -90 73 -151.5t228 -61.5q156 0 228.5 61.5t72.5 151.5t-72.5 151.5t-228.5 61.5t-228.5 -61.5t-72.5 -151.5zM483 1233l166 270h248v-16l-269 -254h-145z" />
<glyph unicode="&#xe2;" horiz-adv-x="1175" d="M66 358q0 154 123.5 260.5t338.5 106.5q92 0 175 -28.5t155 -92.5v111q0 121 -92 168t-227 47q-143 0 -295 -74l-80 154q109 45 207 63.5t178 18.5q209 0 351 -91.5t142 -271.5v-729h-172v115q-70 -74 -150.5 -107t-189.5 -33q-199 0 -331.5 104.5t-132.5 278.5zM262 350 q0 -90 73 -151.5t228 -61.5q156 0 228.5 61.5t72.5 151.5t-72.5 151.5t-228.5 61.5t-228.5 -61.5t-72.5 -151.5zM293 1233l196 270h221l197 -270h-152l-155 156l-156 -156h-151z" />
<glyph unicode="&#xe3;" horiz-adv-x="1175" d="M66 358q0 154 123.5 260.5t338.5 106.5q92 0 175 -28.5t155 -92.5v111q0 121 -92 168t-227 47q-143 0 -295 -74l-80 154q109 45 207 63.5t178 18.5q209 0 351 -91.5t142 -271.5v-729h-172v115q-70 -74 -150.5 -107t-189.5 -33q-199 0 -331.5 104.5t-132.5 278.5zM262 350 q0 -90 73 -151.5t228 -61.5q156 0 228.5 61.5t72.5 151.5t-72.5 151.5t-228.5 61.5t-228.5 -61.5t-72.5 -151.5zM286 1251q0 100 42 164t126 64q63 0 168 -46.5t123 -46.5q27 0 52.5 22t31.5 67h84q0 -100 -42 -164t-126 -64q-63 0 -167.5 46t-123.5 46q-27 0 -52 -21.5 t-32 -66.5h-84z" />
<glyph unicode="&#xe4;" horiz-adv-x="1175" d="M66 358q0 154 123.5 260.5t338.5 106.5q92 0 175 -28.5t155 -92.5v111q0 121 -92 168t-227 47q-143 0 -295 -74l-80 154q109 45 207 63.5t178 18.5q209 0 351 -91.5t142 -271.5v-729h-172v115q-70 -74 -150.5 -107t-189.5 -33q-199 0 -331.5 104.5t-132.5 278.5zM262 350 q0 -90 73 -151.5t228 -61.5q156 0 228.5 61.5t72.5 151.5t-72.5 151.5t-228.5 61.5t-228.5 -61.5t-72.5 -151.5zM280 1362q0 55 37 92t92 37t92 -37t37 -92t-36.5 -92t-92.5 -37q-55 0 -92 37t-37 92zM661 1362q0 55 37 92t92 37t92 -37t37 -92t-36.5 -92t-92.5 -37 q-55 0 -92 37t-37 92z" />
<glyph unicode="&#xe5;" horiz-adv-x="1175" d="M66 358q0 154 123.5 260.5t338.5 106.5q92 0 175 -28.5t155 -92.5v111q0 121 -92 168t-227 47q-143 0 -295 -74l-80 154q109 45 207 63.5t178 18.5q209 0 351 -91.5t142 -271.5v-729h-172v115q-70 -74 -150.5 -107t-189.5 -33q-199 0 -331.5 104.5t-132.5 278.5zM262 350 q0 -90 73 -151.5t228 -61.5q156 0 228.5 61.5t72.5 151.5t-72.5 151.5t-228.5 61.5t-228.5 -61.5t-72.5 -151.5zM409 1378q0 80 55.5 135.5t135.5 55.5t135 -55.5t55 -135.5t-55 -135t-135 -55t-135.5 55t-55.5 135zM495 1378q0 -43 31 -73.5t74 -30.5t73.5 30.5t30.5 73.5 t-30.5 74t-73.5 31t-74 -31t-31 -74z" />
<glyph unicode="&#xe6;" horiz-adv-x="1972" d="M72 358q0 154 123.5 260.5t339.5 106.5q92 0 175 -28.5t154 -92.5v111q0 121 -92 168t-227 47q-143 0 -295 -74l-80 154q109 45 207 63.5t178 18.5q174 0 280.5 -54.5t165.5 -156.5q49 92 155 151.5t222 59.5q236 0 379.5 -166t143.5 -400v-63h-846q0 -135 102.5 -225.5 t251.5 -90.5q113 0 183.5 36t131.5 112l138 -111q-190 -209 -459 -209q-139 0 -252 56.5t-166 148.5q-80 -111 -188.5 -158t-259.5 -47q-199 0 -332 104.5t-133 278.5zM268 350q0 -90 73 -151.5t228 -61.5q156 0 228.5 61.5t72.5 151.5t-72.5 151.5t-228.5 61.5 t-228.5 -61.5t-72.5 -151.5zM1055 614h649q-12 137 -104.5 221.5t-219.5 84.5q-121 0 -213 -77t-112 -229z" />
<glyph unicode="&#xe7;" horiz-adv-x="1062" d="M92 530q0 231 159 396.5t388 165.5q113 0 210 -38t165 -96l-125 -145q-109 106 -248 107q-145 0 -248.5 -103.5t-103.5 -292.5q0 -164 104.5 -270.5t265.5 -106.5q63 0 124 30t114 79l109 -135q-143 -145 -369 -146q-240 0 -392.5 163t-152.5 392zM362 -303 q106 25 169 82t102 168l178 -64q-55 -137 -148.5 -201.5t-246.5 -82.5z" />
<glyph unicode="&#xe8;" horiz-adv-x="1290" d="M92 535q0 233 153.5 395t397.5 162q250 0 404.5 -173.5t154.5 -455.5h-913q23 -137 127 -226.5t256 -89.5q195 0 342 172l141 -112q-207 -231 -481 -232q-270 0 -426 165t-156 395zM289 614h704q-14 135 -111.5 220.5t-240.5 85.5q-156 0 -246 -91.5t-106 -214.5z M361 1487v16h248l165 -270h-145z" />
<glyph unicode="&#xe9;" horiz-adv-x="1290" d="M92 535q0 233 153.5 395t397.5 162q250 0 404.5 -173.5t154.5 -455.5h-913q23 -137 127 -226.5t256 -89.5q195 0 342 172l141 -112q-207 -231 -481 -232q-270 0 -426 165t-156 395zM289 614h704q-14 135 -111.5 220.5t-240.5 85.5q-156 0 -246 -91.5t-106 -214.5z M541 1233l166 270h248v-16l-269 -254h-145z" />
<glyph unicode="&#xea;" horiz-adv-x="1290" d="M92 535q0 233 153.5 395t397.5 162q250 0 404.5 -173.5t154.5 -455.5h-913q23 -137 127 -226.5t256 -89.5q195 0 342 172l141 -112q-207 -231 -481 -232q-270 0 -426 165t-156 395zM289 614h704q-14 135 -111.5 220.5t-240.5 85.5q-156 0 -246 -91.5t-106 -214.5z M351 1233l196 270h221l197 -270h-152l-155 156l-156 -156h-151z" />
<glyph unicode="&#xeb;" horiz-adv-x="1290" d="M92 535q0 233 153.5 395t397.5 162q250 0 404.5 -173.5t154.5 -455.5h-913q23 -137 127 -226.5t256 -89.5q195 0 342 172l141 -112q-207 -231 -481 -232q-270 0 -426 165t-156 395zM289 614h704q-14 135 -111.5 220.5t-240.5 85.5q-156 0 -246 -91.5t-106 -214.5z M338 1362q0 55 37 92t92 37t92 -37t37 -92t-36.5 -92t-92.5 -37q-55 0 -92 37t-37 92zM719 1362q0 55 37 92t92 37t92 -37t37 -92t-36.5 -92t-92.5 -37q-55 0 -92 37t-37 92z" />
<glyph unicode="&#xec;" horiz-adv-x="491" d="M-51 1487v16h248l165 -270h-145zM154 0v1067h184v-1067h-184z" />
<glyph unicode="&#xed;" horiz-adv-x="491" d="M129 1233l166 270h248v-16l-269 -254h-145zM154 0v1067h184v-1067h-184z" />
<glyph unicode="&#xee;" horiz-adv-x="491" d="M-61 1233l196 270h221l197 -270h-152l-155 156l-156 -156h-151zM154 0v1067h184v-1067h-184z" />
<glyph unicode="&#xef;" horiz-adv-x="491" d="M-74 1362q0 55 37 92t92 37t92 -37t37 -92t-36.5 -92t-92.5 -37q-55 0 -92 37t-37 92zM154 0v1067h184v-1067h-184zM307 1362q0 55 37 92t92 37t92 -37t37 -92t-36.5 -92t-92.5 -37q-55 0 -92 37t-37 92z" />
<glyph unicode="&#xf1;" horiz-adv-x="1175" d="M141 0v1067h185v-125q43 70 123.5 110t173.5 40q172 0 291.5 -99.5t119.5 -302.5v-690h-184v621q0 131 -59.5 215t-188.5 84t-202.5 -84t-73.5 -236v-600h-185zM274 1251q0 100 42 164t126 64q63 0 168 -46.5t123 -46.5q27 0 52.5 22t31.5 67h84q0 -100 -42 -164 t-126 -64q-63 0 -167.5 46t-123.5 46q-27 0 -52 -21.5t-32 -66.5h-84z" />
<glyph unicode="&#xf2;" horiz-adv-x="1400" d="M123 532q0 231 163.5 395.5t413.5 164.5q248 0 413 -165t165 -395q0 -233 -160 -395t-418 -162q-256 0 -416.5 161t-160.5 396zM319 532q0 -154 114 -269.5t267 -115.5q154 0 267.5 116t113.5 269q0 164 -111.5 276t-269.5 112q-154 0 -267.5 -112t-113.5 -276zM404 1487 v16h248l165 -270h-145z" />
<glyph unicode="&#xf3;" horiz-adv-x="1400" d="M123 532q0 231 163.5 395.5t413.5 164.5q248 0 413 -165t165 -395q0 -233 -160 -395t-418 -162q-256 0 -416.5 161t-160.5 396zM319 532q0 -154 114 -269.5t267 -115.5q154 0 267.5 116t113.5 269q0 164 -111.5 276t-269.5 112q-154 0 -267.5 -112t-113.5 -276zM584 1233 l166 270h248v-16l-269 -254h-145z" />
<glyph unicode="&#xf4;" horiz-adv-x="1400" d="M123 532q0 231 163.5 395.5t413.5 164.5q248 0 413 -165t165 -395q0 -233 -160 -395t-418 -162q-256 0 -416.5 161t-160.5 396zM319 532q0 -154 114 -269.5t267 -115.5q154 0 267.5 116t113.5 269q0 164 -111.5 276t-269.5 112q-154 0 -267.5 -112t-113.5 -276zM394 1233 l196 270h221l197 -270h-152l-155 156l-156 -156h-151z" />
<glyph unicode="&#xf5;" horiz-adv-x="1400" d="M123 532q0 231 163.5 395.5t413.5 164.5q248 0 413 -165t165 -395q0 -233 -160 -395t-418 -162q-256 0 -416.5 161t-160.5 396zM319 532q0 -154 114 -269.5t267 -115.5q154 0 267.5 116t113.5 269q0 164 -111.5 276t-269.5 112q-154 0 -267.5 -112t-113.5 -276zM387 1251 q0 100 42 164t126 64q63 0 168 -46.5t123 -46.5q27 0 52.5 22t31.5 67h84q0 -100 -42 -164t-126 -64q-63 0 -167.5 46t-123.5 46q-27 0 -52 -21.5t-32 -66.5h-84z" />
<glyph unicode="&#xf6;" horiz-adv-x="1400" d="M123 532q0 231 163.5 395.5t413.5 164.5q248 0 413 -165t165 -395q0 -233 -160 -395t-418 -162q-256 0 -416.5 161t-160.5 396zM319 532q0 -154 114 -269.5t267 -115.5q154 0 267.5 116t113.5 269q0 164 -111.5 276t-269.5 112q-154 0 -267.5 -112t-113.5 -276zM381 1362 q0 55 37 92t92 37t92 -37t37 -92t-36.5 -92t-92.5 -37q-55 0 -92 37t-37 92zM762 1362q0 55 37 92t92 37t92 -37t37 -92t-36.5 -92t-92.5 -37q-55 0 -92 37t-37 92z" />
<glyph unicode="&#xf7;" horiz-adv-x="1228" d="M96 442v152h1037v-152h-1037zM473 96q0 59 41 100.5t100 41.5t100.5 -41t41.5 -101q0 -59 -41 -100t-101 -41q-59 0 -100 41t-41 100zM473 940q0 59 41 100t100 41t100.5 -41t41.5 -100t-41 -100t-101 -41q-59 0 -100 41t-41 100z" />
<glyph unicode="&#xf8;" horiz-adv-x="1400" d="M106 41l144 135q-127 145 -127 356q0 231 164 395.5t413 164.5q106 0 201.5 -34t173.5 -97l148 141l71 -76l-145 -137q61 -72 95 -165t34 -192q0 -233 -160 -395t-418 -162q-111 0 -206 33t-170 94l-146 -137zM319 532q0 -123 74 -219l547 521q-104 86 -240 86 q-154 0 -267.5 -112t-113.5 -276zM465 236q47 -41 108.5 -65t126.5 -24q154 0 267.5 116t113.5 269q0 61 -17 118t-52 108z" />
<glyph unicode="&#xf9;" horiz-adv-x="1175" d="M141 377v690h185v-621q0 -131 59 -215t188 -84t203 84t74 236v600h184v-1067h-184v125q-43 -70 -124 -110t-173 -40q-172 0 -292 99.5t-120 302.5zM291 1487v16h248l165 -270h-145z" />
<glyph unicode="&#xfa;" horiz-adv-x="1175" d="M141 377v690h185v-621q0 -131 59 -215t188 -84t203 84t74 236v600h184v-1067h-184v125q-43 -70 -124 -110t-173 -40q-172 0 -292 99.5t-120 302.5zM471 1233l166 270h248v-16l-269 -254h-145z" />
<glyph unicode="&#xfb;" horiz-adv-x="1175" d="M141 377v690h185v-621q0 -131 59 -215t188 -84t203 84t74 236v600h184v-1067h-184v125q-43 -70 -124 -110t-173 -40q-172 0 -292 99.5t-120 302.5zM281 1233l196 270h221l197 -270h-152l-155 156l-156 -156h-151z" />
<glyph unicode="&#xfc;" horiz-adv-x="1175" d="M141 377v690h185v-621q0 -131 59 -215t188 -84t203 84t74 236v600h184v-1067h-184v125q-43 -70 -124 -110t-173 -40q-172 0 -292 99.5t-120 302.5zM268 1362q0 55 37 92t92 37t92 -37t37 -92t-36.5 -92t-92.5 -37q-55 0 -92 37t-37 92zM649 1362q0 55 37 92t92 37t92 -37 t37 -92t-36.5 -92t-92.5 -37q-55 0 -92 37t-37 92z" />
<glyph unicode="&#xfd;" horiz-adv-x="1175" d="M16 1067h209l342 -823l346 823h197l-655 -1518h-193l199 467zM471 1233l166 270h248v-16l-269 -254h-145z" />
<glyph unicode="&#xfe;" horiz-adv-x="1400" d="M154 -451v2007h184v-657q66 92 177.5 142.5t232.5 50.5q229 0 392 -159t163 -388q0 -246 -168 -408t-396 -162q-135 0 -234 50.5t-163 138.5l-4 -615h-184zM338 532q0 -160 112.5 -272.5t270.5 -112.5q156 0 270.5 109t114.5 287q0 147 -106.5 262t-284.5 115 q-154 0 -265.5 -114t-111.5 -274z" />
<glyph unicode="&#xff;" horiz-adv-x="1175" d="M16 1067h209l342 -823l346 823h197l-655 -1518h-193l199 467zM268 1362q0 55 37 92t92 37t92 -37t37 -92t-36.5 -92t-92.5 -37q-55 0 -92 37t-37 92zM649 1362q0 55 37 92t92 37t92 -37t37 -92t-36.5 -92t-92.5 -37q-55 0 -92 37t-37 92z" />
<glyph unicode="&#x152;" horiz-adv-x="2086" d="M80 778q0 328 179 565.5t501 237.5q162 0 277.5 -54t193.5 -175l4 204h750v-184h-562v-514h562v-184h-562v-490h562v-184h-750v205q-156 -229 -475 -230q-322 0 -501 235.5t-179 567.5zM276 778q0 -262 117 -446.5t367 -184.5q248 0 363.5 183.5t115.5 447.5 q0 262 -116.5 446.5t-362.5 184.5q-248 0 -366 -184.5t-118 -446.5z" />
<glyph unicode="&#x153;" horiz-adv-x="2086" d="M84 524q0 225 142.5 396.5t400.5 171.5q135 0 244.5 -55.5t189.5 -174.5q84 121 178 175.5t242 54.5q236 0 379 -166t143 -400v-63h-858q12 -137 115.5 -226.5t250.5 -89.5q113 0 183.5 36t132.5 112l137 -111q-190 -209 -459 -209q-143 0 -254.5 51.5t-195.5 180.5 q-66 -113 -177.5 -172.5t-250.5 -59.5q-248 0 -395.5 159t-147.5 390zM281 530q0 -164 94 -273.5t252 -109.5t252 110t94 273q0 156 -91 273t-255 117t-255 -116t-91 -274zM1145 614h661q-12 137 -104 221.5t-219 84.5q-123 0 -216 -74t-122 -232z" />
<glyph unicode="&#x178;" horiz-adv-x="1290" d="M20 1556h230l395 -729l395 729h230l-527 -935v-621h-196v621zM325 1782q0 55 37 92t92 37t92 -37t37 -92t-36.5 -92t-92.5 -37q-55 0 -92 37t-37 92zM706 1782q0 55 37 92t92 37t92 -37t37 -92t-36.5 -92t-92.5 -37q-55 0 -92 37t-37 92z" />
<glyph unicode="&#x2000;" horiz-adv-x="988" />
<glyph unicode="&#x2001;" horiz-adv-x="1977" />
<glyph unicode="&#x2002;" horiz-adv-x="988" />
<glyph unicode="&#x2003;" horiz-adv-x="1977" />
<glyph unicode="&#x2004;" horiz-adv-x="659" />
<glyph unicode="&#x2005;" horiz-adv-x="494" />
<glyph unicode="&#x2006;" horiz-adv-x="329" />
<glyph unicode="&#x2007;" horiz-adv-x="329" />
<glyph unicode="&#x2008;" horiz-adv-x="247" />
<glyph unicode="&#x2009;" horiz-adv-x="395" />
<glyph unicode="&#x200a;" horiz-adv-x="109" />
<glyph unicode="&#x2010;" horiz-adv-x="606" d="M61 473v184h484v-184h-484z" />
<glyph unicode="&#x2011;" horiz-adv-x="606" d="M61 473v184h484v-184h-484z" />
<glyph unicode="&#x2012;" horiz-adv-x="606" d="M61 473v184h484v-184h-484z" />
<glyph unicode="&#x2013;" horiz-adv-x="1024" d="M0 485v162h1024v-162h-1024z" />
<glyph unicode="&#x2014;" horiz-adv-x="2048" d="M0 485v162h2048v-162h-2048z" />
<glyph unicode="&#x2018;" horiz-adv-x="606" d="M113 1057l249 499l132 -63l-191 -514z" />
<glyph unicode="&#x2019;" horiz-adv-x="606" d="M113 1042l190 514l191 -77l-250 -500z" />
<glyph unicode="&#x201a;" horiz-adv-x="606" d="M76 -279l190 515l191 -78l-250 -500z" />
<glyph unicode="&#x201c;" d="M129 1057l250 499l131 -63l-191 -514zM555 1057l250 499l131 -63l-191 -514z" />
<glyph unicode="&#x201d;" d="M129 1042l190 514l191 -77l-250 -500zM555 1042l190 514l191 -77l-250 -500z" />
<glyph unicode="&#x201e;" d="M106 -279l191 515l190 -78l-249 -500zM532 -279l191 515l190 -78l-249 -500z" />
<glyph unicode="&#x2022;" horiz-adv-x="1024" d="M123 778q0 162 113.5 275.5t275.5 113.5t275.5 -113.5t113.5 -275.5t-113.5 -275.5t-275.5 -113.5t-275.5 113.5t-113.5 275.5z" />
<glyph unicode="&#x2026;" horiz-adv-x="2048" d="M207 119q0 55 40 95t95 40t95 -40t40 -95t-40 -95t-95 -40t-95 39.5t-40 95.5zM889 119q0 55 40 95t95 40t95 -40t40 -95t-40 -95t-95 -40t-95 39.5t-40 95.5zM1571 119q0 55 40 95t95 40t95 -40t40 -95t-40 -95t-95 -40t-95 39.5t-40 95.5z" />
<glyph unicode="&#x202f;" horiz-adv-x="395" />
<glyph unicode="&#x2039;" horiz-adv-x="606" d="M113 565l219 393h172l-230 -393l230 -393h-172z" />
<glyph unicode="&#x203a;" horiz-adv-x="606" d="M102 172l230 393l-230 393h172l220 -393l-220 -393h-172z" />
<glyph unicode="&#x205f;" horiz-adv-x="494" />
<glyph unicode="&#x2122;" horiz-adv-x="2027" d="M74 1442v114h671v-114h-260v-729h-151v729h-260zM889 713v843h231l240 -622l239 622h232v-843h-152v692l-268 -692h-102l-265 692l-4 -692h-151z" />
<glyph unicode="&#x25fc;" d="M0 0v1065h1065v-1065h-1065z" />
</font>
</defs>
</svg>
