<?xml version="1.0" standalone="no"?>
<!DOCTYPE svg PUBLIC "-//W3C//DTD SVG 1.1//EN" "http://www.w3.org/Graphics/SVG/1.1/DTD/svg11.dtd" >
<svg xmlns="http://www.w3.org/2000/svg" xmlns:xlink="http://www.w3.org/1999/xlink" version="1.1">
<metadata></metadata>
<defs>
<font id="dinmittelschriftregular" horiz-adv-x="1024" >
<font-face units-per-em="2048" ascent="1638" descent="-410" />
<missing-glyph horiz-adv-x="491" />
<glyph horiz-adv-x="0" />
<glyph unicode="&#xd;" horiz-adv-x="491" />
<glyph unicode=" "  horiz-adv-x="491" />
<glyph unicode="&#x09;" horiz-adv-x="491" />
<glyph unicode="&#xa0;" horiz-adv-x="491" />
<glyph unicode="!" horiz-adv-x="528" d="M133 1458h262l-80 -1098h-104zM160 0v209h209v-209h-209z" />
<glyph unicode="&#x22;" horiz-adv-x="681" d="M127 1098v360h160v-360h-160zM395 1098v360h160v-360h-160z" />
<glyph unicode="#" horiz-adv-x="983" d="M6 446v136h203l45 295h-188v135h202l64 446h160l-64 -446h201l63 446h160l-64 -446h189v-135h-203l-45 -295h189v-136h-203l-64 -446h-159l63 446h-201l-63 -446h-160l64 446h-189zM369 582h200l45 295h-200z" />
<glyph unicode="$" horiz-adv-x="983" d="M16 182l144 152q57 -66 121.5 -103.5t156.5 -46.5v457q-188 43 -272 144.5t-84 265.5q0 176 96 287.5t260 131.5v144h105v-144q96 0 179 -33.5t167 -103.5l-119 -155q-49 45 -108.5 70.5t-118.5 25.5v-436q190 -37 282.5 -146.5t92.5 -275.5q0 -170 -102.5 -287 t-272.5 -141v-221h-105v221q-115 0 -224.5 53t-197.5 141zM291 1055q0 -76 31.5 -121t115.5 -72v412q-68 -10 -107.5 -63.5t-39.5 -155.5zM543 184q88 23 127 81.5t39 152.5q0 78 -36 129t-130 69v-432z" />
<glyph unicode="%" horiz-adv-x="1062" d="M104 1128v140q0 100 55.5 151t137.5 51t137 -51t55 -151v-140q0 -100 -55 -151t-137 -51t-137.5 51t-55.5 151zM119 0l690 1458h135l-690 -1458h-135zM221 1143q0 -100 76 -101q76 0 76 101v110q0 100 -76 101q-76 0 -76 -101v-110zM573 190v140q0 100 55.5 151t137.5 51 t137 -51t55 -151v-140q0 -100 -55 -151t-137 -51t-137.5 51t-55.5 151zM690 205q0 -100 76 -101q76 0 76 101v110q0 100 -76 101q-76 0 -76 -101v-110z" />
<glyph unicode="&#x26;" horiz-adv-x="1327" d="M80 436q0 133 71.5 245t206.5 181q-55 63 -87.5 135t-32.5 142q0 135 92 233t235 98q145 0 236.5 -97t91.5 -234q0 -104 -57.5 -184.5t-186.5 -141.5l312 -375q41 51 71.5 111.5t54.5 132.5l187 -74q-37 -90 -86 -173t-105 -142l246 -293h-246l-135 147 q-98 -74 -199.5 -116.5t-207.5 -42.5q-203 0 -332 131t-129 317zM264 438q0 -115 80 -190.5t191 -75.5q74 0 147.5 30.5t144.5 98.5l-352 422q-106 -57 -158.5 -131t-52.5 -154zM422 1147q0 -43 29.5 -92t78.5 -94q96 37 137.5 81.5t41.5 104.5q0 57 -41 98t-103 41 q-61 0 -102 -41t-41 -98z" />
<glyph unicode="'" horiz-adv-x="491" d="M166 1098v360h160v-360h-160z" />
<glyph unicode="(" horiz-adv-x="569" d="M123 625q0 219 82 437t241 396h82q-94 -197 -145 -408.5t-51 -424.5q0 -221 49 -425t147 -409h-82q-156 172 -239.5 395.5t-83.5 438.5z" />
<glyph unicode=")" horiz-adv-x="569" d="M41 -209q94 197 145.5 409t51.5 425q0 221 -49.5 424.5t-147.5 408.5h82q156 -172 239.5 -395t83.5 -438q0 -219 -81.5 -437.5t-241.5 -396.5h-82z" />
<glyph unicode="*" horiz-adv-x="720" d="M74 1051l170 104l-170 105l61 94l164 -94v198h123v-198l164 94l61 -94l-170 -105l170 -104l-61 -95l-164 95v-199h-123v199l-164 -95z" />
<glyph unicode="+" horiz-adv-x="1228" d="M96 438v160h439v438h159v-438h439v-160h-439v-438h-159v438h-439z" />
<glyph unicode="," horiz-adv-x="491" d="M141 -152v361h209v-209z" />
<glyph unicode="-" horiz-adv-x="833" d="M109 463v209h616v-209h-616z" />
<glyph unicode="." horiz-adv-x="491" d="M141 0v209h209v-209h-209z" />
<glyph unicode="/" horiz-adv-x="681" d="M16 -12l490 1482h160l-490 -1482h-160z" />
<glyph unicode="0" horiz-adv-x="983" d="M78 408v643q0 195 120.5 307t293.5 112q170 0 291.5 -113.5t121.5 -305.5v-643q0 -195 -120.5 -307.5t-292.5 -112.5q-170 0 -292 113.5t-122 306.5zM287 420q0 -104 55 -163.5t150 -59.5q94 0 149 59t55 164v618q0 104 -55 164t-149 60t-149.5 -59.5t-55.5 -164.5v-618z " />
<glyph unicode="1" horiz-adv-x="983" d="M190 1085v222l207 151h209v-1458h-209v1237z" />
<glyph unicode="2" horiz-adv-x="983" d="M66 0v197l569 712q31 39 42 74t11 72q0 82 -55 144.5t-146 62.5q-90 0 -151.5 -57.5t-61.5 -153.5h-208q0 176 119.5 297.5t285.5 121.5q182 0 304 -119.5t122 -297.5q0 -74 -20.5 -136.5t-67.5 -119.5l-469 -588h557v-209h-831z" />
<glyph unicode="3" horiz-adv-x="983" d="M27 362h209q33 -82 82 -123.5t135 -41.5q90 0 155.5 63.5t65.5 167.5q0 106 -64.5 168.5t-160.5 62.5h-89v185h72q102 0 163.5 57t61.5 150q0 90 -62.5 150.5t-150.5 60.5q-72 0 -128 -45.5t-72 -131.5h-209q0 154 122 269.5t279 115.5q190 0 310 -123.5t120 -291.5 q0 -94 -33.5 -170t-121.5 -131q86 -55 129 -140.5t43 -179.5q0 -199 -126 -322.5t-317 -123.5q-154 0 -269.5 99t-143.5 275z" />
<glyph unicode="4" horiz-adv-x="983" d="M25 217v197l487 1044h233l-493 -1044h381v420h209v-420h116v-197h-116v-217h-209v217h-608z" />
<glyph unicode="5" horiz-adv-x="983" d="M76 367h209q18 -82 69.5 -126t139.5 -44q135 0 169.5 84t34.5 229q0 135 -45 208t-166 73q-61 0 -106 -28t-82 -93h-197v788h777v-209h-580v-329q100 80 233 79q82 0 149 -29.5t120 -87t79.5 -139t26.5 -249.5q0 -141 -19.5 -214t-70.5 -137.5t-132 -109.5t-183 -45 q-160 0 -282 93t-144 286z" />
<glyph unicode="6" horiz-adv-x="983" d="M74 432q0 133 55 244l391 782h234l-308 -616q53 18 115 18q150 0 249 -101.5t99 -303.5q0 -233 -125 -350t-305 -117q-162 0 -283.5 124t-121.5 320zM283 436q0 -119 55 -179t154 -60q84 0 146 58t62 181q0 117 -59 178.5t-149 61.5q-92 0 -150.5 -60.5t-58.5 -179.5z " />
<glyph unicode="7" horiz-adv-x="983" d="M104 1038v420h830v-209l-494 -1249h-233l493 1249h-387v-211h-209z" />
<glyph unicode="8" horiz-adv-x="983" d="M47 426q0 213 172 328q-70 63 -107.5 135t-37.5 160q0 176 120.5 298.5t297.5 122.5q176 0 296.5 -122.5t120.5 -298.5q0 -92 -35.5 -161t-109.5 -134q172 -115 172 -328q0 -190 -130 -314t-314 -124q-186 0 -315.5 122.5t-129.5 315.5zM256 428q0 -100 70 -165.5 t166 -65.5q94 0 164.5 66.5t70.5 164.5q0 100 -69.5 165.5t-165.5 65.5q-94 0 -165 -66.5t-71 -164.5zM283 1053q0 -98 61.5 -153.5t147.5 -55.5q84 0 146 56t62 153q0 98 -61 153.5t-147 55.5q-84 0 -146.5 -56.5t-62.5 -152.5z" />
<glyph unicode="9" horiz-adv-x="983" d="M74 1004q0 233 125 349.5t305 116.5q162 0 283.5 -123.5t121.5 -320.5q0 -133 -55 -244l-391 -782h-234l308 616q-53 -18 -115 -18q-150 0 -249 101.5t-99 304.5zM283 1022q0 -117 59 -178.5t150 -61.5q92 0 150 60.5t58 179.5t-55 179.5t-153 60.5q-84 0 -146.5 -58.5 t-62.5 -181.5z" />
<glyph unicode=":" horiz-adv-x="491" d="M141 0v209h209v-209h-209zM141 465v209h209v-209h-209z" />
<glyph unicode=";" horiz-adv-x="491" d="M141 -152v361h209v-209zM141 465v209h209v-209h-209z" />
<glyph unicode="&#x3c;" horiz-adv-x="1228" d="M96 444v148l1037 461v-172l-852 -363l852 -362v-172z" />
<glyph unicode="=" horiz-adv-x="1228" d="M96 233v160h1037v-160h-1037zM96 643v160h1037v-160h-1037z" />
<glyph unicode="&#x3e;" horiz-adv-x="1228" d="M96 -16v172l852 362l-852 363v172l1037 -461v-148z" />
<glyph unicode="?" horiz-adv-x="948" d="M59 1038v41q0 164 114 277.5t273 113.5q160 0 278 -109.5t118 -283.5q0 -123 -66 -215l-186 -256q-23 -29 -29 -55.5t-6 -73.5v-117h-209v134q0 51 6 95t47 101l183 254q51 70 51 135q0 80 -55.5 131.5t-120.5 51.5q-84 0 -136.5 -53.5t-52.5 -170.5h-209zM346 0v209h209 v-209h-209z" />
<glyph unicode="@" horiz-adv-x="1638" d="M78 737q0 322 218 527.5t548 205.5q299 0 508 -174t209 -438q0 -238 -159 -405.5t-308 -167.5q-143 0 -164 131q-59 -66 -113.5 -98.5t-148.5 -32.5q-125 0 -208 91t-83 220q0 213 140 387t349 174q76 0 136.5 -39t95.5 -121l28 105h136l-164 -531q-20 -61 -21 -104 q0 -29 10.5 -44t36.5 -15q90 0 183.5 146t93.5 294q0 203 -152.5 333t-394.5 130q-283 0 -449.5 -167t-166.5 -411q0 -252 173 -419t453 -167q176 0 301 48.5t215 142.5h136q-104 -166 -280.5 -258t-395.5 -92q-328 0 -545 211t-217 538zM537 610q0 -84 49 -137t127 -53 q125 0 222 142.5t97 277.5q0 70 -48 126t-118 56q-137 0 -233 -135t-96 -277z" />
<glyph unicode="A" horiz-adv-x="1249" d="M2 0l530 1458h185l530 -1458h-233l-113 326h-553l-112 -326h-234zM412 522h426l-211 637z" />
<glyph unicode="B" horiz-adv-x="1249" d="M154 0v1458h565q209 0 320.5 -105.5t111.5 -285.5q0 -102 -47 -181t-168 -132q115 -29 176.5 -125.5t61.5 -214.5q0 -184 -119 -299t-287 -115h-614zM375 209h340q117 0 177 62.5t60 156.5q0 92 -61.5 155.5t-175.5 63.5h-340v-438zM375 844h319q115 0 175.5 58.5 t60.5 150.5q0 90 -60.5 149.5t-175.5 59.5h-319v-418z" />
<glyph unicode="C" horiz-adv-x="1138" d="M104 729q0 256 11.5 330t61.5 165t169 168.5t279 77.5q199 0 338 -122.5t174 -309.5h-234q-27 88 -102.5 149.5t-175.5 61.5q-76 0 -131.5 -28.5t-97.5 -82t-56 -126t-14 -283.5q0 -219 13 -285.5t54 -120t100.5 -84t131.5 -30.5q186 0 278 199h234 q-43 -201 -181.5 -310.5t-330.5 -109.5q-162 0 -279 75.5t-167 167t-62.5 172t-12.5 326.5z" />
<glyph unicode="D" horiz-adv-x="1290" d="M154 0v1458h510q145 0 258.5 -62.5t176 -168t75 -185t12.5 -313.5q0 -238 -15.5 -322.5t-76 -179t-175 -161t-270.5 -66.5h-495zM375 209h264q184 0 244.5 90t71 157.5t10.5 264.5q0 203 -11.5 274.5t-58.5 135t-105.5 91t-150.5 27.5h-264v-1040z" />
<glyph unicode="E" horiz-adv-x="1138" d="M154 0v1458h931v-209h-710v-415h606v-197h-606v-428h710v-209h-931z" />
<glyph unicode="F" horiz-adv-x="1099" d="M154 0v1458h931v-209h-710v-430h606v-196h-606v-623h-221z" />
<glyph unicode="G" horiz-adv-x="1249" d="M104 729q0 256 11.5 330t61.5 165t169 168.5t279 77.5q199 0 338 -122.5t174 -309.5h-234q-27 88 -102.5 149.5t-175.5 61.5q-76 0 -131.5 -28.5t-97.5 -82t-56 -126t-14 -283.5q0 -219 13 -285.5t54 -120t100.5 -84t131.5 -30.5q129 0 214 87t85 222v76h-297v209h518 v-297q0 -217 -150.5 -367.5t-369.5 -150.5q-162 0 -279 75.5t-167 167t-62.5 172t-12.5 326.5z" />
<glyph unicode="H" horiz-adv-x="1327" d="M154 0v1458h221v-624h577v624h222v-1458h-222v637h-577v-637h-221z" />
<glyph unicode="I" horiz-adv-x="528" d="M154 0v1458h221v-1458h-221z" />
<glyph unicode="J" horiz-adv-x="985" d="M2 178l178 129q31 -45 81 -71.5t114 -26.5q98 0 175 65.5t77 200.5v983h221v-1005q0 -209 -140.5 -337t-326.5 -128q-121 0 -218 51t-161 139z" />
<glyph unicode="K" horiz-adv-x="1290" d="M154 0v1458h221v-751l604 751h262l-467 -575l516 -883h-262l-397 713l-256 -269v-444h-221z" />
<glyph unicode="L" horiz-adv-x="1138" d="M154 0v1458h221v-1249h710v-209h-931z" />
<glyph unicode="M" horiz-adv-x="1552" d="M154 0v1458h208l418 -950l410 950h209v-1458h-221v909l-310 -700h-184l-305 700l-4 -909h-221z" />
<glyph unicode="N" horiz-adv-x="1400" d="M154 0v1458h208l660 -1036l4 1036h221v-1458h-209l-659 1036l-4 -1036h-221z" />
<glyph unicode="O" horiz-adv-x="1249" d="M104 729q0 256 11.5 329.5t52.5 149.5q59 106 178 184t279 78q162 0 278.5 -75.5t166.5 -166.5t62.5 -172t12.5 -327q0 -256 -11.5 -329.5t-61.5 -165t-169 -169t-278 -77.5q-162 0 -279 75.5t-167 167t-62.5 172t-12.5 326.5zM326 729q0 -219 13 -286t60 -128 q35 -45 94.5 -75.5t131.5 -30.5q76 0 131 28.5t97 82t56.5 126t14.5 283.5q0 219 -13.5 285.5t-54.5 120t-100.5 84t-130.5 30.5q-76 0 -131.5 -28.5t-97.5 -82t-56 -126t-14 -283.5z" />
<glyph unicode="P" horiz-adv-x="1214" d="M154 0v1458h528q102 0 174 -19.5t148.5 -79t119.5 -147.5t43 -204q0 -172 -121.5 -305.5t-334.5 -133.5h-336v-569h-221zM375 778h327q115 0 179.5 71t64.5 165q0 70 -24.5 118t-64.5 73.5t-76 34.5t-87 9h-319v-471z" />
<glyph unicode="Q" horiz-adv-x="1249" d="M104 729q0 256 11.5 330t61.5 165t169 168.5t279 77.5q162 0 278.5 -75.5t166.5 -166.5t62.5 -172t12.5 -327q0 -236 -10.5 -315.5t-42.5 -141.5l192 -153l-131 -152l-184 148q-68 -57 -156 -92t-188 -35q-162 0 -279 75.5t-167 167t-62.5 172t-12.5 326.5zM326 729 q0 -219 13 -285.5t54 -120t100.5 -84t131.5 -30.5q47 0 89 13.5t74 37.5l-186 148l131 151l170 -135q20 70 21 305q0 219 -13.5 285.5t-54.5 120t-100.5 84t-130.5 30.5q-76 0 -131.5 -28.5t-97.5 -82t-56 -126t-14 -283.5z" />
<glyph unicode="R" horiz-adv-x="1249" d="M154 0v1458h569q94 0 166 -22.5t133 -75.5t102 -134t41 -175q0 -143 -73.5 -250t-208.5 -154l338 -647h-263l-301 623h-282v-623h-221zM375 819h334q119 0 183 66.5t64 165.5q0 57 -18 98t-66.5 77t-150.5 36h-346v-443z" />
<glyph unicode="S" horiz-adv-x="1175" d="M27 188l145 166q88 -70 191.5 -107.5t222.5 -37.5q133 0 210.5 55t77.5 148q0 82 -46 133t-144 63l-192 27q-186 27 -287 136.5t-101 272.5q0 190 126 308t350 118q127 0 246.5 -40.5t226.5 -110.5l-123 -182q-84 53 -175 82.5t-186 29.5q-106 0 -174.5 -54t-68.5 -155 q0 -68 51 -119t155 -67l164 -23q195 -23 297.5 -141.5t102.5 -277.5q0 -201 -136.5 -312.5t-375.5 -111.5q-330 0 -557 200z" />
<glyph unicode="T" d="M2 1262v196h1020v-196h-399v-1262h-222v1262h-399z" />
<glyph unicode="U" horiz-adv-x="1290" d="M127 494v964h221v-940q0 -147 83 -228t214 -81t214 81t83 228v940h221v-964q0 -225 -148.5 -365.5t-369.5 -140.5q-219 0 -368.5 141t-149.5 365z" />
<glyph unicode="V" horiz-adv-x="1138" d="M2 1458h234l331 -1110l336 1110h234l-482 -1458h-172z" />
<glyph unicode="W" horiz-adv-x="1703" d="M23 1458h233l229 -1036l287 1036h160l282 -1036l234 1036h233l-364 -1458h-184l-279 1051l-283 -1051h-184z" />
<glyph unicode="X" horiz-adv-x="1097" d="M-20 0l446 748l-418 710h250l291 -506l291 506h250l-418 -710l446 -748h-250l-319 543l-320 -543h-249z" />
<glyph unicode="Y" d="M-31 1458h234l309 -647l309 647h234l-439 -858v-600h-208v600z" />
<glyph unicode="Z" horiz-adv-x="1062" d="M66 0v184l661 1078h-635v196h905v-166l-663 -1083h663v-209h-931z" />
<glyph unicode="[" horiz-adv-x="569" d="M147 -209v1667h379v-135h-194v-1397h194v-135h-379z" />
<glyph unicode="\" horiz-adv-x="681" d="M16 1470h160l490 -1482h-160z" />
<glyph unicode="]" horiz-adv-x="569" d="M43 -74h195v1397h-195v135h379v-1667h-379v135z" />
<glyph unicode="^" horiz-adv-x="1228" d="M102 580l445 878h135l444 -878h-172l-340 706l-340 -706h-172z" />
<glyph unicode="_" d="M0 -154h1024v-102h-1024v102z" />
<glyph unicode="`" horiz-adv-x="491" d="M-59 1470h274l188 -299h-172z" />
<glyph unicode="a" d="M53 305q0 131 88 219t250 88h289v109q0 72 -49 102.5t-164 30.5q-84 0 -126 -16.5t-71 -63.5l-164 125q57 80 143.5 116t207.5 36q207 0 319.5 -79t112.5 -263v-709h-209v92q-35 -53 -96.5 -78.5t-163.5 -25.5q-170 0 -268.5 88t-98.5 229zM250 315q0 -57 48 -94t148 -37 q139 0 186.5 32t47.5 149v75h-250q-90 0 -135 -32.5t-45 -92.5z" />
<glyph unicode="b" horiz-adv-x="1062" d="M135 0v1458h209v-530q61 57 128 90t140 33q92 0 161 -35t115 -95.5t61.5 -139.5t15.5 -261q0 -193 -14.5 -266.5t-60.5 -133t-115.5 -96t-162.5 -36.5q-78 0 -146.5 31.5t-121.5 89.5v-109h-209zM344 520q0 -152 37 -237.5t168 -85.5t169 84t38 239q0 158 -37 240 t-170 82q-129 0 -167 -87.5t-38 -234.5z" />
<glyph unicode="c" horiz-adv-x="909" d="M55 518q0 268 135.5 400.5t335.5 132.5q111 0 206 -49.5t167 -131.5l-154 -137q-39 49 -93 79t-117 30q-131 0 -201 -78t-70 -246q0 -166 69.5 -243.5t201.5 -77.5q61 0 115.5 28.5t94.5 79.5l154 -137q-72 -84 -165 -132t-208 -48q-199 0 -335 132t-136 398z" />
<glyph unicode="d" horiz-adv-x="1062" d="M135 520q0 190 14.5 264t60.5 133.5t115.5 96.5t161.5 37q78 0 140.5 -31t128.5 -92v530h209v-1458h-209v109q-51 -55 -120 -88t-149 -33q-92 0 -160.5 34.5t-114.5 95t-61.5 139.5t-15.5 263zM344 520q0 -199 51 -261t156 -62q129 0 167 87t38 236q0 152 -37 237 t-168 85t-169 -84t-38 -238z" />
<glyph unicode="e" d="M84 516q0 279 126 407t302 128t302 -122t126 -317v-172h-647q0 -125 67.5 -190.5t180.5 -65.5q131 0 227 101l152 -129q-76 -88 -169.5 -128t-205.5 -40q-193 0 -327 119.5t-134 408.5zM293 612h438q0 115 -61.5 178.5t-157.5 63.5t-157.5 -63.5t-61.5 -178.5z" />
<glyph unicode="f" horiz-adv-x="569" d="M63 879v159h105v138q0 139 78 210.5t205 71.5h135v-196h-119q-51 0 -70.5 -19.5t-19.5 -66.5v-138h209v-159h-209v-879h-209v879h-105z" />
<glyph unicode="g" horiz-adv-x="1062" d="M98 518q0 205 14.5 273.5t59.5 126t114.5 95.5t164.5 38q152 0 268 -123v110h209v-1013q0 -223 -129 -340t-322 -117q-98 0 -193.5 47t-166.5 127l162 129q41 -41 93 -67.5t109 -26.5q106 0 172 59.5t66 165.5v107q-51 -55 -120 -88t-148 -33q-92 0 -162 36.5t-116 95 t-60.5 126t-14.5 272.5zM307 518q0 -127 6 -166t35 -76q27 -33 68 -56t98 -23q59 0 97 21.5t67 57t35 74.5t6 168q0 127 -6 167t-33 75t-69 58.5t-97 23.5q-59 0 -99 -22.5t-68 -57.5t-34 -74t-6 -170z" />
<glyph unicode="h" horiz-adv-x="1099" d="M135 0v1458h209v-530q104 123 274 123q133 0 240 -97.5t107 -263.5v-690h-209v618q0 104 -57.5 164t-147.5 60q-92 0 -149.5 -59.5t-57.5 -164.5v-618h-209z" />
<glyph unicode="i" horiz-adv-x="491" d="M141 0v1038h209v-1038h-209zM141 1249v209h209v-209h-209z" />
<glyph unicode="j" horiz-adv-x="528" d="M-14 -223h59q117 0 117 110v1151h209v-1167q0 -131 -84 -211t-219 -80h-82v197zM162 1249v209h209v-209h-209z" />
<glyph unicode="k" horiz-adv-x="1062" d="M135 0v1458h209v-907l404 487h249l-358 -405l408 -633h-263l-276 485l-164 -186v-299h-209z" />
<glyph unicode="l" horiz-adv-x="528" d="M135 252v1206h209v-1190q0 -71 76 -71h2h72v-197h-93q-123 0 -194.5 59.5t-71.5 192.5z" />
<glyph unicode="m" horiz-adv-x="1744" d="M147 0v1038h209v-110q104 123 275 123q98 0 162.5 -35t130.5 -101q123 135 327 136q133 0 239.5 -97.5t106.5 -263.5v-690h-208v618q0 104 -57.5 164t-147.5 60q-92 0 -149.5 -59.5t-57.5 -164.5v-618h-209v618q0 104 -57.5 164t-147.5 60q-92 0 -149.5 -59.5 t-57.5 -164.5v-618h-209z" />
<glyph unicode="n" horiz-adv-x="1099" d="M135 0v1038h209v-110q104 123 274 123q133 0 240 -97.5t107 -263.5v-690h-209v618q0 104 -57.5 164t-147.5 60q-92 0 -149.5 -59.5t-57.5 -164.5v-618h-209z" />
<glyph unicode="o" d="M84 520q0 168 23.5 247t89.5 151q53 57 127.5 95t187.5 38q109 0 186.5 -38t135 -101.5t82 -146.5t24.5 -245q0 -168 -23.5 -247.5t-83 -144.5t-134 -102.5t-187.5 -37.5q-109 0 -186.5 37.5t-135 101t-82 146.5t-24.5 247zM293 520q0 -113 10 -158t52 -105t157 -60 q53 0 98 20.5t72 58t38 88t11 154.5q0 113 -10 158t-41 90q-53 76 -168 76q-53 0 -98 -20.5t-72 -58.5t-38 -88t-11 -155z" />
<glyph unicode="p" horiz-adv-x="1062" d="M135 -420v1458h209v-108q51 55 119.5 88t148.5 33q92 0 161 -35t115 -95.5t61.5 -139.5t15.5 -263q0 -190 -14.5 -264t-60.5 -133.5t-115.5 -96t-162.5 -36.5q-78 0 -140 30.5t-128 92.5v-531h-209zM344 518q0 -152 37 -236.5t168 -84.5t169 83.5t38 237.5 q0 199 -51.5 261.5t-155.5 62.5q-129 0 -167 -87t-38 -237z" />
<glyph unicode="q" horiz-adv-x="1062" d="M98 518q0 193 14.5 266.5t60.5 133t115.5 96.5t162.5 37q78 0 146.5 -32t121.5 -89v108h209v-1458h-209v531q-61 -57 -128 -90t-140 -33q-92 0 -161 34.5t-115 95t-61.5 139.5t-15.5 261zM307 518q0 -158 37 -239.5t170 -81.5q129 0 167 87t38 234q0 152 -37 238t-168 86 t-169 -84t-38 -240z" />
<glyph unicode="r" horiz-adv-x="796" d="M135 0v1038h209v-110q104 123 274 123q63 0 113.5 -19.5t104.5 -60.5l-152 -180q-68 51 -137 51q-84 0 -143.5 -55.5t-59.5 -161.5v-625h-209z" />
<glyph unicode="s" horiz-adv-x="983" d="M20 174l146 143q70 -68 146.5 -100.5t181.5 -32.5q94 0 149 34t55 99q0 51 -33.5 75t-93.5 28l-184 16q-131 0 -215 82t-84 213q0 154 106.5 237t280.5 83q133 0 228.5 -35t179.5 -107l-129 -151q-68 47 -132.5 71.5t-146.5 24.5q-96 0 -137 -33t-41 -92 q0 -39 32.5 -68.5t104.5 -29.5l172 -13q154 0 227.5 -87t73.5 -224q0 -150 -120.5 -234.5t-309.5 -84.5q-258 0 -457 186z" />
<glyph unicode="t" horiz-adv-x="569" d="M43 879v159h104v316h209v-316h152v-159h-152v-605q0 -77 72 -77h2h78v-197h-109q-113 0 -182.5 67.5t-69.5 188.5v623h-104z" />
<glyph unicode="u" horiz-adv-x="1099" d="M135 348v690h209v-618q0 -104 57.5 -163.5t149.5 -59.5q90 0 147.5 59t57.5 164v618h209v-1038h-209v111q-104 -123 -273 -123q-135 0 -241.5 97t-106.5 263z" />
<glyph unicode="v" horiz-adv-x="909" d="M-12 1038h221l244 -727l247 727h222l-381 -1038h-172z" />
<glyph unicode="w" horiz-adv-x="1478" d="M4 1038h221l199 -727l240 727h151l236 -727l202 727h222l-332 -1038h-185l-217 727l-221 -727h-184z" />
<glyph unicode="x" horiz-adv-x="983" d="M20 0l355 530l-340 508h250l207 -336l206 336h250l-340 -508l355 -530h-250l-221 346l-222 -346h-250z" />
<glyph unicode="y" horiz-adv-x="909" d="M-14 1038h221l246 -727l249 727h222l-447 -1253q-41 -113 -114.5 -159t-178.5 -46h-69v197h61q43 0 77 22.5t48 67.5l57 174z" />
<glyph unicode="z" horiz-adv-x="909" d="M68 0v166l520 688h-492v184h746v-166l-520 -675h520v-197h-774z" />
<glyph unicode="{" horiz-adv-x="569" d="M29 557v135q76 0 117.5 69.5t41.5 176.5v293q0 104 57.5 165.5t143.5 61.5h174v-135h-100q-47 0 -68.5 -48t-21.5 -122v-264q0 -117 -55.5 -182.5t-104.5 -79.5q31 -12 95.5 -68.5t64.5 -200.5v-262q0 -72 22.5 -121t67.5 -49h100v-135h-174q-86 0 -143.5 61.5 t-57.5 165.5v289q0 106 -42 178t-117 72z" />
<glyph unicode="|" horiz-adv-x="454" d="M147 -12v1482h160v-1482h-160z" />
<glyph unicode="}" horiz-adv-x="569" d="M6 -74h100q47 0 69 48.5t22 121.5v264q0 117 55 182.5t104 80.5q-31 12 -95 68.5t-64 199.5v262q0 72 -22.5 121t-68.5 49h-100v135h174q86 0 143.5 -61.5t57.5 -165.5v-289q0 -106 42 -178t118 -72v-135q-76 0 -118 -69.5t-42 -176.5v-293q0 -104 -57.5 -165.5 t-143.5 -61.5h-174v135z" />
<glyph unicode="~" horiz-adv-x="1228" d="M141 489q41 80 101.5 129.5t154.5 49.5q53 0 102.5 -15.5t122 -50.5t124 -55.5t88.5 -20.5q53 0 94 39t86 109l73 -129q-41 -80 -101 -129t-155 -49q-47 0 -100 17t-118.5 46t-124 53.5t-93.5 24.5q-63 0 -103 -46t-77 -100z" />
<glyph unicode="&#xa1;" horiz-adv-x="528" d="M133 -420l80 1098h104l78 -1098h-262zM160 829v209h209v-209h-209z" />
<glyph unicode="&#xa2;" horiz-adv-x="983" d="M70 518q0 254 124.5 393.5t303.5 139.5v186h82v-186q106 -12 187 -57.5t146 -123.5l-153 -137q-33 41 -78 68.5t-102 40.5v-645q61 12 102 37.5t78 70.5l153 -137q-63 -74 -146 -121t-187 -59v-187h-82v187q-178 0 -303 138t-125 392zM279 518q0 -150 56 -227.5 t163 -93.5v645q-106 -16 -162.5 -94t-56.5 -230z" />
<glyph unicode="&#xa3;" horiz-adv-x="983" d="M59 614v136h113q-37 80 -54.5 155.5t-17.5 151.5q0 188 106.5 300.5t274.5 112.5q199 0 302.5 -113.5t103.5 -305.5h-209q0 109 -49 166t-133 57q-86 0 -136.5 -58.5t-50.5 -162.5q0 -74 19.5 -155t52.5 -148h330v-136h-279q14 -45 25.5 -95t11.5 -85q0 -55 -15.5 -107.5 t-47.5 -113.5q92 -14 147 -21.5t82 -7.5q51 0 102 15.5t97 52.5l129 -162q-63 -53 -142.5 -77.5t-154.5 -24.5q-37 0 -193 20.5t-207 20.5q-47 0 -87 -8.5t-93 -32.5v196q70 41 150 41q16 47 26 90t10 84q0 43 -17 107.5t-32 107.5h-164z" />
<glyph unicode="&#xa4;" horiz-adv-x="983" d="M31 375l100 102q-33 41 -55.5 109.5t-22.5 142.5q0 156 78 254l-100 100l108 107l101 -100q45 37 112.5 58t141.5 21q76 0 137 -19.5t114 -57.5l101 98l106 -107l-98 -100q37 -49 58.5 -113.5t21.5 -140.5q0 -74 -21.5 -141.5t-58.5 -112.5l98 -100l-106 -107l-101 101 q-47 -37 -112.5 -58.5t-138.5 -21.5q-76 0 -140.5 21.5t-113.5 58.5l-101 -101zM213 729q0 -135 77 -214t204 -79t203.5 79t76.5 214t-76.5 214t-203.5 79t-204 -79t-77 -214z" />
<glyph unicode="&#xa5;" horiz-adv-x="983" d="M-29 1458h222l299 -647l299 647h221l-328 -667h213v-136h-279l-28 -55v-137h307v-135h-307v-328h-197v328h-307v135h307v137l-28 55h-279v136h213z" />
<glyph unicode="&#xa6;" horiz-adv-x="454" d="M147 -12v555h160v-555h-160zM147 915v555h160v-555h-160z" />
<glyph unicode="&#xa7;" horiz-adv-x="983" d="M94 551q0 145 39 218t162 126q-76 43 -105.5 98.5t-29.5 145.5q0 143 95 236t237 93q147 0 243 -89t96 -263h-184q0 76 -40 122t-115 46q-74 0 -111 -38t-37 -91q0 -66 42 -96.5t197.5 -80.5t230.5 -130t75 -273q0 -135 -35 -203.5t-158 -133.5q88 -37 123 -102.5 t35 -160.5q0 -164 -108.5 -266t-264.5 -102q-145 0 -245.5 102.5t-100.5 270.5h184q0 -80 46.5 -128.5t130.5 -48.5q70 0 115.5 42t45.5 118t-34.5 106.5t-171.5 77.5l-78 27q-164 57 -221.5 137t-57.5 240zM303 567q0 -61 7 -95t27.5 -64.5t59.5 -52t95 -21.5 q55 0 92.5 20.5t60.5 53.5q23 31 29 63.5t6 95.5q0 74 -8 103.5t-33 60.5t-60.5 48.5t-86.5 17.5q-49 0 -87 -17.5t-60.5 -46t-32 -62.5t-9.5 -104z" />
<glyph unicode="&#xa8;" horiz-adv-x="491" d="M-45 1200v221h221v-221h-221zM315 1200v221h222v-221h-222z" />
<glyph unicode="&#xa9;" horiz-adv-x="1638" d="M78 729q0 307 217 524t524 217t524.5 -217t217.5 -524t-217.5 -524t-524.5 -217t-524 217t-217 524zM238 729q0 -258 165.5 -426t415.5 -168q252 0 417 167t165 427q0 258 -166 426t-416 168q-252 0 -416.5 -167t-164.5 -427zM395 729q0 213 118 343t327 130 q154 0 257 -85t124 -249h-148q-16 82 -80.5 134.5t-150.5 52.5q-131 0 -209 -92.5t-78 -229.5q0 -135 80 -232.5t211 -97.5q86 0 149.5 55.5t77.5 141.5h148q-27 -162 -127.5 -253t-247.5 -91q-205 0 -328 133t-123 340z" />
<glyph unicode="&#xaa;" horiz-adv-x="665" d="M12 1016q0 88 57.5 145.5t153.5 57.5h230v36q0 49 -38 64.5t-102 15.5q-74 0 -103.5 -10t-47.5 -37l-107 90q39 53 96.5 72.5t155.5 19.5q152 0 228.5 -46t76.5 -158v-426h-159v59q-49 -68 -168 -68q-137 0 -205 52.5t-68 132.5zM172 1028q0 -31 39 -46t88 -15 q98 0 126 18.5t28 73.5v37h-164q-55 0 -86 -15.5t-31 -52.5z" />
<glyph unicode="&#xab;" horiz-adv-x="983" d="M96 567l418 414v-209l-209 -205l209 -205v-208zM469 567l418 414v-209l-209 -205l209 -205v-208z" />
<glyph unicode="&#xac;" horiz-adv-x="1228" d="M96 643v160h1037v-582h-160v422h-877z" />
<glyph unicode="&#xad;" horiz-adv-x="833" d="M109 463v209h616v-209h-616z" />
<glyph unicode="&#xae;" horiz-adv-x="1638" d="M78 729q0 307 217 524t524 217t524.5 -217t217.5 -524t-217.5 -524t-524.5 -217t-524 217t-217 524zM238 729q0 -258 165.5 -426t415.5 -168q252 0 417 167t165 427q0 258 -166 426t-416 168q-252 0 -416.5 -167t-164.5 -427zM539 317v865h327q152 0 224.5 -62.5 t72.5 -195.5q0 -121 -61.5 -180.5t-159.5 -71.5l248 -355h-172l-248 351h-84v-351h-147zM686 803h102q115 0 171.5 21.5t56.5 99.5q0 68 -55.5 95.5t-139.5 27.5h-135v-244z" />
<glyph unicode="&#xb0;" horiz-adv-x="819" d="M117 1178q0 121 86 206.5t207 85.5t206.5 -86t85.5 -206q0 -121 -86 -207t-206 -86q-121 0 -207 86t-86 207zM221 1178q0 -78 55.5 -133.5t133.5 -55.5t133 55.5t55 133.5t-55.5 133t-132.5 55q-78 0 -133.5 -55.5t-55.5 -132.5z" />
<glyph unicode="&#xb1;" horiz-adv-x="1228" d="M96 0v160h1037v-160h-1037zM96 580v159h439v297h159v-297h439v-159h-439v-297h-159v297h-439z" />
<glyph unicode="&#xb2;" horiz-adv-x="638" d="M31 588v147l360 385q23 25 34 47.5t11 51.5q0 49 -29.5 76.5t-82.5 27.5q-115 0 -115 -127h-172q0 123 80 198.5t200 75.5q125 0 208 -72.5t83 -178.5q0 -49 -13 -86t-52 -78l-303 -320h368v-147h-577z" />
<glyph unicode="&#xb3;" horiz-adv-x="638" d="M10 825h172q35 -98 140 -98q59 0 97 32t38 85q0 55 -42 91t-106 36h-76v135h66q70 0 108.5 29.5t38.5 83.5q0 43 -34.5 73.5t-85.5 30.5t-88 -25.5t-50 -80.5h-172q0 111 84 182t207 71q145 0 228 -72.5t83 -176.5q0 -55 -22.5 -101.5t-81.5 -79.5q59 -33 87 -84t28 -108 q0 -121 -87 -194.5t-231 -73.5q-125 0 -202.5 61t-98.5 184z" />
<glyph unicode="&#xb4;" horiz-adv-x="491" d="M88 1171l188 299h275l-291 -299h-172z" />
<glyph unicode="&#xb5;" horiz-adv-x="1099" d="M135 -420v1458h209v-618q0 -104 57.5 -163.5t149.5 -59.5q90 0 147.5 59t57.5 164v618h209v-1038h-209v111q-104 -123 -273 -123q-72 0 -139 30v-438h-209z" />
<glyph unicode="&#xb6;" horiz-adv-x="1228" d="M98 1065q0 197 122 295t345 98h430v-1837h-159v1702h-148v-1702h-160v1063q-186 0 -308 109.5t-122 271.5z" />
<glyph unicode="&#xb8;" horiz-adv-x="491" d="M10 -414l37 86q29 -10 71 -20t72 -10q119 0 119 86q0 45 -35.5 60t-64.5 15q-41 0 -78 -22l-45 39l129 180h104l-90 -123q33 8 60 8q84 0 132 -44t48 -111q0 -94 -72.5 -143.5t-179.5 -49.5q-43 0 -97 13.5t-110 35.5z" />
<glyph unicode="&#xb9;" horiz-adv-x="638" d="M104 1200v172l136 90h172v-874h-172v702z" />
<glyph unicode="&#xba;" horiz-adv-x="665" d="M31 1151q0 96 12 140t53 89q82 90 238 90q78 0 135 -21.5t99 -66.5t54.5 -89t12.5 -142q0 -96 -12.5 -140t-74 -112t-216.5 -68q-78 0 -135.5 21.5t-99.5 67t-54 89.5t-12 142zM190 1151q0 -61 5.5 -85.5t25.5 -49.5q39 -49 111 -49q74 0 104.5 37.5t34.5 60t4 86.5 q0 61 -5 86t-34.5 61.5t-101.5 36.5q-74 0 -104.5 -37.5t-35 -60.5t-4.5 -86z" />
<glyph unicode="&#xbb;" horiz-adv-x="983" d="M96 154v208l209 205l-209 205v209l418 -414zM469 154v208l209 205l-209 205v209l418 -414z" />
<glyph unicode="&#xbc;" horiz-adv-x="1476" d="M104 1200v172l136 90h172v-874h-172v702zM199 -35l882 1528h136l-883 -1528h-135zM770 127v147l317 596h173l-312 -596h223v226h172v-226h68v-147h-68v-127h-172v127h-401z" />
<glyph unicode="&#xbd;" horiz-adv-x="1476" d="M104 1200v172l136 90h172v-874h-172v702zM147 -35l883 1528h135l-882 -1528h-136zM834 0v147l360 385q23 25 34 47.5t11 51.5q0 49 -29.5 76.5t-83.5 27.5q-115 0 -114 -127h-172q0 123 79.5 199t200.5 76q125 0 208 -73t83 -179q0 -49 -13.5 -86t-51.5 -78l-304 -320 h369v-147h-577z" />
<glyph unicode="&#xbe;" horiz-adv-x="1476" d="M10 825h172q35 -98 140 -98q59 0 97 32t38 85q0 55 -42 91t-106 36h-76v135h66q70 0 108.5 29.5t38.5 83.5q0 43 -34.5 73.5t-85.5 30.5t-88 -25.5t-50 -80.5h-172q0 111 84 182t207 71q145 0 228 -72.5t83 -176.5q0 -55 -22.5 -101.5t-81.5 -79.5q59 -33 87 -84t28 -108 q0 -121 -87 -194.5t-231 -73.5q-125 0 -202.5 61t-98.5 184zM260 -35l883 1528h135l-883 -1528h-135zM770 127v147l317 596h173l-312 -596h223v226h172v-226h68v-147h-68v-127h-172v127h-401z" />
<glyph unicode="&#xbf;" horiz-adv-x="948" d="M106 -39q0 123 66 215l186 256q23 29 29 55.5t6 73.5v117h209v-133q0 -51 -6 -95t-47 -102l-182 -254q-51 -70 -52 -135q0 -80 55.5 -131t121.5 -51q84 0 136 53t52 170h209v-41q0 -164 -113.5 -277.5t-273.5 -113.5t-278 109.5t-118 283.5zM393 829v209h209v-209h-209z " />
<glyph unicode="&#xc0;" horiz-adv-x="1249" d="M2 0l530 1458h185l530 -1458h-233l-113 326h-553l-112 -326h-234zM320 1828h274l188 -299h-172zM412 522h426l-211 637z" />
<glyph unicode="&#xc1;" horiz-adv-x="1249" d="M2 0l530 1458h185l530 -1458h-233l-113 326h-553l-112 -326h-234zM412 522h426l-211 637zM467 1529l188 299h275l-291 -299h-172z" />
<glyph unicode="&#xc2;" horiz-adv-x="1249" d="M2 0l530 1458h185l530 -1458h-233l-113 326h-553l-112 -326h-234zM291 1529l217 299h233l218 -299h-197l-137 177l-137 -177h-197zM412 522h426l-211 637z" />
<glyph unicode="&#xc3;" horiz-adv-x="1249" d="M2 0l530 1458h185l530 -1458h-233l-113 326h-553l-112 -326h-234zM260 1550q14 109 76.5 173.5t155.5 64.5q45 0 148.5 -39t129.5 -39q35 0 60.5 19.5t35.5 70.5h123q-18 -102 -74.5 -170t-150.5 -68q-57 0 -158.5 38t-136.5 38q-29 0 -57.5 -21.5t-28.5 -66.5h-123z M412 522h426l-211 637z" />
<glyph unicode="&#xc4;" horiz-adv-x="1249" d="M2 0l530 1458h185l530 -1458h-233l-113 326h-553l-112 -326h-234zM334 1558v221h221v-221h-221zM412 522h426l-211 637zM694 1558v221h222v-221h-222z" />
<glyph unicode="&#xc5;" horiz-adv-x="1249" d="M2 0l530 1458h185l530 -1458h-233l-113 326h-553l-112 -326h-234zM412 522h426l-211 637zM414 1710q0 88 61.5 149.5t149.5 61.5t149.5 -61.5t61.5 -149.5t-61.5 -149.5t-149.5 -61.5t-149.5 61.5t-61.5 149.5zM496 1710q0 -55 37 -92t92 -37t92 36.5t37 92.5 q0 55 -37 92t-92 37t-92 -37t-37 -92z" />
<glyph unicode="&#xc6;" horiz-adv-x="1857" d="M-23 0l793 1458h1034v-209h-710v-415h606v-197h-606v-428h710v-209h-932v326h-485l-176 -326h-234zM492 522h380v740z" />
<glyph unicode="&#xc7;" horiz-adv-x="1138" d="M104 729q0 256 11.5 330t61.5 165t169 168.5t279 77.5q199 0 338 -122.5t174 -309.5h-234q-27 88 -102.5 149.5t-175.5 61.5q-76 0 -131.5 -28.5t-97.5 -82t-56 -126t-14 -283.5q0 -219 13 -285.5t54 -120t100.5 -84t131.5 -30.5q186 0 278 199h234q-37 -180 -153 -287 t-284 -129l-86 -115q33 8 60 8q84 0 132 -44t48 -111q0 -94 -72.5 -143.5t-179.5 -49.5q-43 0 -97 13.5t-110 35.5l37 86q29 -10 71 -20t72 -10q119 0 119 86q0 45 -35.5 60t-64.5 15q-41 0 -78 -22l-45 39l123 168q-145 0 -256 77.5t-160 167t-61.5 170t-12.5 326.5z" />
<glyph unicode="&#xc8;" horiz-adv-x="1138" d="M154 0v1458h931v-209h-710v-415h606v-197h-606v-428h710v-209h-931zM326 1828h274l188 -299h-172z" />
<glyph unicode="&#xc9;" horiz-adv-x="1138" d="M154 0v1458h931v-209h-710v-415h606v-197h-606v-428h710v-209h-931zM473 1529l188 299h275l-291 -299h-172z" />
<glyph unicode="&#xca;" horiz-adv-x="1138" d="M154 0v1458h931v-209h-710v-415h606v-197h-606v-428h710v-209h-931zM297 1529l217 299h233l218 -299h-197l-137 177l-137 -177h-197z" />
<glyph unicode="&#xcb;" horiz-adv-x="1138" d="M154 0v1458h931v-209h-710v-415h606v-197h-606v-428h710v-209h-931zM340 1558v221h221v-221h-221zM700 1558v221h222v-221h-222z" />
<glyph unicode="&#xcc;" horiz-adv-x="528" d="M-41 1828h274l188 -299h-172zM154 0v1458h221v-1458h-221z" />
<glyph unicode="&#xcd;" horiz-adv-x="528" d="M106 1529l188 299h275l-291 -299h-172zM154 0v1458h221v-1458h-221z" />
<glyph unicode="&#xce;" horiz-adv-x="528" d="M-70 1529l217 299h233l218 -299h-197l-137 177l-137 -177h-197zM154 0v1458h221v-1458h-221z" />
<glyph unicode="&#xcf;" horiz-adv-x="528" d="M-27 1558v221h221v-221h-221zM154 0v1458h221v-1458h-221zM333 1558v221h222v-221h-222z" />
<glyph unicode="&#xd0;" horiz-adv-x="1290" d="M0 637v197h154v624h510q145 0 258.5 -62.5t176 -168t75 -185t12.5 -313.5q0 -238 -15.5 -322.5t-76 -179t-175 -161t-270.5 -66.5h-495v637h-154zM375 209h264q184 0 244.5 90t71 157.5t10.5 264.5q0 203 -11.5 274.5t-58.5 135t-105.5 91t-150.5 27.5h-264v-415h278 v-197h-278v-428z" />
<glyph unicode="&#xd1;" horiz-adv-x="1400" d="M154 0v1458h208l660 -1036l4 1036h221v-1458h-209l-659 1036l-4 -1036h-221zM336 1550q14 109 76.5 173.5t155.5 64.5q45 0 148.5 -39t129.5 -39q35 0 60.5 19.5t35.5 70.5h123q-18 -102 -74.5 -170t-150.5 -68q-57 0 -158.5 38t-136.5 38q-29 0 -57.5 -21.5t-28.5 -66.5 h-123z" />
<glyph unicode="&#xd2;" horiz-adv-x="1249" d="M104 729q0 256 11.5 329.5t52.5 149.5q59 106 178 184t279 78q162 0 278.5 -75.5t166.5 -166.5t62.5 -172t12.5 -327q0 -256 -11.5 -329.5t-61.5 -165t-169 -169t-278 -77.5q-162 0 -279 75.5t-167 167t-62.5 172t-12.5 326.5zM320 1828h274l188 -299h-172zM326 729 q0 -219 13 -286t60 -128q35 -45 94.5 -75.5t131.5 -30.5q76 0 131 28.5t97 82t56.5 126t14.5 283.5q0 219 -13.5 285.5t-54.5 120t-100.5 84t-130.5 30.5q-76 0 -131.5 -28.5t-97.5 -82t-56 -126t-14 -283.5z" />
<glyph unicode="&#xd3;" horiz-adv-x="1249" d="M104 729q0 256 11.5 329.5t52.5 149.5q59 106 178 184t279 78q162 0 278.5 -75.5t166.5 -166.5t62.5 -172t12.5 -327q0 -256 -11.5 -329.5t-61.5 -165t-169 -169t-278 -77.5q-162 0 -279 75.5t-167 167t-62.5 172t-12.5 326.5zM326 729q0 -219 13 -286t60 -128 q35 -45 94.5 -75.5t131.5 -30.5q76 0 131 28.5t97 82t56.5 126t14.5 283.5q0 219 -13.5 285.5t-54.5 120t-100.5 84t-130.5 30.5q-76 0 -131.5 -28.5t-97.5 -82t-56 -126t-14 -283.5zM467 1529l188 299h275l-291 -299h-172z" />
<glyph unicode="&#xd4;" horiz-adv-x="1249" d="M104 729q0 256 11.5 329.5t52.5 149.5q59 106 178 184t279 78q162 0 278.5 -75.5t166.5 -166.5t62.5 -172t12.5 -327q0 -256 -11.5 -329.5t-61.5 -165t-169 -169t-278 -77.5q-162 0 -279 75.5t-167 167t-62.5 172t-12.5 326.5zM291 1529l217 299h233l218 -299h-197 l-137 177l-137 -177h-197zM326 729q0 -219 13 -286t60 -128q35 -45 94.5 -75.5t131.5 -30.5q76 0 131 28.5t97 82t56.5 126t14.5 283.5q0 219 -13.5 285.5t-54.5 120t-100.5 84t-130.5 30.5q-76 0 -131.5 -28.5t-97.5 -82t-56 -126t-14 -283.5z" />
<glyph unicode="&#xd5;" horiz-adv-x="1249" d="M104 729q0 256 11.5 329.5t52.5 149.5q59 106 178 184t279 78q162 0 278.5 -75.5t166.5 -166.5t62.5 -172t12.5 -327q0 -256 -11.5 -329.5t-61.5 -165t-169 -169t-278 -77.5q-162 0 -279 75.5t-167 167t-62.5 172t-12.5 326.5zM260 1550q14 109 76.5 173.5t155.5 64.5 q45 0 148.5 -39t129.5 -39q35 0 60.5 19.5t35.5 70.5h123q-18 -102 -74.5 -170t-150.5 -68q-57 0 -158.5 38t-136.5 38q-29 0 -57.5 -21.5t-28.5 -66.5h-123zM326 729q0 -219 13 -286t60 -128q35 -45 94.5 -75.5t131.5 -30.5q76 0 131 28.5t97 82t56.5 126t14.5 283.5 q0 219 -13.5 285.5t-54.5 120t-100.5 84t-130.5 30.5q-76 0 -131.5 -28.5t-97.5 -82t-56 -126t-14 -283.5z" />
<glyph unicode="&#xd6;" horiz-adv-x="1249" d="M104 729q0 256 11.5 329.5t52.5 149.5q59 106 178 184t279 78q162 0 278.5 -75.5t166.5 -166.5t62.5 -172t12.5 -327q0 -256 -11.5 -329.5t-61.5 -165t-169 -169t-278 -77.5q-162 0 -279 75.5t-167 167t-62.5 172t-12.5 326.5zM326 729q0 -219 13 -286t60 -128 q35 -45 94.5 -75.5t131.5 -30.5q76 0 131 28.5t97 82t56.5 126t14.5 283.5q0 219 -13.5 285.5t-54.5 120t-100.5 84t-130.5 30.5q-76 0 -131.5 -28.5t-97.5 -82t-56 -126t-14 -283.5zM334 1558v221h221v-221h-221zM694 1558v221h222v-221h-222z" />
<glyph unicode="&#xd7;" horiz-adv-x="1228" d="M137 156l367 362l-367 365l113 114l364 -366l363 366l115 -114l-367 -365l367 -362l-115 -113l-363 367l-364 -367z" />
<glyph unicode="&#xd8;" horiz-adv-x="1249" d="M104 729q0 256 11.5 330t61.5 165t169 168.5t279 77.5q86 0 159.5 -23.5t139.5 -66.5l100 181l94 -52l-110 -200q43 -45 77.5 -108.5t47 -144.5t12.5 -327q0 -256 -11.5 -329.5t-61.5 -165t-169 -169t-278 -77.5q-90 0 -163 23.5t-138 70.5l-103 -184l-94 51l113 203 q-20 23 -36 43t-45.5 73.5t-42 134t-12.5 326.5zM326 729q0 -178 6 -244.5t30 -111.5l451 809q-37 33 -84 50t-104 17q-76 0 -131.5 -28.5t-97.5 -82t-56 -126t-14 -283.5zM434 281q35 -33 83 -52.5t108 -19.5q76 0 131 28.5t97 82t56.5 126t14.5 283.5q0 186 -7.5 249.5 t-31.5 111.5z" />
<glyph unicode="&#xd9;" horiz-adv-x="1290" d="M127 494v964h221v-940q0 -147 83 -228t214 -81t214 81t83 228v940h221v-964q0 -225 -148.5 -365.5t-369.5 -140.5q-219 0 -368.5 141t-149.5 365zM340 1828h274l188 -299h-172z" />
<glyph unicode="&#xda;" horiz-adv-x="1290" d="M127 494v964h221v-940q0 -147 83 -228t214 -81t214 81t83 228v940h221v-964q0 -225 -148.5 -365.5t-369.5 -140.5q-219 0 -368.5 141t-149.5 365zM487 1529l188 299h275l-291 -299h-172z" />
<glyph unicode="&#xdb;" horiz-adv-x="1290" d="M127 494v964h221v-940q0 -147 83 -228t214 -81t214 81t83 228v940h221v-964q0 -225 -148.5 -365.5t-369.5 -140.5q-219 0 -368.5 141t-149.5 365zM311 1529l217 299h233l218 -299h-197l-137 177l-137 -177h-197z" />
<glyph unicode="&#xdc;" horiz-adv-x="1290" d="M127 494v964h221v-940q0 -147 83 -228t214 -81t214 81t83 228v940h221v-964q0 -225 -148.5 -365.5t-369.5 -140.5q-219 0 -368.5 141t-149.5 365zM354 1558v221h221v-221h-221zM714 1558v221h222v-221h-222z" />
<glyph unicode="&#xdd;" d="M-31 1458h234l309 -647l309 647h234l-439 -858v-600h-208v600zM354 1529l188 299h275l-291 -299h-172z" />
<glyph unicode="&#xde;" horiz-adv-x="1214" d="M154 0v1458h221v-254h336q211 0 333.5 -135t122.5 -309t-122.5 -309.5t-333.5 -135.5h-336v-315h-221zM375 524h332q106 0 172.5 73t66.5 163t-66.5 162.5t-174.5 72.5h-330v-471z" />
<glyph unicode="&#xdf;" horiz-adv-x="1099" d="M131 0v1130q0 166 119 253t317 87q178 0 290 -95t112 -251q0 -84 -38 -142t-112 -89q150 -59 150 -227v-371q0 -127 -80 -211t-209 -84h-129v197h74q76 0 105.5 23.5t29.5 84.5v365q0 121 -115 121h-121v196h125q53 0 82 27.5t29 93.5q0 43 -6 67.5t-26.5 43t-73 31 t-107.5 12.5q-111 0 -159 -33t-48 -99v-1130h-209z" />
<glyph unicode="&#xe0;" d="M53 305q0 131 88 219t250 88h289v109q0 72 -49 102.5t-164 30.5q-84 0 -126 -16.5t-71 -63.5l-164 125q57 80 143.5 116t207.5 36q207 0 319.5 -79t112.5 -263v-709h-209v92q-35 -53 -96.5 -78.5t-163.5 -25.5q-170 0 -268.5 88t-98.5 229zM207 1470h274l188 -299h-172z M250 315q0 -57 48 -94t148 -37q139 0 186.5 32t47.5 149v75h-250q-90 0 -135 -32.5t-45 -92.5z" />
<glyph unicode="&#xe1;" d="M53 305q0 131 88 219t250 88h289v109q0 72 -49 102.5t-164 30.5q-84 0 -126 -16.5t-71 -63.5l-164 125q57 80 143.5 116t207.5 36q207 0 319.5 -79t112.5 -263v-709h-209v92q-35 -53 -96.5 -78.5t-163.5 -25.5q-170 0 -268.5 88t-98.5 229zM250 315q0 -57 48 -94t148 -37 q139 0 186.5 32t47.5 149v75h-250q-90 0 -135 -32.5t-45 -92.5zM354 1171l188 299h275l-291 -299h-172z" />
<glyph unicode="&#xe2;" d="M53 305q0 131 88 219t250 88h289v109q0 72 -49 102.5t-164 30.5q-84 0 -126 -16.5t-71 -63.5l-164 125q57 80 143.5 116t207.5 36q207 0 319.5 -79t112.5 -263v-709h-209v92q-35 -53 -96.5 -78.5t-163.5 -25.5q-170 0 -268.5 88t-98.5 229zM178 1171l217 299h233 l218 -299h-197l-137 177l-137 -177h-197zM250 315q0 -57 48 -94t148 -37q139 0 186.5 32t47.5 149v75h-250q-90 0 -135 -32.5t-45 -92.5z" />
<glyph unicode="&#xe3;" d="M53 305q0 131 88 219t250 88h289v109q0 72 -49 102.5t-164 30.5q-84 0 -126 -16.5t-71 -63.5l-164 125q57 80 143.5 116t207.5 36q207 0 319.5 -79t112.5 -263v-709h-209v92q-35 -53 -96.5 -78.5t-163.5 -25.5q-170 0 -268.5 88t-98.5 229zM147 1192q14 109 76.5 173.5 t155.5 64.5q45 0 148.5 -39t129.5 -39q35 0 60.5 19.5t35.5 70.5h123q-18 -102 -74.5 -170t-150.5 -68q-57 0 -158.5 38t-136.5 38q-29 0 -57.5 -21.5t-28.5 -66.5h-123zM250 315q0 -57 48 -94t148 -37q139 0 186.5 32t47.5 149v75h-250q-90 0 -135 -32.5t-45 -92.5z" />
<glyph unicode="&#xe4;" d="M53 305q0 131 88 219t250 88h289v109q0 72 -49 102.5t-164 30.5q-84 0 -126 -16.5t-71 -63.5l-164 125q57 80 143.5 116t207.5 36q207 0 319.5 -79t112.5 -263v-709h-209v92q-35 -53 -96.5 -78.5t-163.5 -25.5q-170 0 -268.5 88t-98.5 229zM221 1200v221h221v-221h-221z M250 315q0 -57 48 -94t148 -37q139 0 186.5 32t47.5 149v75h-250q-90 0 -135 -32.5t-45 -92.5zM581 1200v221h222v-221h-222z" />
<glyph unicode="&#xe5;" d="M53 305q0 131 88 219t250 88h289v109q0 72 -49 102.5t-164 30.5q-84 0 -126 -16.5t-71 -63.5l-164 125q57 80 143.5 116t207.5 36q207 0 319.5 -79t112.5 -263v-709h-209v92q-35 -53 -96.5 -78.5t-163.5 -25.5q-170 0 -268.5 88t-98.5 229zM250 315q0 -57 48 -94t148 -37 q139 0 186.5 32t47.5 149v75h-250q-90 0 -135 -32.5t-45 -92.5zM301 1352q0 88 61.5 149.5t149.5 61.5t149.5 -61.5t61.5 -149.5t-61.5 -149.5t-149.5 -61.5t-149.5 61.5t-61.5 149.5zM383 1352q0 -55 37 -92t92 -37t92 36.5t37 92.5q0 55 -37 92t-92 37t-92 -37t-37 -92z " />
<glyph unicode="&#xe6;" horiz-adv-x="1593" d="M39 305q0 123 84 215t227 92h316v109q0 72 -49.5 102.5t-163.5 30.5q-84 0 -126 -16.5t-71 -63.5l-164 125q57 80 143.5 116t206.5 36q129 0 209 -30t129 -101q43 61 127 96t174 35q176 0 302 -122t126 -317v-172h-647q0 -125 67.5 -190.5t180.5 -65.5q131 0 227 101 l152 -129q-76 -88 -169 -128t-206 -40q-119 0 -206 34.5t-156 124.5q-55 -84 -142.5 -121.5t-187.5 -37.5q-172 0 -277.5 82t-105.5 235zM236 315q0 -57 48 -94t148 -37q139 0 186.5 32t47.5 149v75h-250q-90 0 -135 -32.5t-45 -92.5zM862 612h438q0 115 -61 178.5 t-158 63.5q-96 0 -157.5 -63.5t-61.5 -178.5z" />
<glyph unicode="&#xe7;" horiz-adv-x="909" d="M55 518q0 268 135.5 400.5t335.5 132.5q111 0 206 -49.5t167 -131.5l-154 -137q-39 49 -93 79t-117 30q-131 0 -201 -78t-70 -246q0 -166 69.5 -243.5t201.5 -77.5q61 0 115.5 28.5t94.5 79.5l154 -137q-59 -70 -136 -117t-167 -61l-86 -113q33 8 59 8q84 0 132.5 -44 t48.5 -111q0 -94 -73 -143.5t-179 -49.5q-43 0 -97.5 13.5t-109.5 35.5l37 86q29 -10 70.5 -20t72.5 -10q119 0 119 86q0 45 -36 60t-65 15q-41 0 -77 -22l-45 39l122 168q-182 0 -308 137t-126 393z" />
<glyph unicode="&#xe8;" d="M84 516q0 279 126 407t302 128t302 -122t126 -317v-172h-647q0 -125 67.5 -190.5t180.5 -65.5q131 0 227 101l152 -129q-76 -88 -169.5 -128t-205.5 -40q-193 0 -327 119.5t-134 408.5zM207 1470h274l188 -299h-172zM293 612h438q0 115 -61.5 178.5t-157.5 63.5 t-157.5 -63.5t-61.5 -178.5z" />
<glyph unicode="&#xe9;" d="M84 516q0 279 126 407t302 128t302 -122t126 -317v-172h-647q0 -125 67.5 -190.5t180.5 -65.5q131 0 227 101l152 -129q-76 -88 -169.5 -128t-205.5 -40q-193 0 -327 119.5t-134 408.5zM293 612h438q0 115 -61.5 178.5t-157.5 63.5t-157.5 -63.5t-61.5 -178.5zM354 1171 l188 299h275l-291 -299h-172z" />
<glyph unicode="&#xea;" d="M84 516q0 279 126 407t302 128t302 -122t126 -317v-172h-647q0 -125 67.5 -190.5t180.5 -65.5q131 0 227 101l152 -129q-76 -88 -169.5 -128t-205.5 -40q-193 0 -327 119.5t-134 408.5zM178 1171l217 299h233l218 -299h-197l-137 177l-137 -177h-197zM293 612h438 q0 115 -61.5 178.5t-157.5 63.5t-157.5 -63.5t-61.5 -178.5z" />
<glyph unicode="&#xeb;" d="M84 516q0 279 126 407t302 128t302 -122t126 -317v-172h-647q0 -125 67.5 -190.5t180.5 -65.5q131 0 227 101l152 -129q-76 -88 -169.5 -128t-205.5 -40q-193 0 -327 119.5t-134 408.5zM221 1200v221h221v-221h-221zM293 612h438q0 115 -61.5 178.5t-157.5 63.5 t-157.5 -63.5t-61.5 -178.5zM581 1200v221h222v-221h-222z" />
<glyph unicode="&#xec;" horiz-adv-x="491" d="M-59 1470h274l188 -299h-172zM141 0v1038h209v-1038h-209z" />
<glyph unicode="&#xed;" horiz-adv-x="491" d="M88 1171l188 299h275l-291 -299h-172zM141 0v1038h209v-1038h-209z" />
<glyph unicode="&#xee;" horiz-adv-x="491" d="M-88 1171l217 299h233l218 -299h-197l-137 177l-137 -177h-197zM141 0v1038h209v-1038h-209z" />
<glyph unicode="&#xef;" horiz-adv-x="491" d="M-45 1200v221h221v-221h-221zM141 0v1038h209v-1038h-209zM315 1200v221h222v-221h-222z" />
<glyph unicode="&#xf1;" horiz-adv-x="1099" d="M135 0v1038h209v-110q104 123 274 123q133 0 240 -97.5t107 -263.5v-690h-209v618q0 104 -57.5 164t-147.5 60q-92 0 -149.5 -59.5t-57.5 -164.5v-618h-209zM186 1192q14 109 76.5 173.5t155.5 64.5q45 0 148.5 -39t129.5 -39q35 0 60.5 19.5t35.5 70.5h123 q-18 -102 -74.5 -170t-150.5 -68q-57 0 -158.5 38t-136.5 38q-29 0 -57.5 -21.5t-28.5 -66.5h-123z" />
<glyph unicode="&#xf2;" d="M84 520q0 168 23.5 247t89.5 151q53 57 127.5 95t187.5 38q109 0 186.5 -38t135 -101.5t82 -146.5t24.5 -245q0 -168 -23.5 -247.5t-83 -144.5t-134 -102.5t-187.5 -37.5q-109 0 -186.5 37.5t-135 101t-82 146.5t-24.5 247zM207 1470h274l188 -299h-172zM293 520 q0 -113 10 -158t52 -105t157 -60q53 0 98 20.5t72 58t38 88t11 154.5q0 113 -10 158t-41 90q-53 76 -168 76q-53 0 -98 -20.5t-72 -58.5t-38 -88t-11 -155z" />
<glyph unicode="&#xf3;" d="M84 520q0 168 23.5 247t89.5 151q53 57 127.5 95t187.5 38q109 0 186.5 -38t135 -101.5t82 -146.5t24.5 -245q0 -168 -23.5 -247.5t-83 -144.5t-134 -102.5t-187.5 -37.5q-109 0 -186.5 37.5t-135 101t-82 146.5t-24.5 247zM293 520q0 -113 10 -158t52 -105t157 -60 q53 0 98 20.5t72 58t38 88t11 154.5q0 113 -10 158t-41 90q-53 76 -168 76q-53 0 -98 -20.5t-72 -58.5t-38 -88t-11 -155zM354 1171l188 299h275l-291 -299h-172z" />
<glyph unicode="&#xf4;" d="M84 520q0 168 23.5 247t89.5 151q53 57 127.5 95t187.5 38q109 0 186.5 -38t135 -101.5t82 -146.5t24.5 -245q0 -168 -23.5 -247.5t-83 -144.5t-134 -102.5t-187.5 -37.5q-109 0 -186.5 37.5t-135 101t-82 146.5t-24.5 247zM178 1171l217 299h233l218 -299h-197l-137 177 l-137 -177h-197zM293 520q0 -113 10 -158t52 -105t157 -60q53 0 98 20.5t72 58t38 88t11 154.5q0 113 -10 158t-41 90q-53 76 -168 76q-53 0 -98 -20.5t-72 -58.5t-38 -88t-11 -155z" />
<glyph unicode="&#xf5;" d="M84 520q0 168 23.5 247t89.5 151q53 57 127.5 95t187.5 38q109 0 186.5 -38t135 -101.5t82 -146.5t24.5 -245q0 -168 -23.5 -247.5t-83 -144.5t-134 -102.5t-187.5 -37.5q-109 0 -186.5 37.5t-135 101t-82 146.5t-24.5 247zM147 1192q14 109 76.5 173.5t155.5 64.5 q45 0 148.5 -39t129.5 -39q35 0 60.5 19.5t35.5 70.5h123q-18 -102 -74.5 -170t-150.5 -68q-57 0 -158.5 38t-136.5 38q-29 0 -57.5 -21.5t-28.5 -66.5h-123zM293 520q0 -113 10 -158t52 -105t157 -60q53 0 98 20.5t72 58t38 88t11 154.5q0 113 -10 158t-41 90 q-53 76 -168 76q-53 0 -98 -20.5t-72 -58.5t-38 -88t-11 -155z" />
<glyph unicode="&#xf6;" d="M84 520q0 168 23.5 247t89.5 151q53 57 127.5 95t187.5 38q109 0 186.5 -38t135 -101.5t82 -146.5t24.5 -245q0 -168 -23.5 -247.5t-83 -144.5t-134 -102.5t-187.5 -37.5q-109 0 -186.5 37.5t-135 101t-82 146.5t-24.5 247zM221 1200v221h221v-221h-221zM293 520 q0 -113 10 -158t52 -105t157 -60q53 0 98 20.5t72 58t38 88t11 154.5q0 113 -10 158t-41 90q-53 76 -168 76q-53 0 -98 -20.5t-72 -58.5t-38 -88t-11 -155zM581 1200v221h222v-221h-222z" />
<glyph unicode="&#xf7;" horiz-adv-x="1228" d="M96 438v160h1037v-160h-1037zM477 94q0 57 40 97t97 40t97.5 -39.5t40.5 -97.5q0 -57 -40 -97t-98 -40q-57 0 -97 40t-40 97zM477 942q0 57 40 97t97 40t97.5 -40t40.5 -97t-40 -97t-98 -40q-57 0 -97 40t-40 97z" />
<glyph unicode="&#xf8;" d="M84 520q0 168 23.5 247t83 143.5t134 102.5t187.5 38q68 0 118 -13.5t97 -40.5l90 156l90 -53l-96 -166q72 -70 100.5 -158t28.5 -256t-23.5 -247.5t-83 -144.5t-134 -102.5t-187.5 -37.5q-68 0 -117 13t-96 42l-92 -158l-90 54l96 167q-76 70 -102.5 164.5t-26.5 249.5z M293 520q0 -98 6 -140t27 -77l295 512q-49 27 -109 27q-53 0 -98 -20.5t-72 -58.5t-38 -88t-11 -155zM403 225q47 -29 109 -28q53 0 98 20.5t72 58t38 88t11 154.5q0 98 -6 140t-27 79z" />
<glyph unicode="&#xf9;" horiz-adv-x="1099" d="M135 348v690h209v-618q0 -104 57.5 -163.5t149.5 -59.5q90 0 147.5 59t57.5 164v618h209v-1038h-209v111q-104 -123 -273 -123q-135 0 -241.5 97t-106.5 263zM234 1470h274l188 -299h-172z" />
<glyph unicode="&#xfa;" horiz-adv-x="1099" d="M135 348v690h209v-618q0 -104 57.5 -163.5t149.5 -59.5q90 0 147.5 59t57.5 164v618h209v-1038h-209v111q-104 -123 -273 -123q-135 0 -241.5 97t-106.5 263zM381 1171l188 299h275l-291 -299h-172z" />
<glyph unicode="&#xfb;" horiz-adv-x="1099" d="M135 348v690h209v-618q0 -104 57.5 -163.5t149.5 -59.5q90 0 147.5 59t57.5 164v618h209v-1038h-209v111q-104 -123 -273 -123q-135 0 -241.5 97t-106.5 263zM205 1171l217 299h233l218 -299h-197l-137 177l-137 -177h-197z" />
<glyph unicode="&#xfc;" horiz-adv-x="1099" d="M135 348v690h209v-618q0 -104 57.5 -163.5t149.5 -59.5q90 0 147.5 59t57.5 164v618h209v-1038h-209v111q-104 -123 -273 -123q-135 0 -241.5 97t-106.5 263zM248 1200v221h221v-221h-221zM608 1200v221h222v-221h-222z" />
<glyph unicode="&#xfd;" horiz-adv-x="909" d="M-14 1038h221l246 -727l249 727h222l-447 -1253q-41 -113 -114.5 -159t-178.5 -46h-69v197h61q43 0 77 22.5t48 67.5l57 174zM297 1171l188 299h275l-291 -299h-172z" />
<glyph unicode="&#xfe;" horiz-adv-x="1062" d="M135 -420v1878h209v-528q51 55 119.5 88t148.5 33q92 0 161 -35t115 -95.5t61.5 -139.5t15.5 -263q0 -190 -14.5 -264t-60.5 -133.5t-115.5 -96t-162.5 -36.5q-78 0 -140 30.5t-128 92.5v-531h-209zM344 518q0 -152 37 -236.5t168 -84.5t169 83.5t38 237.5 q0 199 -51.5 261.5t-155.5 62.5q-129 0 -167 -87t-38 -237z" />
<glyph unicode="&#xff;" horiz-adv-x="909" d="M-14 1038h221l246 -727l249 727h222l-447 -1253q-41 -113 -114.5 -159t-178.5 -46h-69v197h61q43 0 77 22.5t48 67.5l57 174zM164 1200v221h221v-221h-221zM524 1200v221h222v-221h-222z" />
<glyph unicode="&#x152;" horiz-adv-x="1896" d="M104 729q0 256 11.5 330t61.5 165t169 168.5t279 77.5q88 0 165.5 -30.5t133.5 -93.5v112h915v-209h-694v-415h590v-197h-590v-428h698v-209h-919v115q-51 -59 -133 -93t-166 -34q-162 0 -279 75.5t-167 167t-62.5 172t-12.5 326.5zM326 729q0 -219 13 -286t60 -128 q35 -45 94.5 -75.5t131.5 -30.5q76 0 131 28.5t97 82t56.5 126t14.5 283.5q0 219 -13.5 285.5t-54.5 120t-100.5 84t-130.5 30.5q-76 0 -131.5 -28.5t-97.5 -82t-56 -126t-14 -283.5z" />
<glyph unicode="&#x153;" horiz-adv-x="1671" d="M84 520q0 168 23.5 247t83 143.5t134 102.5t187.5 38q190 0 326 -162q66 78 145.5 120t175.5 42q176 0 302 -122t126 -317v-172h-647q0 -125 67.5 -190.5t180.5 -65.5q131 0 227 101l152 -129q-76 -88 -169 -128t-206 -40q-119 0 -212 45t-142 121q-55 -78 -140.5 -122 t-185.5 -44q-109 0 -186.5 37.5t-135 101t-82 146.5t-24.5 247zM293 520q0 -121 10 -168t52 -107.5t157 -60.5q53 0 98 20.5t72 58.5t38 90.5t11 164.5q0 121 -10 168t-41 92q-53 76 -168 76q-53 0 -98 -20.5t-72 -58.5t-38 -90t-11 -165zM940 612h438q0 115 -61.5 178.5 t-157.5 63.5t-157.5 -63.5t-61.5 -178.5z" />
<glyph unicode="&#x178;" d="M-31 1458h234l309 -647l309 647h234l-439 -858v-600h-208v600zM221 1558v221h221v-221h-221zM581 1558v221h222v-221h-222z" />
<glyph unicode="&#x2000;" horiz-adv-x="960" />
<glyph unicode="&#x2001;" horiz-adv-x="1921" />
<glyph unicode="&#x2002;" horiz-adv-x="960" />
<glyph unicode="&#x2003;" horiz-adv-x="1921" />
<glyph unicode="&#x2004;" horiz-adv-x="640" />
<glyph unicode="&#x2005;" horiz-adv-x="480" />
<glyph unicode="&#x2006;" horiz-adv-x="320" />
<glyph unicode="&#x2007;" horiz-adv-x="320" />
<glyph unicode="&#x2008;" horiz-adv-x="240" />
<glyph unicode="&#x2009;" horiz-adv-x="384" />
<glyph unicode="&#x200a;" horiz-adv-x="106" />
<glyph unicode="&#x2010;" horiz-adv-x="833" d="M109 463v209h616v-209h-616z" />
<glyph unicode="&#x2011;" horiz-adv-x="833" d="M109 463v209h616v-209h-616z" />
<glyph unicode="&#x2012;" horiz-adv-x="833" d="M109 463v209h616v-209h-616z" />
<glyph unicode="&#x2013;" d="M0 469v197h1024v-197h-1024z" />
<glyph unicode="&#x2014;" horiz-adv-x="2048" d="M0 469v197h2048v-197h-2048z" />
<glyph unicode="&#x2018;" horiz-adv-x="491" d="M141 1098v209l209 151v-360h-209z" />
<glyph unicode="&#x2019;" horiz-adv-x="491" d="M141 1098v360h209v-209z" />
<glyph unicode="&#x201a;" horiz-adv-x="491" d="M141 -152v361h209v-209z" />
<glyph unicode="&#x201c;" horiz-adv-x="681" d="M78 1098v209l209 151v-360h-209zM395 1098v209l209 151v-360h-209z" />
<glyph unicode="&#x201d;" horiz-adv-x="681" d="M78 1098v360h209v-209zM395 1098v360h209v-209z" />
<glyph unicode="&#x201e;" horiz-adv-x="681" d="M78 -152v361h209v-209zM395 -152v361h209v-209z" />
<glyph unicode="&#x2022;" d="M147 729q0 152 106.5 258.5t258.5 106.5t258.5 -106.5t106.5 -258.5t-106.5 -258t-258.5 -106t-258.5 106.5t-106.5 257.5z" />
<glyph unicode="&#x2026;" horiz-adv-x="2048" d="M238 0v209h208v-209h-208zM920 0v209h208v-209h-208zM1602 0v209h208v-209h-208z" />
<glyph unicode="&#x202f;" horiz-adv-x="384" />
<glyph unicode="&#x2039;" horiz-adv-x="606" d="M94 567l418 414v-209l-209 -205l209 -205v-208z" />
<glyph unicode="&#x203a;" horiz-adv-x="606" d="M94 154v208l209 205l-209 205v209l418 -414z" />
<glyph unicode="&#x205f;" horiz-adv-x="480" />
<glyph unicode="&#x2122;" horiz-adv-x="2027" d="M82 1311v147h668v-147h-254v-697h-160v697h-254zM901 614v844h250l235 -622l236 622h250v-844h-160v684l-274 -684h-105l-268 684l-4 -684h-160z" />
<glyph unicode="&#x25fc;" horiz-adv-x="1034" d="M0 0v1034h1034v-1034h-1034z" />
</font>
</defs>
</svg>
